<?xml version="1.0" ?>
<svg xmlns="http://www.w3.org/2000/svg" xmlns:ev="http://www.w3.org/2001/xml-events" xmlns:xlink="http://www.w3.org/1999/xlink" baseProfile="full" height="600px" version="1.1" viewBox="-14.070000000000004 -14.069999999999972 168.14000000000004 168.14" width="600px">
	<defs/>
	<path d="M 1.9721522630525295e-31,2.8421709e-14 L 5.000000000000001,2.8421709e-14" fill="none" stroke="#000000" stroke-width="0.14000000000000004"/>
	<path d="M 5.000000000000001,2.8421709e-14 L 8.665016,2.8421709e-14" fill="none" stroke="#000000" stroke-width="0.14000000000000004"/>
	<path d="M 8.665016,2.8421709e-14 L 9.665016,2.8421709e-14" fill="none" stroke="#000000" stroke-width="0.14000000000000004"/>
	<path d="M 9.665016000000001,2.8421709e-14 L 140.0,2.8421709e-14" fill="none" stroke="#000000" stroke-width="0.14000000000000004"/>
	<path d="M 140.0,2.8421709e-14 L 140.0,140.00000000000003" fill="none" stroke="#000000" stroke-width="0.14000000000000004"/>
	<path d="M 140.00000000000003,140.00000000000003 L 0.0,140.00000000000003" fill="none" stroke="#000000" stroke-width="0.14000000000000004"/>
	<path d="M 8.8817842e-16,140.00000000000003 L 8.8817842e-16,4.999999903142452" fill="none" stroke="#000000" stroke-width="0.14000000000000004"/>
	<path d="M 8.8817842e-16,4.999999903142452 L 8.8817842e-16,2.842170943040401e-14" fill="none" stroke="#000000" stroke-width="0.14000000000000004"/>
	<path d="M 5.0,2.8421708993652644e-14 L 5.0,4.999999903142452" fill="none" stroke="#000000" stroke-width="0.14000000000000004"/>
	<path d="M 5.0,4.999999903142452 L 8.881784197001252e-16,4.999999903142452" fill="none" stroke="#000000" stroke-width="0.14000000000000004"/>
	<path d="M 9.665016,2.8421708999999996e-14 L 9.665016,1.5" fill="none" stroke="#000000" stroke-width="0.14000000000000004"/>
	<path d="M 9.665016,1.5 L 8.665016,1.5" fill="none" stroke="#000000" stroke-width="0.14000000000000004"/>
	<path d="M 8.665016,1.5 L 8.665016,2.842170943040401e-14" fill="none" stroke="#000000" stroke-width="0.14000000000000004"/>
	<path d="M 15.022929,1.5 L 16.022929,1.5" fill="none" stroke="#000000" stroke-width="0.14000000000000004"/>
	<path d="M 16.022929,1.5 L 16.022929,3.0" fill="none" stroke="#000000" stroke-width="0.14000000000000004"/>
	<path d="M 16.022928999999998,3.0 L 15.022929,3.0" fill="none" stroke="#000000" stroke-width="0.14000000000000004"/>
	<path d="M 15.022929,3.0 L 15.022929,1.5" fill="none" stroke="#000000" stroke-width="0.14000000000000004"/>
	<path d="M 7.521446,3.0 L 8.521446,3.0" fill="none" stroke="#000000" stroke-width="0.14000000000000004"/>
	<path d="M 8.521446,3.0 L 8.521446,4.5" fill="none" stroke="#000000" stroke-width="0.14000000000000004"/>
	<path d="M 8.521446,4.5 L 7.521446,4.5" fill="none" stroke="#000000" stroke-width="0.14000000000000004"/>
	<path d="M 7.521446,4.5 L 7.521446,3.0" fill="none" stroke="#000000" stroke-width="0.14000000000000004"/>
	<path d="M 13.562176,4.5 L 14.562176,4.5" fill="none" stroke="#000000" stroke-width="0.14000000000000004"/>
	<path d="M 14.562176,4.5 L 14.562176,6.0" fill="none" stroke="#000000" stroke-width="0.14000000000000004"/>
	<path d="M 14.562176,6.0 L 13.562176,6.0" fill="none" stroke="#000000" stroke-width="0.14000000000000004"/>
	<path d="M 13.562176,6.0 L 13.562176,4.5" fill="none" stroke="#000000" stroke-width="0.14000000000000004"/>
	<path d="M 1.361788,6.0 L 2.361788,6.0" fill="none" stroke="#000000" stroke-width="0.14000000000000004"/>
	<path d="M 2.361788,6.0 L 2.361788,7.5" fill="none" stroke="#000000" stroke-width="0.14000000000000004"/>
	<path d="M 2.361788,7.5 L 1.361788,7.5" fill="none" stroke="#000000" stroke-width="0.14000000000000004"/>
	<path d="M 1.361788,7.5 L 1.361788,6.0" fill="none" stroke="#000000" stroke-width="0.14000000000000004"/>
	<path d="M 12.794613,7.5 L 13.794613,7.5" fill="none" stroke="#000000" stroke-width="0.14000000000000004"/>
	<path d="M 13.794613,7.5 L 13.794613,9.0" fill="none" stroke="#000000" stroke-width="0.14000000000000004"/>
	<path d="M 13.794613,9.0 L 12.794613,9.0" fill="none" stroke="#000000" stroke-width="0.14000000000000004"/>
	<path d="M 12.794613,9.0 L 12.794613,7.5" fill="none" stroke="#000000" stroke-width="0.14000000000000004"/>
	<path d="M 3.678836,9.0 L 4.678836,9.0" fill="none" stroke="#000000" stroke-width="0.14000000000000004"/>
	<path d="M 4.678836,9.0 L 4.678836,10.5" fill="none" stroke="#000000" stroke-width="0.14000000000000004"/>
	<path d="M 4.678836,10.5 L 3.678836,10.5" fill="none" stroke="#000000" stroke-width="0.14000000000000004"/>
	<path d="M 3.678836,10.5 L 3.678836,9.0" fill="none" stroke="#000000" stroke-width="0.14000000000000004"/>
	<path d="M 7.799472,10.5 L 8.799472,10.5" fill="none" stroke="#000000" stroke-width="0.14000000000000004"/>
	<path d="M 8.799472,10.5 L 8.799472,12.0" fill="none" stroke="#000000" stroke-width="0.14000000000000004"/>
	<path d="M 8.799472,12.0 L 8.151775999999984,12.0" fill="none" stroke="#000000" stroke-width="0.14000000000000004"/>
	<path d="M 8.151775999999984,12.0 L 7.799472,12.0" fill="none" stroke="#000000" stroke-width="0.14000000000000004"/>
	<path d="M 7.799472,12.0 L 7.799472,10.5" fill="none" stroke="#000000" stroke-width="0.14000000000000004"/>
	<path d="M 8.799471999999996,12.0 L 9.151776,12.0" fill="none" stroke="#000000" stroke-width="0.14000000000000004"/>
	<path d="M 9.151776,12.0 L 9.151776,13.5" fill="none" stroke="#000000" stroke-width="0.14000000000000004"/>
	<path d="M 9.151776,13.5 L 8.151776,13.5" fill="none" stroke="#000000" stroke-width="0.14000000000000004"/>
	<path d="M 8.151776,13.5 L 8.151776,12.0" fill="none" stroke="#000000" stroke-width="0.14000000000000004"/>
	<path d="M 16.38442,13.5 L 17.38442,13.5" fill="none" stroke="#000000" stroke-width="0.14000000000000004"/>
	<path d="M 17.38442,13.5 L 17.38442,15.0" fill="none" stroke="#000000" stroke-width="0.14000000000000004"/>
	<path d="M 17.38442,15.0 L 16.38442,15.0" fill="none" stroke="#000000" stroke-width="0.14000000000000004"/>
	<path d="M 16.38442,15.0 L 16.38442,13.5" fill="none" stroke="#000000" stroke-width="0.14000000000000004"/>
</svg>
