<?xml version="1.0" encoding="UTF-8" standalone="no"?>
<!-- Created with Inkscape (http://www.inkscape.org/) -->

<svg
   width="103.27795mm"
   height="84.014175mm"
   viewBox="0 0 103.27796 84.014175"
   version="1.1"
   id="svg5"
   inkscape:version="1.1 (1:1.1+202105261517+ce6663b3b7)"
   sodipodi:docname="drawing1.svg"
   xmlns:inkscape="http://www.inkscape.org/namespaces/inkscape"
   xmlns:sodipodi="http://sodipodi.sourceforge.net/DTD/sodipodi-0.dtd"
   xmlns="http://www.w3.org/2000/svg"
   xmlns:svg="http://www.w3.org/2000/svg">
  <sodipodi:namedview
     id="namedview7"
     pagecolor="#ffffff"
     bordercolor="#cccccc"
     borderopacity="1"
     inkscape:pageshadow="0"
     inkscape:pageopacity="1"
     inkscape:pagecheckerboard="0"
     inkscape:document-units="mm"
     showgrid="false"
     fit-margin-top="0"
     fit-margin-left="0"
     fit-margin-right="0"
     fit-margin-bottom="0"
     inkscape:zoom="32"
     inkscape:cx="84.578125"
     inkscape:cy="219.64063"
     inkscape:window-width="1848"
     inkscape:window-height="1136"
     inkscape:window-x="1992"
     inkscape:window-y="27"
     inkscape:window-maximized="1"
     inkscape:current-layer="layer2"
     showguides="false" />
  <defs
     id="defs2">
    <inkscape:path-effect
       effect="fill_between_many"
       method="originald"
       linkedpaths="#path6707,0,1|#path6239,0,1|#path6709,0,1|#path6711,0,1|"
       id="path-effect6713" />
    <inkscape:path-effect
       effect="fill_between_many"
       method="originald"
       linkedpaths="#path6771,0,1|#path6773,0,1|#path6775,0,1|#path6237,0,1"
       id="path-effect6777" />
    <inkscape:path-effect
       effect="fill_between_many"
       method="originald"
       linkedpaths="#path7083,0,1|#path7085,0,1|#path7087,0,1|#path6235,0,1|"
       id="path-effect7089" />
    <inkscape:path-effect
       effect="fill_between_many"
       method="originald"
       linkedpaths="#path7137,0,1|#path7139,0,1|#path6436,0,1|#path6233,0,1|"
       id="path-effect7141" />
    <inkscape:path-effect
       effect="fill_between_many"
       method="originald"
       linkedpaths="#path6771,0,1|#path8005,0,1|#path6773,0,1|#path6237,0,1|"
       id="path-effect8087" />
    <inkscape:path-effect
       effect="fill_between_many"
       method="originald"
       linkedpaths="#path8295,0,1|#path8297,0,1|#path6231,0,1|#path8299,0,1|"
       id="path-effect8301" />
    <inkscape:path-effect
       effect="fill_between_many"
       method="originald"
       linkedpaths="#path8323,0,1|#path8325,0,1|#path6229,0,1|#path8327,0,1|"
       id="path-effect8329" />
    <inkscape:path-effect
       effect="fill_between_many"
       method="originald"
       linkedpaths="#g8561,0,1"
       id="path-effect8581" />
    <inkscape:path-effect
       effect="fill_between_many"
       method="originald"
       linkedpaths="#path6239,0,1|#path6237,0,1|#path6235,0,1|#path6233,0,1|#path6231,0,1|#path6229,0,1|#path8553,0,1|#path8551,0,1|#path8549,0,1|#path8547,0,1|#path8545,0,1|#path8543,0,1|#path8541,0,1|#path8539,0,1|#path8537,0,1|#path8535,0,1|"
       id="path-effect8673" />
    <inkscape:path-effect
       effect="fill_between_many"
       method="originald"
       linkedpaths="#path1468,0,1|"
       id="path-effect11691" />
    <inkscape:path-effect
       effect="fill_between_many"
       method="originald"
       linkedpaths="#path1456,0,1|#path1484,0,1|#path1486,0,1|#path1482,0,1|#path1480,0,1|#path1478,0,1|#path1488,0,1|#path1490,0,1|"
       id="path-effect11829" />
    <inkscape:path-effect
       effect="fill_between_many"
       method="originald"
       linkedpaths="#path1496,0,1|"
       id="path-effect12863" />
    <inkscape:path-effect
       effect="fill_between_many"
       method="originald"
       linkedpaths="#path1464,0,1|#path1462,0,1|#path1476,0,1|#path1474,0,1|#path1454,0,1|"
       id="path-effect13887" />
    <inkscape:path-effect
       effect="fill_between_many"
       method="originald"
       linkedpaths="#path1458,0,1|#path1468,0,1|#path11020,0,1|#path1460,0,1|#path1464,0,1|#path13399,0,1|"
       id="path-effect19982" />
    <inkscape:path-effect
       effect="fill_between_many"
       method="originald"
       linkedpaths="#path1450,0,1|#path1454,0,1|#path13571,0,1|#path1452,0,1|#path11747,0,1|#path1456,0,1|"
       id="path-effect21392" />
    <inkscape:path-effect
       effect="fill_between_many"
       method="originald"
       linkedpaths="#path23348,0,1|#path23346,0,1|#path1496,0,1|#path23350,0,1|"
       id="path-effect26877" />
  </defs>
  <g
     inkscape:groupmode="layer"
     id="layer2"
     inkscape:label="ROTOR"
     style="display:inline">
    <path
       style="display:inline;fill:#c6c6c6;fill-opacity:0.5;stroke:none;stroke-width:0.1;stroke-miterlimit:4;stroke-dasharray:none"
       d="m 51.427966,54.550525 c -10.236954,0.042 -20.475345,2.03244 -29.954742,5.9051 l -0.525389,0.2162 0.185084,0.40401 c 3.041487,7.44676 6.120711,14.87821 9.227276,22.29794 0.07409,0.204412 0.45028,-0.07324 0.995971,-0.25118 10.659155,-4.18767 22.6233,-4.96474 33.7307,-2.1782 2.58605,0.61374 5.08264,1.51412 7.57033,2.43933 0.375394,0.29765 0.3901,-0.48412 0.55212,-0.69171 3.03797,-7.29576 6.07222,-14.59326 9.08493,-21.89935 0.175028,-0.111561 -0.64388,-0.33971 -0.92445,-0.5322 -7.88587,-3.10254 -16.24377,-5.04297 -24.70887,-5.55544 -1.74199,-0.10901 -3.48756,-0.15993 -5.23296,-0.1545 z m 18.361792,3.569463 c 1.7248,0.4038 3.517365,0.819477 5.190075,1.404107 0.36464,0.0863 0.522599,0.521455 0.335499,0.843115 -0.30684,0.81385 -0.619665,1.709545 -1.044146,2.433075 -0.84594,0.48064 -1.99391,0.63652 -2.72928,1.04675 -0.170313,0.03042 0.268221,0.511738 -0.10861,0.52802 -4.02309,1.59612 -8.18697,2.96327 -12.24659,4.46448 -1.76233,0.62413 -3.536535,1.330815 -5.299725,1.912765 -0.14537,-0.19962 -0.160718,-0.579922 -0.542675,-0.312865 -0.59944,0.17047 -1.17499,0.52731 -1.79865,0.5621 -0.66729,-0.16588 -1.29597,-0.52221 -1.96422,-0.63535 -0.128086,0.65314 -0.312532,0.386268 -0.898,0.14236 -5.658584,-2.05345 -11.316913,-4.10759 -16.975078,-6.16218 0.03031,-0.694444 0.416117,-0.351753 -0.694237,-0.79437 -0.675534,-0.28009 -1.440865,-0.418971 -2.054484,-0.814061 -0.347228,-0.730979 -0.89108,-1.837431 -1.086897,-2.70359 0.06697,-0.48836 0.69945,-0.609899 1.104865,-0.695509 1.493935,-0.44178 2.999621,-0.891823 4.525878,-1.213993 6.055746,2.11475 12.060205,4.381263 18.092483,6.562123 2.11187,-0.69148 4.2,-1.51758 6.30277,-2.2607 3.96986,-1.43438 7.902602,-2.940157 11.891022,-4.306277 z"
       id="path14628"
       sodipodi:nodetypes="cccccccccccccccccccccccccccccccccc" />
    <g
       inkscape:label="0"
       id="g1432"
       style="stroke-width:0.566929;stroke-linecap:round;stroke-miterlimit:4;stroke-dasharray:none"
       transform="matrix(0.26458333,0,0,0.26458333,51.638973,-162.23301)" />
    <path
       style="fill:none;fill-opacity:0.99979;stroke:#000000;stroke-width:0.1;stroke-linecap:round;stroke-miterlimit:4;stroke-dasharray:none"
       d="M 72.877897,83.491614 82.33011,60.671831"
       id="path1442" />
    <path
       style="fill:none;fill-opacity:0.99979;stroke:#000000;stroke-width:0.1;stroke-linecap:round;stroke-miterlimit:4;stroke-dasharray:none"
       d="M 30.400049,83.491614 20.947836,60.671831"
       id="path1444"
       sodipodi:nodetypes="cc" />
    <path
       d="m 72.877903,83.491672 a 55.499999,55.499999 0 0 0 -42.47786,0"
       style="fill:none;fill-opacity:0.99979;stroke:#000000;stroke-width:0.1;stroke-linecap:round;stroke-miterlimit:4;stroke-dasharray:none"
       id="path1448" />
    <path
       d="m 51.638973,64.686883 17.760182,-6.464035 2.052135,5.638006 0.170999,0.4699 -17.760184,6.4643 -0.171012,-0.4699 z"
       id="path21394"
       style="fill:#d5242b;fill-opacity:0.7;stroke-width:0.1;stroke-miterlimit:4;stroke-dasharray:none"
       inkscape:original-d="M 0,0"
       inkscape:path-effect="#path-effect21392" />
    <path
       style="fill:none;stroke:#000000;stroke-width:0.1;stroke-linecap:round;stroke-miterlimit:4;stroke-dasharray:none"
       d="M 51.638973,64.686883 69.399155,58.222848"
       id="path1450" />
    <path
       style="fill:none;stroke:#000000;stroke-width:0.1;stroke-linecap:round;stroke-miterlimit:4;stroke-dasharray:none"
       d="m 53.862105,70.795054 17.760185,-6.4643"
       id="path1452" />
    <path
       d="m 51.638973,64.686883 -2.052122,5.638271 1.84691,0.672306 a 0.60000012,0.60000012 0 0 0 0.410424,-9.8e-5 l 1.84691,-0.672208 z"
       id="path13889"
       style="fill:#0090d3;fill-opacity:0.5;stroke-width:0.1;stroke-miterlimit:4;stroke-dasharray:none"
       inkscape:original-d="M 0,0"
       inkscape:path-effect="#path-effect13887" />
    <path
       style="fill:none;fill-opacity:0.99962;stroke:#000000;stroke-width:0.1;stroke-linecap:round;stroke-miterlimit:4;stroke-dasharray:none"
       d="m 51.638973,64.686883 2.052122,5.638271"
       id="path1454"
       sodipodi:nodetypes="cc" />
    <path
       d="m 71.45129,63.860854 -2.052135,-5.638006 0.1787,-0.06509 a 0.60000012,0.60000012 0 0 1 0.34447,-0.0198 78.779999,78.779999 0 0 1 5.057508,1.386134 0.60000012,0.60000012 0 0 1 0.37656,0.802672 l -0.929519,2.243979 a 0.60000012,0.60000012 0 0 1 -0.349103,0.334253 z"
       id="path11831"
       style="fill:#0090d3;fill-opacity:0.501961;stroke-width:0.1;stroke-miterlimit:4;stroke-dasharray:none"
       inkscape:original-d="M 0,0"
       inkscape:path-effect="#path-effect11829" />
    <path
       style="fill:none;stroke:#000000;stroke-width:0.1;stroke-linecap:round;stroke-miterlimit:4;stroke-dasharray:none"
       d="M 71.45129,63.860854 69.399155,58.222848"
       id="path1456"
       sodipodi:nodetypes="cc" />
    <path
       d="m 51.638973,64.686883 -17.760182,-6.464035 -2.052136,5.638006 -0.171001,0.4699 17.760187,6.4643 0.171009,-0.4699 z"
       id="path19984"
       style="fill:#d5242b;fill-opacity:0.7;stroke-width:0.1;stroke-miterlimit:4;stroke-dasharray:none"
       inkscape:original-d="M 0,0"
       inkscape:path-effect="#path-effect19982" />
    <path
       style="fill:none;stroke:#000000;stroke-width:0.1;stroke-linecap:round;stroke-miterlimit:4;stroke-dasharray:none"
       d="M 51.638973,64.686883 33.878791,58.222848"
       id="path1458" />
    <path
       style="fill:none;stroke:#000000;stroke-width:0.1;stroke-linecap:round;stroke-miterlimit:4;stroke-dasharray:none"
       d="m 49.415841,70.795054 -17.760185,-6.4643"
       id="path1460" />
    <path
       style="fill:none;fill-opacity:0.99962;stroke:#000000;stroke-width:0.1;stroke-linecap:round;stroke-miterlimit:4;stroke-dasharray:none"
       d="m 51.433761,70.99746 -1.84691,-0.672306"
       id="path1462" />
    <path
       style="fill:none;fill-opacity:0.99962;stroke:#000000;stroke-width:0.1;stroke-linecap:round;stroke-miterlimit:4;stroke-dasharray:none"
       d="m 51.638973,64.686883 -2.052122,5.638271"
       id="path1464"
       sodipodi:nodetypes="cc" />
    <path
       d="M 29.200169,62.904957 C 29.042098,62.847463 28.915435,62.72621 28.851066,62.57077 l -0.929507,-2.243979 c -0.135138,-0.326261 0.03929,-0.698075 0.376554,-0.802696 1.669987,-0.518041 3.356757,-0.980342 5.057508,-1.386127 0.114281,-0.02727 0.234055,-0.02039 0.344465,0.01979 l 0.178705,0.06509 -2.052135,5.638006 z"
       id="path11693"
       style="fill:#0090d3;fill-opacity:0.501961;stroke-width:0.1;stroke-miterlimit:4;stroke-dasharray:none"
       inkscape:original-d="M 0,0"
       inkscape:path-effect="#path-effect11691" />
    <path
       style="fill:none;stroke:#000000;stroke-width:0.1;stroke-linecap:round;stroke-miterlimit:4;stroke-dasharray:none"
       d="M 29.200169,62.904957 C 29.042098,62.847463 28.915435,62.72621 28.851066,62.57077 l -0.929507,-2.243979 c -0.135138,-0.326261 0.03929,-0.698075 0.376554,-0.802696 1.669987,-0.518041 3.356757,-0.980342 5.057508,-1.386127 0.114281,-0.02727 0.234055,-0.02039 0.344465,0.01979 l 0.178705,0.06509 -2.052135,5.638006 z"
       id="path1468"
       sodipodi:nodetypes="ccccccccc" />
    <path
       style="fill:none;fill-opacity:0.99962;stroke:#000000;stroke-width:0.1;stroke-linecap:round;stroke-miterlimit:4;stroke-dasharray:none"
       d="m 51.844185,70.99746 1.84691,-0.672306"
       id="path1474" />
    <path
       d="m 51.433761,70.997362 a 0.60000012,0.60000012 0 0 0 0.410424,0"
       style="fill:none;fill-opacity:0.99962;stroke:#000000;stroke-width:0.1;stroke-linecap:round;stroke-miterlimit:4;stroke-dasharray:none"
       id="path1476" />
    <path
       d="M 74.979833,59.524095 A 78.779999,78.779999 0 0 0 69.922325,58.137961"
       style="fill:none;stroke:#000000;stroke-width:0.1;stroke-linecap:round;stroke-miterlimit:4;stroke-dasharray:none"
       id="path1478" />
    <path
       d="m 75.356393,60.326767 a 0.60000012,0.60000012 0 0 0 -0.37656,-0.802672"
       style="fill:none;stroke:#000000;stroke-width:0.1;stroke-linecap:round;stroke-miterlimit:4;stroke-dasharray:none"
       id="path1480" />
    <path
       style="fill:none;stroke:#000000;stroke-width:0.1;stroke-linecap:round;stroke-miterlimit:4;stroke-dasharray:none"
       d="m 74.426874,62.570746 0.929507,-2.243932"
       id="path1482" />
    <path
       style="fill:none;stroke:#000000;stroke-width:0.1;stroke-linecap:round;stroke-miterlimit:4;stroke-dasharray:none"
       d="m 71.45129,63.860854 2.626493,-0.95594"
       id="path1484" />
    <path
       d="m 74.077771,62.904999 a 0.60000012,0.60000012 0 0 0 0.349115,-0.334206"
       style="fill:none;stroke:#000000;stroke-width:0.1;stroke-linecap:round;stroke-miterlimit:4;stroke-dasharray:none"
       id="path1486" />
    <path
       d="m 69.922325,58.137961 a 0.60000012,0.60000012 0 0 0 -0.344461,0.01979"
       style="fill:none;stroke:#000000;stroke-width:0.1;stroke-linecap:round;stroke-miterlimit:4;stroke-dasharray:none"
       id="path1488" />
    <path
       style="fill:none;stroke:#000000;stroke-width:0.1;stroke-linecap:round;stroke-miterlimit:4;stroke-dasharray:none"
       d="m 69.399155,58.222848 0.1787,-0.06509"
       id="path1490" />
    <path
       inkscape:original-d="M 0,0"
       inkscape:path-effect="#path-effect12863"
       d="m 20.947799,60.67184 c 19.651214,-8.139806 41.731132,-8.139806 61.382348,0 z"
       id="path12865"
       style="fill:none;fill-opacity:0.5;stroke-width:0.1;stroke-miterlimit:4;stroke-dasharray:none" />
    <path
       inkscape:original-d="M 0,0"
       inkscape:path-effect="#path-effect26877"
       d="m 82.425877,60.440865 c -19.712526,-8.165175 -41.861272,-8.165175 -61.573798,0 l 0.09572,0.230975 c 19.651214,-8.139806 41.731132,-8.139806 61.382348,0 z"
       id="path26879"
       style="fill:#fcff15;fill-opacity:1;stroke-width:0.1;stroke-miterlimit:4;stroke-dasharray:none" />
    <path
       style="fill:none;fill-opacity:0.99979;stroke:#000000;stroke-width:0.1;stroke-linecap:round;stroke-miterlimit:4;stroke-dasharray:none"
       d="m 20.852079,60.440865 0.09572,0.230975"
       id="path23350" />
    <path
       style="fill:none;fill-opacity:0.99979;stroke:#000000;stroke-width:0.1;stroke-linecap:round;stroke-miterlimit:4;stroke-dasharray:none"
       d="m 82.425877,60.440865 c -19.712526,-8.165175 -41.861272,-8.165175 -61.573798,0"
       id="path23348" />
    <path
       style="fill:none;fill-opacity:0.99979;stroke:#000000;stroke-width:0.1;stroke-linecap:round;stroke-miterlimit:4;stroke-dasharray:none"
       d="m 82.330147,60.67184 0.09573,-0.230975"
       id="path23346" />
    <path
       style="fill:none;fill-opacity:0.99979;stroke:#000000;stroke-width:0.1;stroke-linecap:round;stroke-miterlimit:4;stroke-dasharray:none"
       d="m 20.947799,60.67184 c 19.651214,-8.139806 41.731132,-8.139806 61.382348,0"
       id="path1496" />
    <path
       style="fill:none;stroke:#000000;stroke-width:0.1;stroke-linecap:butt;stroke-linejoin:miter;stroke-miterlimit:4;stroke-dasharray:none;stroke-opacity:1"
       d="m 31.655654,64.330754 0.171001,-0.4699"
       id="path11020"
       sodipodi:nodetypes="cc" />
    <path
       style="fill:none;stroke:#000000;stroke-width:0.1;stroke-linecap:butt;stroke-linejoin:miter;stroke-miterlimit:4;stroke-dasharray:none;stroke-opacity:1"
       d="m 71.622289,64.330754 -0.171,-0.4699"
       id="path11747" />
    <path
       style="fill:none;stroke:#000000;stroke-width:0.1;stroke-linecap:butt;stroke-linejoin:miter;stroke-miterlimit:4;stroke-dasharray:none;stroke-opacity:1"
       d="m 49.41584,70.795054 0.17101,-0.4699"
       id="path13399" />
    <path
       style="fill:none;stroke:#000000;stroke-width:0.1;stroke-linecap:butt;stroke-linejoin:miter;stroke-miterlimit:4;stroke-dasharray:none;stroke-opacity:1"
       d="m 53.862104,70.795054 -0.171011,-0.4699"
       id="path13571" />
  </g>
  <g
     inkscape:label="STATOR"
     inkscape:groupmode="layer"
     id="layer1"
     transform="translate(-53.361023,-80)"
     style="display:inline">
    <path
       style="fill:#00c60b;fill-opacity:0.501961;stroke:none;stroke-width:0.377953;stroke-miterlimit:4;stroke-dasharray:none"
       d="m 112.45207,84.798261 c -6.38654,0.0303 -12.17702,7.05503 -9.79735,13.265424 8.37207,35.723785 16.99288,71.387635 25.85779,106.992445 0.27867,1.98393 2.36233,1.23149 3.66071,0.93158 l 7.32925,-1.49202 0.7044,-0.62169 c 0.46216,-2.28715 -0.56255,-4.7988 -0.84692,-7.13823 -5.3089,-34.90172 -10.48925,-69.62286 -16.31958,-104.441691 -1.22319,-4.411188 -6.10525,-7.604649 -10.5883,-7.495818 z"
       id="path13598"
       transform="matrix(0.26458333,0,0,0.26458333,53.361023,80)"
       sodipodi:nodetypes="ccccccccc" />
    <path
       style="fill:#00c60b;fill-opacity:0.501961;stroke:none;stroke-width:0.377953;stroke-miterlimit:4;stroke-dasharray:none"
       d="m 167.19277,77.546274 c -5.9935,0.08899 -11.22455,6.161064 -10.05386,12.117766 3.73784,36.66849 7.6209,73.32576 11.74843,109.95207 0.88521,1.44591 3.15685,0.46603 4.54191,0.68361 l 6.7109,-0.58591 c 0.11176,-0.01 0.17602,-0.31163 0.27497,-0.36632 0.66296,-0.0316 0.0563,-6.06923 0.2483,-9.04912 -0.87832,-34.80214 -1.58564,-69.61952 -2.49599,-104.413899 -1.55573,-4.724608 -5.75181,-8.632913 -10.97466,-8.338197 z"
       id="path13637"
       transform="matrix(0.26458333,0,0,0.26458333,53.361023,80)"
       sodipodi:nodetypes="ccccscccc" />
    <path
       style="fill:#00c60b;fill-opacity:0.501961;stroke:none;stroke-width:0.377953;stroke-miterlimit:4;stroke-dasharray:none"
       d="m 222.57222,77.586325 c -5.64433,-0.01506 -10.47062,4.783769 -10.45509,10.344914 -0.88483,36.295041 -1.90399,73.045541 -2.40568,109.303211 -0.0926,0.64865 -0.20904,1.45357 0.0638,1.9912 0.22597,0.44526 0.75172,0.84405 1.47913,0.77752 l 9.07116,0.36703 c 0.24187,0.01 0.47879,-0.22593 0.71645,-0.27486 1.10075,-1.36119 0.49981,-3.5792 0.98338,-5.22985 3.88723,-35.61307 7.77158,-71.23024 11.28948,-106.881105 0.054,-5.714331 -5.01619,-10.644797 -10.74263,-10.39806 z"
       id="path13676"
       transform="matrix(0.26458333,0,0,0.26458333,53.361023,80)"
       sodipodi:nodetypes="cccscscccc" />
    <path
       style="fill:#00c60b;fill-opacity:0.501961;stroke:none;stroke-width:0.377953;stroke-miterlimit:4;stroke-dasharray:none"
       d="m 276.95867,84.794809 c -5.26062,0.202675 -9.89701,4.890304 -10.02931,10.166041 -5.80203,35.2587 -11.2924,70.57195 -16.38934,105.93952 -0.0935,1.2082 -0.92093,3.25081 0.93104,3.49768 3.11024,0.83755 6.32188,1.88363 9.54802,1.89069 1.44023,-1.00975 1.0262,-3.3501 1.74288,-4.83013 8.35844,-34.21031 16.66223,-68.49705 24.91742,-102.751455 0.25831,-1.07182 0.17763,-2.153103 0.41346,-3.229786 0.28899,-5.947878 -5.28495,-11.037147 -11.13417,-10.68256 z"
       id="path13715"
       transform="matrix(0.26458333,0,0,0.26458333,53.361023,80)"
       sodipodi:nodetypes="ccccccscc" />
    <path
       style="fill:#00c60b;fill-opacity:0.501961;stroke:none;stroke-width:0.377953;stroke-miterlimit:4;stroke-dasharray:none"
       d="m 330.50889,99.084718 c -4.82949,-0.0033 -9.33215,3.913042 -10.10113,8.672412 -10.06492,33.74341 -20.13284,67.49059 -29.6826,101.3842 -0.12835,1.58483 -2.14747,4.71675 -0.7444,4.93179 3.08096,1.43604 6.46246,2.45187 9.77176,3.4207 1.49167,0.39331 2.33682,-5.13125 3.56246,-7.52655 12.09377,-30.68758 24.0312,-61.44071 35.66754,-92.3048 1.48041,-3.66103 3.58513,-7.65518 1.81878,-11.57574 -1.54649,-4.23176 -5.72171,-7.271162 -10.29241,-7.002012 z"
       id="path13754"
       transform="matrix(0.26458333,0,0,0.26458333,53.361023,80)"
       sodipodi:nodetypes="ccccccccc" />
    <path
       style="fill:#00c60b;stroke:none;stroke-width:0.37795276;fill-opacity:0.5;stroke-miterlimit:4;stroke-dasharray:none"
       d="m 60.601665,98.988791 c -4.793225,-0.57271 -9.656281,2.529919 -11.217881,7.084709 -0.938269,2.49629 -0.878343,5.35142 0.339874,7.74651 12.978813,34.01383 26.09577,67.97603 39.303842,101.90193 0.357904,0.74605 0.719033,2.24868 1.850399,1.82645 3.228426,-0.99707 6.496813,-1.9602 9.587171,-3.33061 1.07637,-0.62538 0.0708,-1.93621 -0.0296,-2.82084 C 90.386683,176.61722 80.24449,141.86402 69.977558,107.14787 68.928875,102.79302 65.081397,99.38838 60.601665,98.988791 Z"
       id="path10238"
       transform="matrix(0.26458333,0,0,0.26458333,53.361023,80)" />
    <path
       style="fill:#c6c6c6;fill-opacity:0.5;stroke:none;stroke-width:0.377953;stroke-miterlimit:4;stroke-dasharray:none"
       d="m 290.05553,218.4322 c -8.49664,-2.04531 -16.91545,-5.23272 -25.52375,-7.10468 l -6.09949,-1.36871 0.42797,-1.73536 0.32839,-2.06708 1.67828,0.23298 0.6214,-0.36996 c 8.45965,-35.01571 17.59697,-69.80649 25.62869,-104.81404 1.28696,-4.233286 1.71955,-9.32542 -1.638,-12.83568 -4.72074,-5.924824 -15.34407,-4.129924 -17.79762,3.068692 -0.13286,0.753048 -0.46906,1.491382 -0.60092,2.244608 -6.40649,36.59608 -11.31559,72.82648 -17.14026,109.52632 l 2.09413,1.52394 -0.7564,3.80251 -0.7015,-0.32694 c -9.62524,-1.28349 -19.26578,-2.92382 -28.96643,-3.77993 l -2.7908,-0.16642 0.25364,-3.86823 2.15219,-0.039 0.38405,-2.79134 c 3.59887,-29.34877 6.27124,-57.28817 9.44579,-86.71451 0.63044,-8.17968 2.33818,-15.848145 2.38208,-24.041825 -1.28735,-8.454131 -11.60794,-11.938906 -17.38304,-6.885839 -2.82122,1.718327 -4.21537,5.016833 -3.9368,8.009533 -0.58235,24.729731 -1.03341,49.575591 -1.75327,74.330441 -0.10657,12.41043 -0.77007,24.81889 -0.81006,37.0942 l 0.74697,0.38008 1.49316,0.18137 -0.2536,3.86785 -11.97526,-0.41694 -14.23614,0.21845 -6.5274,0.1985 -0.25361,-3.868 1.21574,-0.0801 0.90207,-0.4724 c -0.41363,-37.35651 -1.26009,-74.63405 -2.52107,-111.967808 0.26861,-7.794415 -10.03119,-12.366684 -16.21926,-8.303673 -3.39925,1.999081 -5.64186,6.01826 -4.90818,9.888163 2.3588,23.833508 5.21146,47.736288 7.6236,71.627258 1.53145,12.9 2.52893,26.34201 4.38958,39.07579 0.04,0.27387 0.17672,0.28362 0.21746,0.55707 l 2.02127,0.15268 0.2535,3.86801 -0.94217,-0.19484 c -8.71138,1.35623 -17.59891,1.94283 -26.30128,3.55527 l -5.21527,0.91308 -0.30755,-1.58236 -0.44883,-2.22015 1.8533,-0.45322 0.14599,-0.9307 c -4.85445,-34.39088 -10.33321,-68.74058 -15.93558,-103.02726 -0.10462,-1.560754 -0.4926,-2.938482 -0.68218,-4.537823 -0.27962,-2.358989 -0.96167,-4.804142 -2.31804,-6.746303 -3.748,-5.670975 -12.99467,-5.513918 -16.94765,-0.198324 -2.14621,2.131349 -2.05492,4.945012 -2.17766,7.708793 -0.0764,1.719775 0.94529,3.402158 1.16503,4.963207 7.18626,32.13691 15.50281,64.00392 23.2948,96.00113 1.09907,2.75013 0.83609,6.29943 2.61125,8.6581 l 1.83644,-0.0146 0.75635,3.80259 -25.22841,6.4146 -6.29679,1.87619 -0.610448,-1.61534 -0.733802,-1.87304 1.86438,-0.80959 -0.11982,-0.55243 C 90.868915,177.89854 80.388735,142.49169 69.867994,107.1799 c -1.133428,-5.60438 -7.085168,-9.132948 -12.563321,-7.864178 -6.483306,0.828558 -9.983898,8.523048 -7.428947,14.252158 9.235967,25.92826 19.702015,51.47501 29.515184,77.21724 l 10.475101,26.68207 2.266919,-0.36098 1.246,3.67098 -8.956691,3.36512 -6.204514,2.2435 -0.308576,-0.59923 C 53.05894,166.1488 28.33411,106.41855 3.7640795,46.650004 L 0.64108524,39.335614 1.1674895,39.003918 C 24.637238,29.458516 48.768278,21.501496 73.363278,15.39816 111.83501,5.9893025 151.42086,0.67130133 191.05794,0.78549082 c 8.56006,-0.0200236 17.12175,0.017694 25.67908,0.25069898 57.1621,2.5390368 113.99224,14.5013382 167.10725,35.8522392 l 5.84963,2.3573 -0.3982,0.904185 c -19.93352,48.903352 -40.34017,97.631366 -60.55615,146.425616 -5.57176,13.06881 -10.68799,26.91459 -16.57104,39.7897 l -15.20556,-5.58802 1.246,-3.67098 2.13184,0.5152 c 1.36414,-2.53354 2.38048,-6.13213 3.58508,-9.0571 11.80663,-30.05015 23.67283,-60.09409 34.89423,-90.36164 1.71436,-3.97037 3.86389,-8.38803 1.88924,-12.51681 -2.33052,-5.812465 -9.94315,-8.46419 -15.30218,-5.22121 -4.85493,2.42382 -4.76973,8.62675 -6.65842,13.04326 -10.07693,33.30398 -20.00671,67.07306 -29.3898,100.55424 l 1.94281,0.69905 -1.24619,3.67102"
       id="path1519"
       transform="matrix(0.26458333,0,0,0.26458333,53.361023,80)"
       sodipodi:nodetypes="ccccccccccsccccccccccccccccccccccccccccscccccccccccsccsccccccccccccccccccccccccccccccccccccccccccc" />
    <g
       inkscape:label="0"
       id="g857"
       style="stroke:#000000;stroke-width:0.566929;stroke-linecap:round;stroke-miterlimit:4;stroke-dasharray:none"
       transform="matrix(0.26458333,0,0,0.26458333,105,-82.247731)" />
    <path
       d="m 156.51684,90.379604 a 134.62,134.62 0 0 0 -103.033683,0"
       style="fill:none;stroke:#000000;stroke-width:0.1;stroke-linecap:round;stroke-miterlimit:4;stroke-dasharray:none"
       id="path29278" />
    <path
       style="fill:none;stroke:#000000;stroke-width:0.1;stroke-linecap:round;stroke-miterlimit:4;stroke-dasharray:none"
       d="m 101.20378,132.56721 -0.68746,-29.30207"
       id="path29280" />
    <path
       d="m 100.92349,132.87357 a 0.29999993,0.29999993 0 0 0 0.2803,-0.30639"
       style="fill:none;stroke:#000000;stroke-width:0.1;stroke-linecap:round;stroke-miterlimit:4;stroke-dasharray:none"
       id="path29282" />
    <path
       style="fill:none;stroke:#000000;stroke-width:0.1;stroke-linecap:round;stroke-miterlimit:4;stroke-dasharray:none"
       d="M 98.036431,132.77491 94.89334,103.6337"
       id="path29284" />
    <path
       d="m 100.66893,133.91817 -0.0671,-1.02341 -1.925848,0.12621 1.992948,0.8972 -1.925876,0.12621 -0.06707,-1.02341 z"
       id="path7143"
       style="fill:#0090d3;fill-opacity:0.501961;stroke-width:0.1;stroke-miterlimit:4;stroke-dasharray:none"
       inkscape:original-d="M 0,0"
       inkscape:path-effect="#path-effect7141" />
    <path
       style="fill:none;stroke:#000000;stroke-width:0.1;stroke-linecap:round;stroke-miterlimit:4;stroke-dasharray:none"
       d="m 98.743054,134.04438 -0.06707,-1.02341"
       id="path7139" />
    <path
       style="fill:none;stroke:#000000;stroke-width:0.1;stroke-linecap:round;stroke-miterlimit:4;stroke-dasharray:none"
       d="m 100.66893,133.91817 -0.0671,-1.02341"
       id="path7137" />
    <path
       style="fill:none;stroke:#000000;stroke-width:0.1;stroke-linecap:round;stroke-miterlimit:4;stroke-dasharray:none"
       d="m 100.60183,132.89476 0.32166,-0.0212"
       id="path29289" />
    <path
       d="m 100.51631,103.2652 a 2.82,2.82 0 1 0 -5.622962,0.36854"
       style="fill:none;stroke:#000000;stroke-width:0.1;stroke-linecap:round;stroke-miterlimit:4;stroke-dasharray:none"
       id="path29291" />
    <path
       d="m 98.036431,132.77478 a 0.29999993,0.29999993 0 0 0 0.31789,0.26719"
       style="fill:none;stroke:#000000;stroke-width:0.1;stroke-linecap:round;stroke-miterlimit:4;stroke-dasharray:none"
       id="path29293" />
    <path
       style="fill:none;stroke:#000000;stroke-width:0.1;stroke-linecap:round;stroke-miterlimit:4;stroke-dasharray:none"
       d="M 90.508956,133.76577 86.002679,104.80422"
       id="path29295" />
    <path
       d="m 90.271051,134.10615 a 0.29999993,0.29999993 0 0 0 0.237906,-0.34036"
       style="fill:none;stroke:#000000;stroke-width:0.1;stroke-linecap:round;stroke-miterlimit:4;stroke-dasharray:none"
       id="path29297" />
    <path
       style="fill:none;stroke:#000000;stroke-width:0.1;stroke-linecap:round;stroke-miterlimit:4;stroke-dasharray:none"
       d="M 87.395789,134.38516 80.47593,105.90356"
       id="path29299" />
    <path
       d="m 90.155023,135.17521 -0.200131,-1.00621 -1.892908,0.3765 2.093034,0.62958 -1.892916,0.37652 -0.200118,-1.0061 z"
       id="path8303"
       style="fill:#0090d3;fill-opacity:0.501961;stroke-width:0.1;stroke-miterlimit:4;stroke-dasharray:none"
       inkscape:original-d="M 0,0"
       inkscape:path-effect="#path-effect8301" />
    <path
       style="fill:none;stroke:#000000;stroke-width:0.1;stroke-linecap:round;stroke-miterlimit:4;stroke-dasharray:none"
       d="M 88.262115,135.55171 88.061984,134.5455"
       id="path8297" />
    <path
       style="fill:none;stroke:#000000;stroke-width:0.1;stroke-linecap:round;stroke-miterlimit:4;stroke-dasharray:none"
       d="M 90.155023,135.17521 89.954892,134.169"
       id="path8295" />
    <path
       style="fill:none;stroke:#000000;stroke-width:0.1;stroke-linecap:round;stroke-miterlimit:4;stroke-dasharray:none"
       d="m 87.745833,134.60847 0.316151,-0.063"
       id="path29304" />
    <path
       d="m 87.395796,134.38504 a 0.29999993,0.29999993 0 0 0 0.350046,0.2234"
       style="fill:none;stroke:#000000;stroke-width:0.1;stroke-linecap:round;stroke-miterlimit:4;stroke-dasharray:none"
       id="path29306" />
    <path
       style="fill:none;stroke:#000000;stroke-width:0.1;stroke-linecap:round;stroke-miterlimit:4;stroke-dasharray:none"
       d="m 89.954892,134.169 0.316151,-0.063"
       id="path29308" />
    <path
       d="m 86.002687,104.80422 a 2.82,2.82 0 1 0 -5.526753,1.09934"
       style="fill:none;stroke:#000000;stroke-width:0.1;stroke-linecap:round;stroke-miterlimit:4;stroke-dasharray:none"
       id="path29310" />
    <path
       style="fill:none;stroke:#000000;stroke-width:0.1;stroke-linecap:round;stroke-miterlimit:4;stroke-dasharray:none"
       d="m 88.061984,134.5455 1.892908,-0.3765"
       id="path8299" />
    <path
       style="fill:none;stroke:#000000;stroke-width:0.1;stroke-linecap:round;stroke-miterlimit:4;stroke-dasharray:none"
       d="M 80.062069,136.35022 71.814107,108.22449"
       id="path29313" />
    <path
       d="m 79.870629,136.7186 a 0.29999993,0.29999993 0 0 0 0.191445,-0.3685"
       style="fill:none;stroke:#000000;stroke-width:0.1;stroke-linecap:round;stroke-miterlimit:4;stroke-dasharray:none"
       id="path29315" />
    <path
       style="fill:none;stroke:#000000;stroke-width:0.1;stroke-linecap:round;stroke-miterlimit:4;stroke-dasharray:none"
       d="M 77.056296,137.37046 66.478255,110.03582"
       id="path29317" />
    <path
       d="m 79.895117,137.79352 -0.329724,-0.97128 -1.82753,0.62045 2.157248,0.35084 -1.827577,0.62044 -0.329671,-0.97128 z"
       id="path8331"
       style="fill:#0090d3;fill-opacity:0.501961;stroke-width:0.1;stroke-miterlimit:4;stroke-dasharray:none"
       inkscape:original-d="M 0,0"
       inkscape:path-effect="#path-effect8329" />
    <path
       style="fill:none;stroke:#000000;stroke-width:0.1;stroke-linecap:round;stroke-miterlimit:4;stroke-dasharray:none"
       d="m 78.067534,138.41397 -0.329671,-0.97128"
       id="path8325" />
    <path
       style="fill:none;stroke:#000000;stroke-width:0.1;stroke-linecap:round;stroke-miterlimit:4;stroke-dasharray:none"
       d="m 79.895117,137.79352 -0.329724,-0.97128"
       id="path8323" />
    <path
       style="fill:none;stroke:#000000;stroke-width:0.1;stroke-linecap:round;stroke-miterlimit:4;stroke-dasharray:none"
       d="m 77.432534,137.54614 0.305329,-0.10345"
       id="path29322" />
    <path
       d="m 77.056373,137.3704 a 0.29999993,0.29999993 0 0 0 0.376214,0.17581"
       style="fill:none;stroke:#000000;stroke-width:0.1;stroke-linecap:round;stroke-miterlimit:4;stroke-dasharray:none"
       id="path29324" />
    <path
       style="fill:none;stroke:#000000;stroke-width:0.1;stroke-linecap:round;stroke-miterlimit:4;stroke-dasharray:none"
       d="m 79.565393,136.82224 0.305223,-0.10372"
       id="path29326" />
    <path
       d="m 71.814112,108.22449 a 2.82,2.82 0 1 0 -5.335979,1.81132"
       style="fill:none;stroke:#000000;stroke-width:0.1;stroke-linecap:round;stroke-miterlimit:4;stroke-dasharray:none"
       id="path29328" />
    <path
       style="fill:none;stroke:#000000;stroke-width:0.1;stroke-linecap:round;stroke-miterlimit:4;stroke-dasharray:none"
       d="m 77.737863,137.44269 1.82753,-0.62045"
       id="path8327" />
    <path
       style="fill:none;stroke:#000000;stroke-width:0.1;stroke-linecap:round;stroke-miterlimit:4;stroke-dasharray:none"
       d="m 132.9437,137.37046 10.57805,-27.33464"
       id="path29331" />
    <path
       d="m 132.56741,137.54621 a 0.29999993,0.29999993 0 0 0 0.37622,-0.17581"
       style="fill:none;stroke:#000000;stroke-width:0.1;stroke-linecap:round;stroke-miterlimit:4;stroke-dasharray:none"
       id="path29333" />
    <path
       style="fill:none;stroke:#000000;stroke-width:0.1;stroke-linecap:round;stroke-miterlimit:4;stroke-dasharray:none"
       d="m 129.93793,136.35022 8.24796,-28.12573"
       id="path29335" />
    <path
       d="m 130.43461,136.82224 1.82753,0.62045 -0.32967,0.97128 -1.49786,-1.59173 -0.32973,0.97128 1.82759,0.62045 z"
       id="path6715"
       style="fill:#0090d3;fill-opacity:0.501961;stroke-width:0.1;stroke-miterlimit:4;stroke-dasharray:none"
       inkscape:original-d="M 0,0"
       inkscape:path-effect="#path-effect6713" />
    <path
       style="fill:none;stroke:#000000;stroke-width:0.1;stroke-linecap:round;stroke-miterlimit:4;stroke-dasharray:none"
       d="m 130.10488,137.79352 0.32973,-0.97128"
       id="path6711" />
    <path
       style="fill:none;stroke:#000000;stroke-width:0.1;stroke-linecap:round;stroke-miterlimit:4;stroke-dasharray:none"
       d="m 131.93247,138.41397 0.32967,-0.97128"
       id="path6709" />
    <path
       style="fill:none;stroke:#000000;stroke-width:0.1;stroke-linecap:round;stroke-miterlimit:4;stroke-dasharray:none"
       d="m 130.12938,136.71852 0.30523,0.10372"
       id="path29340" />
    <path
       d="m 129.93793,136.3501 a 0.29999993,0.29999993 0 0 0 0.19144,0.3685"
       style="fill:none;stroke:#000000;stroke-width:0.1;stroke-linecap:round;stroke-miterlimit:4;stroke-dasharray:none"
       id="path29342" />
    <path
       style="fill:none;stroke:#000000;stroke-width:0.1;stroke-linecap:round;stroke-miterlimit:4;stroke-dasharray:none"
       d="m 132.26214,137.44269 0.30533,0.10345"
       id="path29344" />
    <path
       d="m 143.52187,110.03581 a 2.82,2.82 0 1 0 -5.33598,-1.81132"
       style="fill:none;stroke:#000000;stroke-width:0.1;stroke-linecap:round;stroke-miterlimit:4;stroke-dasharray:none"
       id="path29346" />
    <path
       style="fill:none;stroke:#000000;stroke-width:0.1;stroke-linecap:round;stroke-miterlimit:4;stroke-dasharray:none"
       d="m 130.43461,136.82224 1.82753,0.62045"
       id="path6707" />
    <path
       style="fill:none;stroke:#000000;stroke-width:0.1;stroke-linecap:round;stroke-miterlimit:4;stroke-dasharray:none"
       d="m 122.60421,134.38516 6.91986,-28.4816"
       id="path29349" />
    <path
       d="m 122.25416,134.60844 a 0.29999993,0.29999993 0 0 0 0.35004,-0.2234"
       style="fill:none;stroke:#000000;stroke-width:0.1;stroke-linecap:round;stroke-miterlimit:4;stroke-dasharray:none"
       id="path29351" />
    <path
       style="fill:none;stroke:#000000;stroke-width:0.1;stroke-linecap:round;stroke-miterlimit:4;stroke-dasharray:none"
       d="m 119.49104,133.76577 4.50628,-28.96155"
       id="path29353" />
    <path
       d="m 119.84498,135.17521 0.20013,-1.00621 -0.20013,1.00608 1.89291,0.37663 0.20013,-1.00621 z"
       id="path6779"
       style="fill:none;fill-opacity:0.5;stroke-width:0.1;stroke-miterlimit:4;stroke-dasharray:none"
       inkscape:original-d="M 0,0"
       inkscape:path-effect="#path-effect6777" />
    <path
       d="m 119.84498,135.17521 0.20013,-1.00621 1.89291,0.37654 -0.20013,1.00617 -1.89291,-0.37663 z"
       id="path8089"
       style="fill:#0090d3;fill-opacity:0.501961;stroke-width:0.1;stroke-miterlimit:4;stroke-dasharray:none"
       inkscape:original-d="M 0,0"
       inkscape:path-effect="#path-effect8087" />
    <path
       style="fill:none;stroke:#000000;stroke-width:0.1;stroke-linecap:round;stroke-miterlimit:4;stroke-dasharray:none"
       d="m 119.84498,135.17521 0.20013,-1.00621"
       id="path6771" />
    <path
       style="fill:none;stroke:#000000;stroke-width:0.1;stroke-linecap:round;stroke-miterlimit:4;stroke-dasharray:none"
       d="m 121.73789,135.55171 0.20013,-1.00621"
       id="path6773" />
    <path
       d="m 119.49104,133.76579 a 0.29999993,0.29999993 0 0 0 0.23791,0.34036"
       style="fill:none;stroke:#000000;stroke-width:0.1;stroke-linecap:round;stroke-miterlimit:4;stroke-dasharray:none"
       id="path29359" />
    <path
       d="m 129.52407,105.90356 a 2.82,2.82 0 1 0 -5.52676,-1.09934"
       style="fill:none;stroke:#000000;stroke-width:0.1;stroke-linecap:round;stroke-miterlimit:4;stroke-dasharray:none"
       id="path29361" />
    <path
       style="fill:none;stroke:#000000;stroke-width:0.1;stroke-linecap:round;stroke-miterlimit:4;stroke-dasharray:none"
       d="m 111.96357,132.77491 3.14309,-29.14121"
       id="path29363" />
    <path
       d="m 111.64568,133.04197 a 0.29999993,0.29999993 0 0 0 0.31789,-0.26719"
       style="fill:none;stroke:#000000;stroke-width:0.1;stroke-linecap:round;stroke-miterlimit:4;stroke-dasharray:none"
       id="path29365" />
    <path
       style="fill:none;stroke:#000000;stroke-width:0.1;stroke-linecap:round;stroke-miterlimit:4;stroke-dasharray:none"
       d="m 108.79622,132.56721 0.68746,-29.30207"
       id="path29367" />
    <path
       d="m 111.25695,134.04438 0.0671,-1.02341 -1.92588,-0.12621 1.85878,1.14962 -1.92588,-0.12621 0.0671,-1.02341 z"
       id="path7091"
       style="fill:#0090d3;fill-opacity:0.501961;stroke-width:0.1;stroke-miterlimit:4;stroke-dasharray:none"
       inkscape:original-d="M 0,0"
       inkscape:path-effect="#path-effect7089" />
    <path
       style="fill:none;fill-opacity:1;stroke:#000000;stroke-width:0.1;stroke-linecap:round;stroke-miterlimit:4;stroke-dasharray:none"
       d="m 109.33107,133.91817 0.0671,-1.02341"
       id="path7087" />
    <path
       style="fill:none;fill-opacity:1;stroke:#000000;stroke-width:0.1;stroke-linecap:round;stroke-miterlimit:4;stroke-dasharray:none"
       d="m 111.25695,134.04438 0.0671,-1.02341"
       id="path7083" />
    <path
       style="fill:none;stroke:#000000;stroke-width:0.1;stroke-linecap:round;stroke-miterlimit:4;stroke-dasharray:none"
       d="m 109.07651,132.8736 0.32166,0.0212"
       id="path29372" />
    <path
       d="m 108.79621,132.56718 a 0.29999993,0.29999993 0 0 0 0.2803,0.30639"
       style="fill:none;stroke:#000000;stroke-width:0.1;stroke-linecap:round;stroke-miterlimit:4;stroke-dasharray:none"
       id="path29374" />
    <path
       style="fill:none;stroke:#000000;stroke-width:0.1;stroke-linecap:round;stroke-miterlimit:4;stroke-dasharray:none"
       d="m 111.32402,133.02097 0.32165,0.0209"
       id="path29376" />
    <path
       d="m 115.10665,103.63374 a 2.82,2.82 0 1 0 -5.62296,-0.36854"
       style="fill:none;stroke:#000000;stroke-width:0.1;stroke-linecap:round;stroke-miterlimit:4;stroke-dasharray:none"
       id="path29378" />
    <path
       style="fill:none;fill-opacity:1;stroke:#000000;stroke-width:0.1;stroke-linecap:round;stroke-miterlimit:4;stroke-dasharray:none"
       d="m 109.39817,132.89476 1.92585,0.12621"
       id="path7085" />
    <path
       style="fill:none;stroke:#000000;stroke-width:0.1;stroke-linecap:round;stroke-miterlimit:4;stroke-dasharray:none"
       d="M 135.97821,139.96417 156.51676,90.379663"
       id="path29381" />
    <path
       style="fill:none;stroke:#000000;stroke-width:0.1;stroke-linecap:round;stroke-miterlimit:4;stroke-dasharray:none"
       d="M 74.02179,139.96417 53.483244,90.379663"
       id="path29383" />
    <path
       inkscape:original-d="M 0,0"
       inkscape:path-effect="#path-effect8581"
       d="M 0,0"
       id="path8583"
       style="fill:none;fill-opacity:0.5" />
    <path
       d="m 130.10488,137.79352 1.82759,0.62045 a 80.95,80.95 0 0 1 4.04575,1.55025 l -5.87333,-2.17069 a 80.95,80.95 0 0 0 -8.36699,-2.24193 l -1.89292,-0.37652 a 80.95,80.95 0 0 0 -8.58804,-1.13064 l -1.92587,-0.12627 a 80.95,80.95 0 0 0 -8.66214,4e-5 l -1.925876,0.12617 a 80.95,80.95 0 0 0 -8.588035,1.1307 l -1.892917,0.37652 a 80.95,80.95 0 0 0 -8.36699,2.24193 l -1.827578,0.62044 a 80.95,80.95 0 0 0 -4.045757,1.55025 l 0.09579,0.23093 a 80.699998,80.699998 0 0 1 61.76498,4e-5 l 0.0957,-0.23102 z"
       id="path8675"
       style="fill:#fcff15;fill-opacity:1;stroke-width:0.1;stroke-miterlimit:4;stroke-dasharray:none"
       inkscape:original-d="M 0,0"
       inkscape:path-effect="#path-effect8673" />
    <path
       d="m 109.33107,133.91821 a 80.95,80.95 0 0 0 -8.66214,0"
       style="fill:none;stroke:#000000;stroke-width:0.1;stroke-linecap:round;stroke-miterlimit:4;stroke-dasharray:none"
       id="path8535" />
    <path
       d="m 98.743059,134.04444 a 80.95,80.95 0 0 0 -8.58804,1.13064"
       style="fill:none;stroke:#000000;stroke-width:0.1;stroke-linecap:round;stroke-miterlimit:4;stroke-dasharray:none"
       id="path8537" />
    <path
       d="m 88.262103,135.5516 a 80.95,80.95 0 0 0 -8.366991,2.24193"
       style="fill:none;stroke:#000000;stroke-width:0.1;stroke-linecap:round;stroke-miterlimit:4;stroke-dasharray:none"
       id="path8539" />
    <path
       d="m 78.067536,138.41391 a 80.95,80.95 0 0 0 -4.045759,1.55031"
       style="fill:none;stroke:#000000;stroke-width:0.1;stroke-linecap:round;stroke-miterlimit:4;stroke-dasharray:none"
       id="path8541" />
    <path
       d="m 135.97822,139.96422 a 80.95,80.95 0 0 0 -4.04576,-1.55031"
       style="fill:none;stroke:#000000;stroke-width:0.1;stroke-linecap:round;stroke-miterlimit:4;stroke-dasharray:none"
       id="path8543" />
    <path
       d="M 130.10489,137.79353 A 80.95,80.95 0 0 0 121.7379,135.5516"
       style="fill:none;stroke:#000000;stroke-width:0.1;stroke-linecap:round;stroke-miterlimit:4;stroke-dasharray:none"
       id="path8545" />
    <path
       d="m 119.84498,135.17508 a 80.95,80.95 0 0 0 -8.58804,-1.13064"
       style="fill:none;stroke:#000000;stroke-width:0.1;stroke-linecap:round;stroke-miterlimit:4;stroke-dasharray:none"
       id="path8547" />
    <path
       d="m 135.88255,140.19519 a 80.699998,80.699998 0 0 0 -61.765103,0"
       style="fill:none;stroke:#000000;stroke-width:0.1;stroke-linecap:round;stroke-miterlimit:4;stroke-dasharray:none"
       id="path8549" />
    <path
       style="fill:none;stroke:#000000;stroke-width:0.1;stroke-linecap:round;stroke-miterlimit:4;stroke-dasharray:none"
       d="m 74.02179,139.96417 0.09578,0.23098"
       id="path8551" />
    <path
       style="fill:none;stroke:#000000;stroke-width:0.1;stroke-linecap:round;stroke-miterlimit:4;stroke-dasharray:none"
       d="m 135.88243,140.19515 0.0958,-0.23098"
       id="path8553" />
    <path
       style="fill:none;stroke:#000000;stroke-width:0.1;stroke-linecap:butt;stroke-linejoin:miter;stroke-miterlimit:4;stroke-dasharray:none;stroke-opacity:1"
       d="m 78.067534,138.41397 1.827577,-0.62044"
       id="path6229" />
    <path
       style="fill:none;stroke:#000000;stroke-width:0.1;stroke-linecap:butt;stroke-linejoin:miter;stroke-miterlimit:4;stroke-dasharray:none;stroke-opacity:1"
       d="m 88.262102,135.5516 1.892916,-0.37652"
       id="path6231" />
    <path
       style="fill:none;stroke:#000000;stroke-width:0.1;stroke-linecap:butt;stroke-linejoin:miter;stroke-miterlimit:4;stroke-dasharray:none;stroke-opacity:1"
       d="m 98.743054,134.04438 1.925876,-0.12621"
       id="path6233" />
    <path
       style="fill:none;fill-opacity:1;stroke:#000000;stroke-width:0.1;stroke-linecap:butt;stroke-linejoin:miter;stroke-miterlimit:4;stroke-dasharray:none;stroke-opacity:1"
       d="m 109.33107,133.91817 1.92588,0.12621"
       id="path6235" />
    <path
       style="fill:none;stroke:#000000;stroke-width:0.1;stroke-linecap:butt;stroke-linejoin:miter;stroke-miterlimit:4;stroke-dasharray:none;stroke-opacity:1"
       d="m 119.84498,135.17508 1.89291,0.37663"
       id="path6237" />
    <path
       style="fill:none;stroke:#000000;stroke-width:0.1;stroke-linecap:butt;stroke-linejoin:miter;stroke-miterlimit:4;stroke-dasharray:none;stroke-opacity:1"
       d="m 130.10488,137.79352 1.82759,0.62045"
       id="path6239" />
    <path
       style="fill:none;stroke:#000000;stroke-width:0.1;stroke-linecap:butt;stroke-linejoin:miter;stroke-miterlimit:4;stroke-dasharray:none;stroke-opacity:1"
       d="m 98.675982,133.02097 -0.321662,0.021"
       id="path6434" />
    <path
       style="fill:none;stroke:#000000;stroke-width:0.1;stroke-linecap:butt;stroke-linejoin:miter;stroke-miterlimit:4;stroke-dasharray:none;stroke-opacity:1"
       d="m 98.675982,133.02097 1.925848,-0.12621"
       id="path6436" />
    <path
       style="fill:none;stroke:#000000;stroke-width:0.1;stroke-linecap:butt;stroke-linejoin:miter;stroke-miterlimit:4;stroke-dasharray:none;stroke-opacity:1"
       d="m 119.72895,134.10615 0.31616,0.0628"
       id="path7693" />
    <path
       style="fill:none;stroke:#000000;stroke-width:0.1;stroke-linecap:butt;stroke-linejoin:miter;stroke-miterlimit:4;stroke-dasharray:none;stroke-opacity:1"
       d="m 122.25416,134.60844 -0.31614,-0.0629"
       id="path7890" />
    <path
       style="fill:none;stroke:#000000;stroke-width:0.1;stroke-linecap:butt;stroke-linejoin:miter;stroke-miterlimit:4;stroke-dasharray:none;stroke-opacity:1"
       d="m 120.04511,134.169 1.89291,0.37654"
       id="path8005" />
  </g>
</svg>
