<?xml version="1.0" ?>
<svg xmlns="http://www.w3.org/2000/svg" xmlns:ev="http://www.w3.org/2001/xml-events" xmlns:xlink="http://www.w3.org/1999/xlink" baseProfile="full" height="600px" version="1.1" viewBox="-14.070000000000004 -14.069999999999972 168.14000000000004 168.14" width="600px">
	<defs/>
	<path d="M 1.9721522630525295e-31,2.8421709e-14 L 5.000000000000001,2.8421709e-14" fill="none" stroke="#000000" stroke-width="0.14000000000000004"/>
	<path d="M 5.000000000000001,2.8421709e-14 L 17.485977,2.8421709e-14" fill="none" stroke="#000000" stroke-width="0.14000000000000004"/>
	<path d="M 17.485977,2.8421709e-14 L 18.485977,2.8421709e-14" fill="none" stroke="#000000" stroke-width="0.14000000000000004"/>
	<path d="M 18.485977,2.8421709e-14 L 140.0,2.8421709e-14" fill="none" stroke="#000000" stroke-width="0.14000000000000004"/>
	<path d="M 140.0,2.8421709e-14 L 140.0,140.00000000000003" fill="none" stroke="#000000" stroke-width="0.14000000000000004"/>
	<path d="M 140.00000000000003,140.00000000000003 L 0.0,140.00000000000003" fill="none" stroke="#000000" stroke-width="0.14000000000000004"/>
	<path d="M 8.8817842e-16,140.00000000000003 L 8.8817842e-16,4.999999903142452" fill="none" stroke="#000000" stroke-width="0.14000000000000004"/>
	<path d="M 8.8817842e-16,4.999999903142452 L 8.8817842e-16,2.842170943040401e-14" fill="none" stroke="#000000" stroke-width="0.14000000000000004"/>
	<path d="M 5.0,2.8421708993652644e-14 L 5.0,4.999999903142452" fill="none" stroke="#000000" stroke-width="0.14000000000000004"/>
	<path d="M 5.0,4.999999903142452 L 8.881784197001252e-16,4.999999903142452" fill="none" stroke="#000000" stroke-width="0.14000000000000004"/>
	<path d="M 18.485977,2.8421708999999996e-14 L 18.485977,1.5" fill="none" stroke="#000000" stroke-width="0.14000000000000004"/>
	<path d="M 18.485977,1.5 L 17.485977,1.5" fill="none" stroke="#000000" stroke-width="0.14000000000000004"/>
	<path d="M 17.485977,1.5 L 17.485977,2.842170943040401e-14" fill="none" stroke="#000000" stroke-width="0.14000000000000004"/>
	<path d="M 14.401638,1.5 L 15.401638,1.5" fill="none" stroke="#000000" stroke-width="0.14000000000000004"/>
	<path d="M 15.401638,1.5 L 15.401638,3.0" fill="none" stroke="#000000" stroke-width="0.14000000000000004"/>
	<path d="M 15.401638,3.0 L 14.427641000000003,3.0" fill="none" stroke="#000000" stroke-width="0.14000000000000004"/>
	<path d="M 14.427641000000003,3.0 L 14.401638,3.0" fill="none" stroke="#000000" stroke-width="0.14000000000000004"/>
	<path d="M 14.401638,3.0 L 14.401638,1.5" fill="none" stroke="#000000" stroke-width="0.14000000000000004"/>
	<path d="M 13.427641,3.0 L 14.401638000000002,3.0" fill="none" stroke="#000000" stroke-width="0.14000000000000004"/>
	<path d="M 14.427641,3.0 L 14.427641,4.5" fill="none" stroke="#000000" stroke-width="0.14000000000000004"/>
	<path d="M 14.427641,4.5 L 13.427641,4.5" fill="none" stroke="#000000" stroke-width="0.14000000000000004"/>
	<path d="M 13.427641,4.5 L 13.427641,3.0" fill="none" stroke="#000000" stroke-width="0.14000000000000004"/>
	<path d="M 19.451646,4.5 L 20.451646,4.5" fill="none" stroke="#000000" stroke-width="0.14000000000000004"/>
	<path d="M 20.451646,4.5 L 20.451646,6.0" fill="none" stroke="#000000" stroke-width="0.14000000000000004"/>
	<path d="M 20.451646,6.0 L 19.451646,6.0" fill="none" stroke="#000000" stroke-width="0.14000000000000004"/>
	<path d="M 19.451646,6.0 L 19.451646,4.5" fill="none" stroke="#000000" stroke-width="0.14000000000000004"/>
	<path d="M 2.668015,6.0 L 3.668015,6.0" fill="none" stroke="#000000" stroke-width="0.14000000000000004"/>
	<path d="M 3.668015,6.0 L 3.668015,7.5" fill="none" stroke="#000000" stroke-width="0.14000000000000004"/>
	<path d="M 3.6680150000000022,7.5 L 2.668015,7.5" fill="none" stroke="#000000" stroke-width="0.14000000000000004"/>
	<path d="M 2.668015,7.5 L 2.668015,6.0" fill="none" stroke="#000000" stroke-width="0.14000000000000004"/>
	<path d="M 4.936239,7.5 L 5.936239,7.5" fill="none" stroke="#000000" stroke-width="0.14000000000000004"/>
	<path d="M 5.936239,7.5 L 5.936239,9.0" fill="none" stroke="#000000" stroke-width="0.14000000000000004"/>
	<path d="M 5.936239,9.0 L 4.936239,9.0" fill="none" stroke="#000000" stroke-width="0.14000000000000004"/>
	<path d="M 4.936239,9.0 L 4.936239,7.5" fill="none" stroke="#000000" stroke-width="0.14000000000000004"/>
	<path d="M 19.909513,9.0 L 20.909513,9.0" fill="none" stroke="#000000" stroke-width="0.14000000000000004"/>
	<path d="M 20.909513,9.0 L 20.909513,10.5" fill="none" stroke="#000000" stroke-width="0.14000000000000004"/>
	<path d="M 20.909513,10.5 L 19.909513,10.5" fill="none" stroke="#000000" stroke-width="0.14000000000000004"/>
	<path d="M 19.909513,10.5 L 19.909513,9.0" fill="none" stroke="#000000" stroke-width="0.14000000000000004"/>
	<path d="M 7.290303,10.5 L 8.290303,10.5" fill="none" stroke="#000000" stroke-width="0.14000000000000004"/>
	<path d="M 8.290303,10.5 L 8.290303,12.0" fill="none" stroke="#000000" stroke-width="0.14000000000000004"/>
	<path d="M 8.290303,12.0 L 8.162455,12.0" fill="none" stroke="#000000" stroke-width="0.14000000000000004"/>
	<path d="M 8.162455,12.0 L 7.290303,12.0" fill="none" stroke="#000000" stroke-width="0.14000000000000004"/>
	<path d="M 7.290303,12.0 L 7.290303,10.5" fill="none" stroke="#000000" stroke-width="0.14000000000000004"/>
	<path d="M 7.162455,12.0 L 7.290303,12.0" fill="none" stroke="#000000" stroke-width="0.14000000000000004"/>
	<path d="M 8.162455,12.0 L 8.162455,13.5" fill="none" stroke="#000000" stroke-width="0.14000000000000004"/>
	<path d="M 8.162455,13.5 L 7.162455,13.5" fill="none" stroke="#000000" stroke-width="0.14000000000000004"/>
	<path d="M 7.162455,13.5 L 7.162455,12.0" fill="none" stroke="#000000" stroke-width="0.14000000000000004"/>
	<path d="M 8.766665,13.5 L 9.766665,13.5" fill="none" stroke="#000000" stroke-width="0.14000000000000004"/>
	<path d="M 9.766665,13.5 L 9.766665,15.0" fill="none" stroke="#000000" stroke-width="0.14000000000000004"/>
	<path d="M 9.766665,15.0 L 8.766665,15.0" fill="none" stroke="#000000" stroke-width="0.14000000000000004"/>
	<path d="M 8.766665,15.0 L 8.766665,13.5" fill="none" stroke="#000000" stroke-width="0.14000000000000004"/>
</svg>
