<?xml version="1.0" ?>
<svg xmlns="http://www.w3.org/2000/svg" xmlns:ev="http://www.w3.org/2001/xml-events" xmlns:xlink="http://www.w3.org/1999/xlink" baseProfile="full" height="600px" version="1.1" viewBox="-7.035 -42.035 84.07 84.07" width="600px">
	<defs/>
	<path d="M 33.774205930604765,-15.0 L 34.774205930604765,-15.0 L 34.774205930604765,-13.5 L 33.774205930604765,-13.5 L 33.774205930604765,-15.0" fill="none" stroke="#000000" stroke-width="0.07"/>
	<path d="M 6.125483985020012,-13.5 L 7.125483985020012,-13.5 L 7.125483985020012,-12.0 L 6.125483985020012,-12.0 L 6.125483985020012,-13.5" fill="none" stroke="#000000" stroke-width="0.07"/>
	<path d="M 17.376319326610364,-12.0 L 18.376319326610364,-12.0 L 18.376319326610364,-10.5 L 17.376319326610364,-10.5 L 17.376319326610364,-12.0" fill="none" stroke="#000000" stroke-width="0.07"/>
	<path d="M 15.044483216697024,-10.5 L 16.044483216697024,-10.5 L 16.044483216697024,-9.0 L 15.044483216697024,-9.0 L 15.044483216697024,-10.5" fill="none" stroke="#000000" stroke-width="0.07"/>
	<path d="M 38.14120463738056,-9.0 L 39.14120463738056,-9.0 L 39.14120463738056,-7.5 L 38.14120463738056,-7.5 L 38.14120463738056,-9.0" fill="none" stroke="#000000" stroke-width="0.07"/>
	<path d="M 35.45147693403101,-7.5 L 36.45147693403101,-7.5 L 36.45147693403101,-6.0 L 35.45147693403101,-6.0 L 35.45147693403101,-7.5" fill="none" stroke="#000000" stroke-width="0.07"/>
	<path d="M 45.14808054671804,-6.0 L 46.14808054671804,-6.0 L 46.14808054671804,-4.5 L 45.14808054671804,-4.5 L 45.14808054671804,-6.0" fill="none" stroke="#000000" stroke-width="0.07"/>
	<path d="M 8.912247468323727,-4.5 L 9.912247468323727,-4.5 L 9.912247468323727,-3.0 L 8.912247468323727,-3.0 L 8.912247468323727,-4.5" fill="none" stroke="#000000" stroke-width="0.07"/>
	<path d="M 23.98648188583717,-3.0 L 24.98648188583717,-3.0 L 24.98648188583717,-1.5 L 23.98648188583717,-1.5 L 23.98648188583717,-3.0" fill="none" stroke="#000000" stroke-width="0.07"/>
	<path d="M 6.340874874713165,-1.5 L 7.340874874713165,-1.5 L 7.340874874713165,0.0 L 6.340874874713165,0.0 L 6.340874874713165,-1.5" fill="none" stroke="#000000" stroke-width="0.07"/>
	<path d="M 14.83870886616215,0.0 L 15.83870886616215,0.0 L 15.83870886616215,1.5 L 14.83870886616215,1.5 L 14.83870886616215,0.0" fill="none" stroke="#000000" stroke-width="0.07"/>
	<path d="M 27.740987964651307,1.5 L 28.740987964651307,1.5 L 28.740987964651307,3.0 L 27.740987964651307,3.0 L 27.740987964651307,1.5" fill="none" stroke="#000000" stroke-width="0.07"/>
	<path d="M 6.194118635773863,3.0 L 7.194118635773863,3.0 L 7.194118635773863,4.5 L 6.194118635773863,4.5 L 6.194118635773863,3.0" fill="none" stroke="#000000" stroke-width="0.07"/>
	<path d="M 13.947694280899182,4.5 L 14.947694280899182,4.5 L 14.947694280899182,6.0 L 13.947694280899182,6.0 L 13.947694280899182,4.5" fill="none" stroke="#000000" stroke-width="0.07"/>
	<path d="M 34.244799700078545,6.0 L 35.244799700078545,6.0 L 35.244799700078545,7.5 L 34.244799700078545,7.5 L 34.244799700078545,6.0" fill="none" stroke="#000000" stroke-width="0.07"/>
	<path d="M 29.522366627144752,7.5 L 30.522366627144752,7.5 L 30.522366627144752,9.0 L 29.522366627144752,9.0 L 29.522366627144752,7.5" fill="none" stroke="#000000" stroke-width="0.07"/>
	<path d="M 14.919827991831351,9.0 L 15.919827991831351,9.0 L 15.919827991831351,10.5 L 14.919827991831351,10.5 L 14.919827991831351,9.0" fill="none" stroke="#000000" stroke-width="0.07"/>
	<path d="M 31.51695577441589,10.5 L 32.51695577441589,10.5 L 32.51695577441589,12.0 L 31.51695577441589,12.0 L 31.51695577441589,10.5" fill="none" stroke="#000000" stroke-width="0.07"/>
	<path d="M 41.424370550502196,12.0 L 42.424370550502196,12.0 L 42.424370550502196,13.5 L 41.424370550502196,13.5 L 41.424370550502196,12.0" fill="none" stroke="#000000" stroke-width="0.07"/>
	<path d="M 5.292444185512746,13.5 L 6.292444185512746,13.5 L 6.292444185512746,15.0 L 5.292444185512746,15.0 L 5.292444185512746,13.5" fill="none" stroke="#000000" stroke-width="0.07"/>
	<path d="M 0.0,-5.0 L 5.0,-5.0 L 5.0,5.0 L 0.0,5.0 L 0.0,-5.0" fill="none" stroke="#000000" stroke-width="0.07"/>
	<path d="M 0.0,-35.0 L 70.0,-35.0 L 70.0,35.0 L 0.0,35.0 L 0.0,-35.0" fill="none" stroke="#000000" stroke-width="0.07"/>
</svg>
