<?xml version="1.0" encoding="UTF-8" standalone="no"?>
<svg
   xmlns:dc="http://purl.org/dc/elements/1.1/"
   xmlns:cc="http://creativecommons.org/ns#"
   xmlns:rdf="http://www.w3.org/1999/02/22-rdf-syntax-ns#"
   xmlns:svg="http://www.w3.org/2000/svg"
   xmlns="http://www.w3.org/2000/svg"
   xmlns:sodipodi="http://sodipodi.sourceforge.net/DTD/sodipodi-0.dtd"
   xmlns:inkscape="http://www.inkscape.org/namespaces/inkscape"
   height="600px"
   version="1.1"
   viewBox="-7.035 -42.035 84.07 84.07"
   width="600px"
   id="svg932"
   sodipodi:docname="geometry.svg"
   inkscape:version="0.92.5 (2060ec1f9f, 2020-04-08)">
  <metadata
     id="metadata936">
    <rdf:RDF>
      <cc:Work
         rdf:about="">
        <dc:format>image/svg+xml</dc:format>
        <dc:type
           rdf:resource="http://purl.org/dc/dcmitype/StillImage" />
      </cc:Work>
    </rdf:RDF>
  </metadata>
  <sodipodi:namedview
     pagecolor="#ffffff"
     bordercolor="#666666"
     borderopacity="1"
     objecttolerance="10"
     gridtolerance="10"
     guidetolerance="10"
     inkscape:pageopacity="0"
     inkscape:pageshadow="2"
     inkscape:window-width="1848"
     inkscape:window-height="1136"
     id="namedview934"
     showgrid="false"
     inkscape:zoom="1.5966667"
     inkscape:cx="300"
     inkscape:cy="375.15658"
     inkscape:window-x="1992"
     inkscape:window-y="27"
     inkscape:window-maximized="1"
     inkscape:current-layer="svg932" />
  <defs
     id="defs886" />
  <path
     d="M 33.774205930604765,-15.0 L 34.774205930604765,-15.0 L 34.774205930604765,-13.5 L 33.774205930604765,-13.5 L 33.774205930604765,-15.0"
     fill="none"
     stroke="#000000"
     stroke-width="0.07"
     id="path888" />
  <path
     d="M 6.125483985020012,-13.5 L 7.125483985020012,-13.5 L 7.125483985020012,-12.0 L 6.125483985020012,-12.0 L 6.125483985020012,-13.5"
     fill="none"
     stroke="#000000"
     stroke-width="0.07"
     id="path890" />
  <path
     d="M 17.376319326610364,-12.0 L 18.376319326610364,-12.0 L 18.376319326610364,-10.5 L 17.376319326610364,-10.5 L 17.376319326610364,-12.0"
     fill="none"
     stroke="#000000"
     stroke-width="0.07"
     id="path892" />
  <path
     d="M 15.044483216697024,-10.5 L 16.044483216697024,-10.5 L 16.044483216697024,-9.0 L 15.044483216697024,-9.0 L 15.044483216697024,-10.5"
     fill="none"
     stroke="#000000"
     stroke-width="0.07"
     id="path894" />
  <path
     d="M 38.14120463738056,-9.0 L 39.14120463738056,-9.0 L 39.14120463738056,-7.5 L 38.14120463738056,-7.5 L 38.14120463738056,-9.0"
     fill="none"
     stroke="#000000"
     stroke-width="0.07"
     id="path896" />
  <path
     d="M 35.45147693403101,-7.5 L 36.45147693403101,-7.5 L 36.45147693403101,-6.0 L 35.45147693403101,-6.0 L 35.45147693403101,-7.5"
     fill="none"
     stroke="#000000"
     stroke-width="0.07"
     id="path898" />
  <path
     d="M 45.14808054671804,-6.0 L 46.14808054671804,-6.0 L 46.14808054671804,-4.5 L 45.14808054671804,-4.5 L 45.14808054671804,-6.0"
     fill="none"
     stroke="#000000"
     stroke-width="0.07"
     id="path900" />
  <path
     d="M 8.912247468323727,-4.5 L 9.912247468323727,-4.5 L 9.912247468323727,-3.0 L 8.912247468323727,-3.0 L 8.912247468323727,-4.5"
     fill="none"
     stroke="#000000"
     stroke-width="0.07"
     id="path902" />
  <path
     d="M 23.98648188583717,-3.0 L 24.98648188583717,-3.0 L 24.98648188583717,-1.5 L 23.98648188583717,-1.5 L 23.98648188583717,-3.0"
     fill="none"
     stroke="#000000"
     stroke-width="0.07"
     id="path904" />
  <path
     d="M 6.340874874713165,-1.5 L 7.340874874713165,-1.5 L 7.340874874713165,0.0 L 6.340874874713165,0.0 L 6.340874874713165,-1.5"
     fill="none"
     stroke="#000000"
     stroke-width="0.07"
     id="path906" />
  <path
     d="M 14.83870886616215,0.0 L 15.83870886616215,0.0 L 15.83870886616215,1.5 L 14.83870886616215,1.5 L 14.83870886616215,0.0"
     fill="none"
     stroke="#000000"
     stroke-width="0.07"
     id="path908" />
  <path
     d="M 27.740987964651307,1.5 L 28.740987964651307,1.5 L 28.740987964651307,3.0 L 27.740987964651307,3.0 L 27.740987964651307,1.5"
     fill="none"
     stroke="#000000"
     stroke-width="0.07"
     id="path910" />
  <path
     d="M 6.194118635773863,3.0 L 7.194118635773863,3.0 L 7.194118635773863,4.5 L 6.194118635773863,4.5 L 6.194118635773863,3.0"
     fill="none"
     stroke="#000000"
     stroke-width="0.07"
     id="path912" />
  <path
     d="M 13.947694280899182,4.5 L 14.947694280899182,4.5 L 14.947694280899182,6.0 L 13.947694280899182,6.0 L 13.947694280899182,4.5"
     fill="none"
     stroke="#000000"
     stroke-width="0.07"
     id="path914" />
  <path
     d="M 34.244799700078545,6.0 L 35.244799700078545,6.0 L 35.244799700078545,7.5 L 34.244799700078545,7.5 L 34.244799700078545,6.0"
     fill="none"
     stroke="#000000"
     stroke-width="0.07"
     id="path916" />
  <path
     d="M 29.522366627144752,7.5 L 30.522366627144752,7.5 L 30.522366627144752,9.0 L 29.522366627144752,9.0 L 29.522366627144752,7.5"
     fill="none"
     stroke="#000000"
     stroke-width="0.07"
     id="path918" />
  <path
     d="M 14.919827991831351,9.0 L 15.919827991831351,9.0 L 15.919827991831351,10.5 L 14.919827991831351,10.5 L 14.919827991831351,9.0"
     fill="none"
     stroke="#000000"
     stroke-width="0.07"
     id="path920" />
  <path
     d="M 31.51695577441589,10.5 L 32.51695577441589,10.5 L 32.51695577441589,12.0 L 31.51695577441589,12.0 L 31.51695577441589,10.5"
     fill="none"
     stroke="#000000"
     stroke-width="0.07"
     id="path922" />
  <path
     d="M 41.424370550502196,12.0 L 42.424370550502196,12.0 L 42.424370550502196,13.5 L 41.424370550502196,13.5 L 41.424370550502196,12.0"
     fill="none"
     stroke="#000000"
     stroke-width="0.07"
     id="path924" />
  <path
     d="M 5.292444185512746,13.5 L 6.292444185512746,13.5 L 6.292444185512746,15.0 L 5.292444185512746,15.0 L 5.292444185512746,13.5"
     fill="none"
     stroke="#000000"
     stroke-width="0.07"
     id="path926" />
  <path
     d="M 0.0,-5.0 L 5.0,-5.0 L 5.0,5.0 L 0.0,5.0 L 0.0,-5.0"
     fill="magenta"
     stroke="#000000"
     stroke-width="0.07"
     id="path928"
     style="fill:none" />
  <path
     d="M 0.0,-35.0 L 70.0,-35.0 L 70.0,35.0 L 0.0,35.0 L 0.0,-35.0"
     fill="none"
     stroke="#000000"
     stroke-width="0.07"
     id="path930" />
</svg>
