<?xml version="1.0" ?>
<svg xmlns="http://www.w3.org/2000/svg" xmlns:ev="http://www.w3.org/2001/xml-events" xmlns:xlink="http://www.w3.org/1999/xlink" baseProfile="full" height="600px" version="1.1" viewBox="-14.070000000000004 -14.069999999999972 168.14000000000004 168.14" width="600px">
	<defs/>
	<path d="M 1.9721522630525295e-31,2.8421709e-14 L 5.000000000000001,2.8421709e-14" fill="none" stroke="#000000" stroke-width="0.14000000000000004"/>
	<path d="M 5.000000000000001,2.8421709e-14 L 9.000311999999997,2.8421709e-14" fill="none" stroke="#000000" stroke-width="0.14000000000000004"/>
	<path d="M 9.000312,2.8421709e-14 L 10.000311999999997,2.8421709e-14" fill="none" stroke="#000000" stroke-width="0.14000000000000004"/>
	<path d="M 10.000311999999997,2.8421709e-14 L 140.0,2.8421709e-14" fill="none" stroke="#000000" stroke-width="0.14000000000000004"/>
	<path d="M 140.0,2.8421709e-14 L 140.0,140.00000000000003" fill="none" stroke="#000000" stroke-width="0.14000000000000004"/>
	<path d="M 140.00000000000003,140.00000000000003 L 0.0,140.00000000000003" fill="none" stroke="#000000" stroke-width="0.14000000000000004"/>
	<path d="M 8.8817842e-16,140.00000000000003 L 8.8817842e-16,4.999999903142452" fill="none" stroke="#000000" stroke-width="0.14000000000000004"/>
	<path d="M 8.8817842e-16,4.999999903142452 L 8.8817842e-16,2.842170943040401e-14" fill="none" stroke="#000000" stroke-width="0.14000000000000004"/>
	<path d="M 5.0,2.8421708993652644e-14 L 5.0,4.999999903142452" fill="none" stroke="#000000" stroke-width="0.14000000000000004"/>
	<path d="M 5.0,4.999999903142452 L 8.881784197001252e-16,4.999999903142452" fill="none" stroke="#000000" stroke-width="0.14000000000000004"/>
	<path d="M 10.000312,2.8421708999999996e-14 L 10.000312,1.5" fill="none" stroke="#000000" stroke-width="0.14000000000000004"/>
	<path d="M 10.000312,1.5 L 9.000312,1.5" fill="none" stroke="#000000" stroke-width="0.14000000000000004"/>
	<path d="M 9.000312,1.5 L 9.000312,2.842170943040401e-14" fill="none" stroke="#000000" stroke-width="0.14000000000000004"/>
	<path d="M 13.026132,1.5 L 14.026132,1.5" fill="none" stroke="#000000" stroke-width="0.14000000000000004"/>
	<path d="M 14.026132,1.5 L 14.026132,3.0" fill="none" stroke="#000000" stroke-width="0.14000000000000004"/>
	<path d="M 14.026132,3.0 L 13.026132,3.0" fill="none" stroke="#000000" stroke-width="0.14000000000000004"/>
	<path d="M 13.026132,3.0 L 13.026132,1.5" fill="none" stroke="#000000" stroke-width="0.14000000000000004"/>
	<path d="M 17.707136,3.0 L 18.707136,3.0" fill="none" stroke="#000000" stroke-width="0.14000000000000004"/>
	<path d="M 18.707136,3.0 L 18.707136,4.5" fill="none" stroke="#000000" stroke-width="0.14000000000000004"/>
	<path d="M 18.707136000000002,4.5 L 17.707136,4.5" fill="none" stroke="#000000" stroke-width="0.14000000000000004"/>
	<path d="M 17.707136,4.5 L 17.707136,3.0" fill="none" stroke="#000000" stroke-width="0.14000000000000004"/>
	<path d="M 15.414209,4.5 L 16.414209,4.5" fill="none" stroke="#000000" stroke-width="0.14000000000000004"/>
	<path d="M 16.414209,4.5 L 16.414209,6.0" fill="none" stroke="#000000" stroke-width="0.14000000000000004"/>
	<path d="M 16.414209,6.0 L 15.414209,6.0" fill="none" stroke="#000000" stroke-width="0.14000000000000004"/>
	<path d="M 15.414209,6.0 L 15.414209,4.5" fill="none" stroke="#000000" stroke-width="0.14000000000000004"/>
	<path d="M 10.402948,6.0 L 11.402948,6.0" fill="none" stroke="#000000" stroke-width="0.14000000000000004"/>
	<path d="M 11.402948,6.0 L 11.402948,7.5" fill="none" stroke="#000000" stroke-width="0.14000000000000004"/>
	<path d="M 11.402948,7.5 L 10.402948,7.5" fill="none" stroke="#000000" stroke-width="0.14000000000000004"/>
	<path d="M 10.402948,7.5 L 10.402948,6.0" fill="none" stroke="#000000" stroke-width="0.14000000000000004"/>
	<path d="M 9.079066,7.5 L 10.079066,7.5" fill="none" stroke="#000000" stroke-width="0.14000000000000004"/>
	<path d="M 10.079066,7.5 L 10.079066,9.0" fill="none" stroke="#000000" stroke-width="0.14000000000000004"/>
	<path d="M 10.079066,9.0 L 9.968775999999998,9.0" fill="none" stroke="#000000" stroke-width="0.14000000000000004"/>
	<path d="M 9.968775999999998,9.0 L 9.079066,9.0" fill="none" stroke="#000000" stroke-width="0.14000000000000004"/>
	<path d="M 9.079066,9.0 L 9.079066,7.5" fill="none" stroke="#000000" stroke-width="0.14000000000000004"/>
	<path d="M 10.079066000000001,9.0 L 10.968776,9.0" fill="none" stroke="#000000" stroke-width="0.14000000000000004"/>
	<path d="M 10.968776,9.0 L 10.968776,10.5" fill="none" stroke="#000000" stroke-width="0.14000000000000004"/>
	<path d="M 10.968776,10.5 L 10.16541299999999,10.5" fill="none" stroke="#000000" stroke-width="0.14000000000000004"/>
	<path d="M 10.16541299999999,10.5 L 9.968776,10.5" fill="none" stroke="#000000" stroke-width="0.14000000000000004"/>
	<path d="M 9.968776,10.5 L 9.968776,9.0" fill="none" stroke="#000000" stroke-width="0.14000000000000004"/>
	<path d="M 10.96877599999999,10.5 L 11.165413,10.5" fill="none" stroke="#000000" stroke-width="0.14000000000000004"/>
	<path d="M 11.165413,10.5 L 11.165413,12.0" fill="none" stroke="#000000" stroke-width="0.14000000000000004"/>
	<path d="M 11.16541299999999,12.0 L 10.165413,12.0" fill="none" stroke="#000000" stroke-width="0.14000000000000004"/>
	<path d="M 10.165413,12.0 L 10.165413,10.5" fill="none" stroke="#000000" stroke-width="0.14000000000000004"/>
	<path d="M 2.702062,12.0 L 3.702062,12.0" fill="none" stroke="#000000" stroke-width="0.14000000000000004"/>
	<path d="M 3.702062,12.0 L 3.702062,13.5" fill="none" stroke="#000000" stroke-width="0.14000000000000004"/>
	<path d="M 3.702062,13.5 L 2.702062,13.5" fill="none" stroke="#000000" stroke-width="0.14000000000000004"/>
	<path d="M 2.702062,13.5 L 2.702062,12.0" fill="none" stroke="#000000" stroke-width="0.14000000000000004"/>
	<path d="M 8.346768,13.5 L 9.346768,13.5" fill="none" stroke="#000000" stroke-width="0.14000000000000004"/>
	<path d="M 9.346768,13.5 L 9.346768,15.0" fill="none" stroke="#000000" stroke-width="0.14000000000000004"/>
	<path d="M 9.34676800000001,15.0 L 8.346768,15.0" fill="none" stroke="#000000" stroke-width="0.14000000000000004"/>
	<path d="M 8.346768,15.0 L 8.346768,13.5" fill="none" stroke="#000000" stroke-width="0.14000000000000004"/>
</svg>
