  0
SECTION
  2
HEADER
  9
$INSBASE
 10
0.0000
 20
0.0000
  9
$EXTMIN
 10
-56.747665940289025
 20
-56.747665940288876
  9
$EXTMAX
 10
56.747665940289025
 20
56.747665940288876
  9
$LIMMIN
 10
-56.747665940289025
 20
-56.747665940288876
  9
$LIMMAX
 10
56.747665940289025
 20
56.747665940288876
  9
$TEXTSTYLE
  7
STANDARD
  9
$CLAYER
  8
default
  0
ENDSEC
  0
SECTION
  2
TABLES
  0
TABLE
  2
LTYPE
 70
4948253
  0
LTYPE
  2
CONTINUOUS
 70
    64
  3
Solid line
 72
    65
 73
     0
 40
0.0
  0
ENDTAB
  0
TABLE
  2
LAYER
 70
     5
  0
LAYER
  2
default
 70
    64
 62
     7
  6
CONTINUOUS
  0
ENDTAB
  0
TABLE
  2
STYLE
 70
     1
  0
STYLE
  2
STANDARD
 70
     0
 40
0.0
 41
1.0
 50
0.0
 71
     0
 42
0.2
  3
txt
  4

  0
ENDTAB
  0
TABLE
  2
VIEW
 70
     0
  0
ENDTAB
  0
ENDSEC
  0
SECTION
  2
BLOCKS
  0
ENDSEC
  0
SECTION
  2
ENTITIES
  0
LINE
  8
default
 10
30.978662011132759
 20
1.1499999999999999
 30
0.0
 11
31.979329261258748
 21
1.1499999999999999
 31
0.0
  0
LINE
  8
default
 10
30.978662011132762
 20
-1.1499999999999999
 30
0.0
 11
31.979329261258751
 21
-1.1499999999999999
 31
0.0
  0
LINE
  8
default
 10
28.717096928857682
 20
11.675972934988868
 30
0.0
 11
29.657416559663204
 21
12.018221291298262
 31
0.0
  0
LINE
  8
default
 10
29.503743258506724
 20
9.5146799071812822
 30
0.0
 11
30.444062889312242
 21
9.8569282634906763
 31
0.0
  0
LINE
  8
default
 10
22.991826137749715
 20
20.793651215010048
 30
0.0
 11
23.758381724119879
 21
21.436867724810135
 31
0.0
  0
LINE
  8
default
 10
24.470237640028756
 20
19.031748995836402
 30
0.0
 11
25.236793226398916
 21
19.674965505636489
 31
0.0
  0
LINE
  8
default
 10
14.493401791214279
 20
27.403308276892894
 30
0.0
 11
14.993735416277273
 21
28.269911536237117
 31
0.0
  0
LINE
  8
default
 10
16.485260219918487
 20
26.253308276892898
 30
0.0
 11
16.985593844981484
 21
27.119911536237122
 31
0.0
  0
LINE
  8
default
 10
4.2468592888289294
 20
30.707721930825272
 30
0.0
 11
4.4206233332642864
 21
31.69318679693475
 31
0.0
  0
LINE
  8
default
 10
6.5119171207570083
 20
30.308331122191337
 30
0.0
 11
6.6856811651923653
 21
31.293795988300815
 31
0.0
  0
LINE
  8
default
 10
-6.5119171207570048
 20
30.308331122191333
 30
0.0
 11
-6.6856811651923618
 21
31.293795988300811
 31
0.0
  0
LINE
  8
default
 10
-4.2468592888289276
 20
30.707721930825276
 30
0.0
 11
-4.4206233332642828
 21
31.693186796934754
 31
0.0
  0
LINE
  8
default
 10
-16.485260219918477
 20
26.253308276892898
 30
0.0
 11
-16.985593844981473
 21
27.119911536237122
 31
0.0
  0
LINE
  8
default
 10
-14.49340179121427
 20
27.403308276892901
 30
0.0
 11
-14.993735416277264
 21
28.269911536237124
 31
0.0
  0
LINE
  8
default
 10
-24.470237640028749
 20
19.031748995836406
 30
0.0
 11
-25.236793226398913
 21
19.674965505636493
 31
0.0
  0
LINE
  8
default
 10
-22.991826137749715
 20
20.793651215010058
 30
0.0
 11
-23.758381724119875
 21
21.436867724810146
 31
0.0
  0
LINE
  8
default
 10
-29.503743258506717
 20
9.5146799071812858
 30
0.0
 11
-30.444062889312239
 21
9.8569282634906799
 31
0.0
  0
LINE
  8
default
 10
-28.717096928857682
 20
11.675972934988875
 30
0.0
 11
-29.657416559663201
 21
12.01822129129827
 31
0.0
  0
LINE
  8
default
 10
-30.978662011132759
 20
-1.1499999999999961
 30
0.0
 11
-31.979329261258748
 21
-1.1499999999999959
 31
0.0
  0
LINE
  8
default
 10
-30.978662011132762
 20
1.1500000000000037
 30
0.0
 11
-31.979329261258751
 21
1.1500000000000039
 31
0.0
  0
LINE
  8
default
 10
-28.717096928857682
 20
-11.675972934988867
 30
0.0
 11
-29.657416559663204
 21
-12.018221291298261
 31
0.0
  0
LINE
  8
default
 10
-29.503743258506724
 20
-9.5146799071812804
 30
0.0
 11
-30.444062889312242
 21
-9.8569282634906745
 31
0.0
  0
LINE
  8
default
 10
-22.991826137749715
 20
-20.793651215010048
 30
0.0
 11
-23.758381724119879
 21
-21.436867724810135
 31
0.0
  0
LINE
  8
default
 10
-24.470237640028756
 20
-19.031748995836402
 30
0.0
 11
-25.236793226398916
 21
-19.674965505636489
 31
0.0
  0
LINE
  8
default
 10
-14.493401791214289
 20
-27.40330827689289
 30
0.0
 11
-14.993735416277284
 21
-28.26991153623711
 31
0.0
  0
LINE
  8
default
 10
-16.485260219918498
 20
-26.253308276892891
 30
0.0
 11
-16.985593844981494
 21
-27.119911536237115
 31
0.0
  0
LINE
  8
default
 10
-4.2468592888289276
 20
-30.707721930825272
 30
0.0
 11
-4.4206233332642846
 21
-31.69318679693475
 31
0.0
  0
LINE
  8
default
 10
-6.5119171207570066
 20
-30.308331122191337
 30
0.0
 11
-6.6856811651923618
 21
-31.293795988300815
 31
0.0
  0
LINE
  8
default
 10
6.511917120756995
 20
-30.308331122191333
 30
0.0
 11
6.6856811651923511
 21
-31.293795988300815
 31
0.0
  0
LINE
  8
default
 10
4.2468592888289169
 20
-30.707721930825276
 30
0.0
 11
4.4206233332642721
 21
-31.693186796934757
 31
0.0
  0
LINE
  8
default
 10
16.485260219918487
 20
-26.253308276892895
 30
0.0
 11
16.98559384498148
 21
-27.119911536237119
 31
0.0
  0
LINE
  8
default
 10
14.49340179121428
 20
-27.403308276892897
 30
0.0
 11
14.993735416277275
 21
-28.269911536237121
 31
0.0
  0
LINE
  8
default
 10
24.470237640028749
 20
-19.031748995836409
 30
0.0
 11
25.236793226398909
 21
-19.674965505636496
 31
0.0
  0
LINE
  8
default
 10
22.991826137749712
 20
-20.793651215010062
 30
0.0
 11
23.758381724119872
 21
-21.436867724810149
 31
0.0
  0
LINE
  8
default
 10
29.50374325850672
 20
-9.5146799071812769
 30
0.0
 11
30.444062889312242
 21
-9.856928263490671
 31
0.0
  0
LINE
  8
default
 10
28.717096928857686
 20
-11.675972934988867
 30
0.0
 11
29.657416559663204
 21
-12.018221291298261
 31
0.0
  0
LINE
  8
default
 10
-4.4206233332642828
 20
31.693186796934754
 30
0.0
 11
-2.5
 21
33
 31
0.0
  0
LINE
  8
default
 10
-8.937433177782296
 20
31.864906844249152
 30
0.0
 11
-6.6856811651923618
 21
31.293795988300811
 31
0.0
  0
LINE
  8
default
 10
-12.706697555342178
 20
42.220875609549608
 30
0.0
 11
-8.937433177782296
 21
31.864906844249152
 31
0.0
  0
LINE
  8
default
 10
-2.5
 20
44.020591772487556
 30
0.0
 11
-2.5
 21
33
 31
0.0
  0
LINE
  8
default
 10
-14.993735416277264
 20
28.269911536237124
 30
0.0
 11
-13.63589628171184
 21
30.154806127620805
 31
0.0
  0
LINE
  8
default
 10
-19.296880011858352
 20
26.88643564714263
 30
0.0
 11
-16.985593844981473
 21
27.119911536237122
 31
0.0
  0
LINE
  8
default
 10
-26.380779854626773
 20
35.328698734339454
 30
0.0
 11
-19.296880011858352
 21
26.88643564714263
 31
0.0
  0
LINE
  8
default
 10
-17.405160659271719
 20
40.510774892921255
 30
0.0
 11
-13.63589628171184
 21
30.154806127620805
 31
0.0
  0
LINE
  8
default
 10
-23.758381724119875
 20
21.436867724810146
 30
0.0
 11
-23.127102227453239
 21
23.672497598709928
 31
0.0
  0
LINE
  8
default
 10
-27.328838324886473
 20
18.665063509461103
 30
0.0
 11
-25.236793226398913
 21
19.674965505636493
 31
0.0
  0
LINE
  8
default
 10
-36.872950764598478
 20
24.175359395704877
 30
0.0
 11
-27.328838324886473
 21
18.665063509461103
 31
0.0
  0
LINE
  8
default
 10
-30.211002070221657
 20
32.114760685906745
 30
0.0
 11
-23.127102227453239
 21
23.672497598709928
 31
0.0
  0
LINE
  8
default
 10
-29.657416559663201
 20
12.01822129129827
 30
0.0
 11
-29.828838324886473
 21
14.334936490538908
 31
0.0
  0
LINE
  8
default
 10
-32.064535405235546
 20
8.1924092455392277
 30
0.0
 11
-30.444062889312239
 21
9.8569282634906799
 31
0.0
  0
LINE
  8
default
 10
-42.917699625563841
 20
10.10611492364286
 30
0.0
 11
-32.064535405235546
 21
8.1924092455392277
 31
0.0
  0
LINE
  8
default
 10
-39.372950764598471
 20
19.845232376782686
 30
0.0
 11
-29.828838324886473
 21
14.334936490538908
 31
0.0
  0
LINE
  8
default
 10
-31.979329261258751
 20
1.1500000000000039
 30
0.0
 11
-32.932776293570193
 21
3.2683704804781835
 31
0.0
  0
LINE
  8
default
 10
-32.932776293570193
 20
-3.2683704804781764
 30
0.0
 11
-31.979329261258748
 21
-1.1499999999999959
 31
0.0
  0
LINE
  8
default
 10
-43.785940513898503
 20
-5.1820761585818076
 30
0.0
 11
-32.932776293570193
 21
-3.2683704804781764
 31
0.0
  0
LINE
  8
default
 10
-43.785940513898488
 20
5.1820761585818147
 30
0.0
 11
-32.932776293570193
 21
3.2683704804781835
 31
0.0
  0
LINE
  8
default
 10
-30.444062889312242
 20
-9.8569282634906745
 30
0.0
 11
-32.064535405235539
 21
-8.1924092455392206
 31
0.0
  0
LINE
  8
default
 10
-29.828838324886476
 20
-14.334936490538901
 30
0.0
 11
-29.657416559663204
 21
-12.018221291298261
 31
0.0
  0
LINE
  8
default
 10
-39.372950764598485
 20
-19.845232376782683
 30
0.0
 11
-29.828838324886476
 21
-14.334936490538901
 31
0.0
  0
LINE
  8
default
 10
-42.917699625563834
 20
-10.106114923642849
 30
0.0
 11
-32.064535405235539
 21
-8.1924092455392206
 31
0.0
  0
LINE
  8
default
 10
-25.236793226398916
 20
-19.674965505636489
 30
0.0
 11
-27.328838324886476
 21
-18.665063509461088
 31
0.0
  0
LINE
  8
default
 10
-23.12710222745325
 20
-23.672497598709921
 30
0.0
 11
-23.758381724119879
 21
-21.436867724810135
 31
0.0
  0
LINE
  8
default
 10
-30.211002070221674
 20
-32.114760685906745
 30
0.0
 11
-23.12710222745325
 21
-23.672497598709921
 31
0.0
  0
LINE
  8
default
 10
-36.872950764598478
 20
-24.175359395704863
 30
0.0
 11
-27.328838324886476
 21
-18.665063509461088
 31
0.0
  0
LINE
  8
default
 10
-16.985593844981494
 20
-27.119911536237115
 30
0.0
 11
-19.296880011858359
 21
-26.886435647142619
 31
0.0
  0
LINE
  8
default
 10
-13.635896281711847
 20
-30.154806127620805
 30
0.0
 11
-14.993735416277284
 21
-28.26991153623711
 31
0.0
  0
LINE
  8
default
 10
-17.405160659271729
 20
-40.510774892921262
 30
0.0
 11
-13.635896281711847
 21
-30.154806127620805
 31
0.0
  0
LINE
  8
default
 10
-26.38077985462678
 20
-35.32869873433944
 30
0.0
 11
-19.296880011858359
 21
-26.886435647142619
 31
0.0
  0
LINE
  8
default
 10
-6.6856811651923618
 20
-31.293795988300815
 30
0.0
 11
-8.9374331777823031
 21
-31.864906844249148
 31
0.0
  0
LINE
  8
default
 10
-2.5000000000000071
 20
-33
 30
0.0
 11
-4.4206233332642846
 21
-31.69318679693475
 31
0.0
  0
LINE
  8
default
 10
-2.5000000000000089
 20
-44.020591772487563
 30
0.0
 11
-2.5000000000000071
 21
-33
 31
0.0
  0
LINE
  8
default
 10
-12.706697555342183
 20
-42.220875609549601
 30
0.0
 11
-8.9374331777823031
 21
-31.864906844249148
 31
0.0
  0
LINE
  8
default
 10
4.4206233332642721
 20
-31.693186796934757
 30
0.0
 11
2.499999999999996
 21
-33
 31
0.0
  0
LINE
  8
default
 10
8.9374331777822924
 20
-31.864906844249152
 30
0.0
 11
6.6856811651923511
 21
-31.293795988300815
 31
0.0
  0
LINE
  8
default
 10
12.706697555342172
 20
-42.220875609549608
 30
0.0
 11
8.9374331777822924
 21
-31.864906844249152
 31
0.0
  0
LINE
  8
default
 10
2.4999999999999947
 20
-44.020591772487556
 30
0.0
 11
2.499999999999996
 21
-33
 31
0.0
  0
LINE
  8
default
 10
14.993735416277275
 20
-28.269911536237121
 30
0.0
 11
13.635896281711837
 21
-30.154806127620805
 31
0.0
  0
LINE
  8
default
 10
19.296880011858349
 20
-26.88643564714263
 30
0.0
 11
16.98559384498148
 21
-27.119911536237119
 31
0.0
  0
LINE
  8
default
 10
26.380779854626773
 20
-35.328698734339454
 30
0.0
 11
19.296880011858349
 21
-26.88643564714263
 31
0.0
  0
LINE
  8
default
 10
17.405160659271715
 20
-40.510774892921255
 30
0.0
 11
13.635896281711837
 21
-30.154806127620805
 31
0.0
  0
LINE
  8
default
 10
23.758381724119872
 20
-21.436867724810149
 30
0.0
 11
23.127102227453239
 21
-23.672497598709928
 31
0.0
  0
LINE
  8
default
 10
27.328838324886473
 20
-18.665063509461103
 30
0.0
 11
25.236793226398909
 21
-19.674965505636496
 31
0.0
  0
LINE
  8
default
 10
36.872950764598478
 20
-24.175359395704877
 30
0.0
 11
27.328838324886473
 21
-18.665063509461103
 31
0.0
  0
LINE
  8
default
 10
30.211002070221657
 20
-32.114760685906745
 30
0.0
 11
23.127102227453239
 21
-23.672497598709928
 31
0.0
  0
LINE
  8
default
 10
29.657416559663204
 20
-12.018221291298261
 30
0.0
 11
29.828838324886465
 21
-14.334936490538919
 31
0.0
  0
LINE
  8
default
 10
32.064535405235539
 20
-8.1924092455392419
 30
0.0
 11
30.444062889312242
 21
-9.856928263490671
 31
0.0
  0
LINE
  8
default
 10
42.917699625563841
 20
-10.106114923642876
 30
0.0
 11
32.064535405235539
 21
-8.1924092455392419
 31
0.0
  0
LINE
  8
default
 10
39.372950764598464
 20
-19.845232376782704
 30
0.0
 11
29.828838324886465
 21
-14.334936490538919
 31
0.0
  0
LINE
  8
default
 10
31.979329261258751
 20
-1.1499999999999999
 30
0.0
 11
32.932776293570193
 21
-3.2683704804781808
 31
0.0
  0
LINE
  8
default
 10
32.932776293570193
 20
3.268370480478179
 30
0.0
 11
31.979329261258748
 21
1.1499999999999999
 31
0.0
  0
LINE
  8
default
 10
43.785940513898495
 20
5.1820761585818111
 30
0.0
 11
32.932776293570193
 21
3.268370480478179
 31
0.0
  0
LINE
  8
default
 10
43.785940513898488
 20
-5.1820761585818111
 30
0.0
 11
32.932776293570193
 21
-3.2683704804781808
 31
0.0
  0
LINE
  8
default
 10
30.444062889312242
 20
9.8569282634906763
 30
0.0
 11
32.064535405235539
 21
8.1924092455392099
 31
0.0
  0
LINE
  8
default
 10
29.828838324886483
 20
14.33493649053889
 30
0.0
 11
29.657416559663204
 21
12.018221291298262
 31
0.0
  0
LINE
  8
default
 10
39.372950764598485
 20
19.845232376782668
 30
0.0
 11
29.828838324886483
 21
14.33493649053889
 31
0.0
  0
LINE
  8
default
 10
42.917699625563841
 20
10.106114923642835
 30
0.0
 11
32.064535405235539
 21
8.1924092455392099
 31
0.0
  0
LINE
  8
default
 10
25.236793226398916
 20
19.674965505636489
 30
0.0
 11
27.328838324886473
 21
18.665063509461099
 31
0.0
  0
LINE
  8
default
 10
23.127102227453246
 20
23.672497598709931
 30
0.0
 11
23.758381724119879
 21
21.436867724810135
 31
0.0
  0
LINE
  8
default
 10
30.211002070221664
 20
32.114760685906759
 30
0.0
 11
23.127102227453246
 21
23.672497598709931
 31
0.0
  0
LINE
  8
default
 10
36.872950764598471
 20
24.175359395704877
 30
0.0
 11
27.328838324886473
 21
18.665063509461099
 31
0.0
  0
LINE
  8
default
 10
16.985593844981484
 20
27.119911536237122
 30
0.0
 11
19.296880011858363
 21
26.886435647142616
 31
0.0
  0
LINE
  8
default
 10
13.635896281711851
 20
30.154806127620802
 30
0.0
 11
14.993735416277273
 21
28.269911536237117
 31
0.0
  0
LINE
  8
default
 10
17.40516065927174
 20
40.510774892921255
 30
0.0
 11
13.635896281711851
 21
30.154806127620802
 31
0.0
  0
LINE
  8
default
 10
26.380779854626784
 20
35.328698734339433
 30
0.0
 11
19.296880011858363
 21
26.886435647142616
 31
0.0
  0
LINE
  8
default
 10
6.6856811651923653
 20
31.293795988300815
 30
0.0
 11
8.9374331777822924
 21
31.864906844249148
 31
0.0
  0
LINE
  8
default
 10
2.4999999999999964
 20
33
 30
0.0
 11
4.4206233332642864
 21
31.69318679693475
 31
0.0
  0
LINE
  8
default
 10
2.4999999999999964
 20
44.020591772487563
 30
0.0
 11
2.4999999999999964
 21
33
 31
0.0
  0
LINE
  8
default
 10
12.706697555342171
 20
42.220875609549601
 30
0.0
 11
8.9374331777822924
 21
31.864906844249148
 31
0.0
  0
LINE
  8
default
 10
-8.937433177782296
 20
31.864906844249152
 30
0.0
 11
-2.5
 21
33
 31
0.0
  0
LINE
  8
default
 10
-19.296880011858352
 20
26.88643564714263
 30
0.0
 11
-13.63589628171184
 21
30.154806127620805
 31
0.0
  0
LINE
  8
default
 10
-27.328838324886473
 20
18.665063509461103
 30
0.0
 11
-23.127102227453239
 21
23.672497598709928
 31
0.0
  0
LINE
  8
default
 10
-32.064535405235546
 20
8.1924092455392277
 30
0.0
 11
-29.828838324886473
 21
14.334936490538908
 31
0.0
  0
LINE
  8
default
 10
-32.932776293570193
 20
-3.2683704804781764
 30
0.0
 11
-32.932776293570193
 21
3.2683704804781835
 31
0.0
  0
LINE
  8
default
 10
-29.828838324886476
 20
-14.334936490538901
 30
0.0
 11
-32.064535405235539
 21
-8.1924092455392206
 31
0.0
  0
LINE
  8
default
 10
-23.12710222745325
 20
-23.672497598709921
 30
0.0
 11
-27.328838324886476
 21
-18.665063509461088
 31
0.0
  0
LINE
  8
default
 10
-13.635896281711847
 20
-30.154806127620805
 30
0.0
 11
-19.296880011858359
 21
-26.886435647142619
 31
0.0
  0
LINE
  8
default
 10
-2.5000000000000071
 20
-33
 30
0.0
 11
-8.9374331777823031
 21
-31.864906844249148
 31
0.0
  0
LINE
  8
default
 10
8.9374331777822924
 20
-31.864906844249152
 30
0.0
 11
2.499999999999996
 21
-33
 31
0.0
  0
LINE
  8
default
 10
19.296880011858349
 20
-26.88643564714263
 30
0.0
 11
13.635896281711837
 21
-30.154806127620805
 31
0.0
  0
LINE
  8
default
 10
27.328838324886473
 20
-18.665063509461103
 30
0.0
 11
23.127102227453239
 21
-23.672497598709928
 31
0.0
  0
LINE
  8
default
 10
32.064535405235539
 20
-8.1924092455392419
 30
0.0
 11
29.828838324886465
 21
-14.334936490538919
 31
0.0
  0
LINE
  8
default
 10
32.932776293570193
 20
3.268370480478179
 30
0.0
 11
32.932776293570193
 21
-3.2683704804781808
 31
0.0
  0
LINE
  8
default
 10
29.828838324886483
 20
14.33493649053889
 30
0.0
 11
32.064535405235539
 21
8.1924092455392099
 31
0.0
  0
LINE
  8
default
 10
23.127102227453246
 20
23.672497598709931
 30
0.0
 11
27.328838324886473
 21
18.665063509461099
 31
0.0
  0
LINE
  8
default
 10
13.635896281711851
 20
30.154806127620802
 30
0.0
 11
19.296880011858363
 21
26.886435647142616
 31
0.0
  0
LINE
  8
default
 10
2.4999999999999964
 20
33
 30
0.0
 11
8.9374331777822924
 21
31.864906844249148
 31
0.0
  0
ARC
  8
default
 10
4.4408920985006262e-015
 20
2.1316282072803006e-014
 30
0
 40
31.000000000000018
 50
282.12597640282752
 51
297.87402359717242
  0
ARC
  8
default
 10
3.5527136788005009e-015
 20
2.8421709430404007e-014
 30
0
 40
31.000000000000014
 50
302.12597640282752
 51
317.87402359717237
  0
ARC
  8
default
 10
-3.5527136788005009e-015
 20
1.0658141036401503e-014
 30
0
 40
31.000000000000011
 50
322.12597640282752
 51
337.87402359717242
  0
ARC
  8
default
 10
-1.0658141036401503e-014
 20
1.9539925233402755e-014
 30
0
 40
31.000000000000014
 50
342.12597640282752
 51
357.87402359717242
  0
ARC
  8
default
 10
0
 20
0
 30
0
 40
53
 50
0
 51
180
  0
ARC
  8
default
 10
0
 20
0
 30
0
 40
53
 50
180
 51
0
  0
ARC
  8
default
 10
7.9936057773011271e-015
 20
-1.4210854715202004e-014
 30
0
 40
31.000000000000014
 50
102.12597640282756
 51
117.87402359717242
  0
ARC
  8
default
 10
-2.1316282072803006e-014
 20
-2.4868995751603507e-014
 30
0
 40
31.000000000000004
 50
122.12597640282752
 51
137.87402359717237
  0
ARC
  8
default
 10
7.1054273576010019e-015
 20
-2.1316282072803006e-014
 30
0
 40
31.000000000000007
 50
142.12597640282755
 51
157.8740235971724
  0
ARC
  8
default
 10
7.1054273576010019e-015
 20
-2.3092638912203256e-014
 30
0
 40
31.000000000000014
 50
162.12597640282752
 51
177.87402359717237
  0
ARC
  8
default
 10
1.0658141036401503e-014
 20
-9.1038288019262836e-015
 30
0
 40
31.000000000000011
 50
182.12597640282755
 51
197.8740235971724
  0
ARC
  8
default
 10
1.7763568394002505e-014
 20
-3.5527136788005009e-015
 30
0
 40
31.000000000000011
 50
202.12597640282755
 51
217.8740235971724
  0
ARC
  8
default
 10
1.4210854715202004e-014
 20
-7.1054273576010019e-015
 30
0
 40
31
 50
222.12597640282752
 51
237.87402359717237
  0
ARC
  8
default
 10
2.1316282072803006e-014
 20
1.4210854715202004e-014
 30
0
 40
31.000000000000025
 50
242.12597640282752
 51
257.87402359717237
  0
ARC
  8
default
 10
-1.0658141036401503e-014
 20
1.021405182655144e-014
 30
0
 40
31.000000000000014
 50
2.1259764028275452
 51
17.874023597172414
  0
ARC
  8
default
 10
-1.7763568394002505e-014
 20
-1.7763568394002505e-015
 30
0
 40
31.000000000000021
 50
22.125976402827558
 51
37.87402359717241
  0
ARC
  8
default
 10
-1.7763568394002505e-014
 20
0
 30
0
 40
31.000000000000011
 50
42.125976402827533
 51
57.874023597172396
  0
ARC
  8
default
 10
-2.3092638912203256e-014
 20
7.1054273576010019e-015
 30
0
 40
31.000000000000004
 50
62.125976402827511
 51
77.874023597172396
  0
ARC
  8
default
 10
-1.1546319456101628e-014
 20
7.1054273576010019e-015
 30
0
 40
30.999999999999996
 50
82.125976402827547
 51
97.874023597172425
  0
ARC
  8
default
 10
7.1054273576010019e-015
 20
4.2632564145606011e-014
 30
0
 40
31.000000000000039
 50
262.12597640282758
 51
277.87402359717237
  0
ARC
  8
default
 10
-10.827312313770342
 20
42.90491589620094
 30
0
 40
2.0000000000000151
 50
104.16322039883643
 51
199.99999999999963
  0
ARC
  8
default
 10
-3.4638958368304884e-014
 20
0
 30
0
 40
46.249999999999986
 50
95.836779601163201
 51
104.16322039883669
  0
ARC
  8
default
 10
-4.5000000000000036
 20
44.020591772487563
 30
0
 40
2.000000000000004
 50
359.99999999999977
 51
95.836779601163173
  0
ARC
  8
default
 10
-24.848690968388802
 20
36.614273953712534
 30
0
 40
2.0000000000000129
 50
124.16322039883643
 51
219.99999999999974
  0
ARC
  8
default
 10
-2.4868995751603507e-014
 20
-3.5527136788005009e-014
 30
0
 40
46.250000000000021
 50
115.83677960116319
 51
124.16322039883669
  0
ARC
  8
default
 10
-19.28454590084354
 20
39.826734606269923
 30
0
 40
2.0000000000000031
 50
19.999999999999797
 51
115.83677960116312
  0
ARC
  8
default
 10
-35.872950764598457
 20
25.907410203273759
 30
0
 40
2.0000000000000155
 50
144.1632203988363
 51
239.99999999999952
  0
ARC
  8
default
 10
-4.2632564145606011e-014
 20
0
 30
0
 40
46.249999999999964
 50
135.83677960116322
 51
144.1632203988367
  0
ARC
  8
default
 10
-31.743090956459618
 20
30.829185466533666
 30
0
 40
2.0000000000000053
 50
39.999999999999922
 51
135.83677960116319
  0
ARC
  8
default
 10
-42.570403270229967
 20
12.075730429667288
 30
0
 40
2.0000000000000151
 50
164.16322039883647
 51
259.99999999999966
  0
ARC
  8
default
 10
-2.1316282072803006e-014
 20
-3.1974423109204508e-014
 30
0
 40
46.249999999999993
 50
155.83677960116319
 51
164.16322039883667
  0
ARC
  8
default
 10
-40.372950764598478
 20
18.113181569213808
 30
0
 40
2.0000000000000044
 50
59.999999999999844
 51
155.83677960116319
  0
ARC
  8
default
 10
-44.133236869232348
 20
-3.2124606525573771
 30
0
 40
2.000000000000012
 50
184.16322039883633
 51
279.99999999999949
  0
ARC
  8
default
 10
-1.4210854715202004e-014
 20
-3.0642155479654321e-014
 30
0
 40
46.249999999999986
 50
175.83677960116319
 51
184.1632203988367
  0
ARC
  8
default
 10
-44.133236869232356
 20
3.2124606525573958
 30
0
 40
2.0000000000000036
 50
79.999999999999844
 51
175.83677960116316
  0
ARC
  8
default
 10
-40.372950764598478
 20
-18.113181569213786
 30
0
 40
2.0000000000000147
 50
204.1632203988363
 51
299.99999999999955
  0
ARC
  8
default
 10
-1.4210854715202004e-014
 20
-7.815970093361102e-014
 30
0
 40
46.249999999999964
 50
195.83677960116316
 51
204.16322039883661
  0
ARC
  8
default
 10
-42.570403270229974
 20
-12.075730429667269
 30
0
 40
2.0000000000000036
 50
99.999999999999972
 51
195.83677960116316
  0
ARC
  8
default
 10
-31.743090956459636
 20
-30.829185466533648
 30
0
 40
2.0000000000000169
 50
224.16322039883639
 51
319.99999999999966
  0
ARC
  8
default
 10
3.5527136788005009e-014
 20
-6.7501559897209518e-014
 30
0
 40
46.249999999999979
 50
215.83677960116313
 51
224.16322039883661
  0
ARC
  8
default
 10
-35.872950764598478
 20
-25.907410203273745
 30
0
 40
2.0000000000000049
 50
119.99999999999994
 51
215.83677960116319
  0
ARC
  8
default
 10
-19.284545900843554
 20
-39.826734606269909
 30
0
 40
2.0000000000000151
 50
244.16322039883624
 51
339.99999999999966
  0
ARC
  8
default
 10
3.5527136788005009e-014
 20
-1.4210854715202004e-014
 30
0
 40
46.25
 50
235.83677960116319
 51
244.16322039883664
  0
ARC
  8
default
 10
-24.848690968388826
 20
-36.614273953712519
 30
0
 40
2.0000000000000013
 50
139.99999999999994
 51
235.83677960116324
  0
ARC
  8
default
 10
-4.500000000000024
 20
-44.020591772487549
 30
0
 40
2.0000000000000151
 50
264.16322039883642
 51
359.9999999999996
  0
ARC
  8
default
 10
2.6645352591003757e-014
 20
-2.1316282072803006e-014
 30
0
 40
46.249999999999979
 50
255.83677960116319
 51
264.16322039883664
  0
ARC
  8
default
 10
-10.827312313770365
 20
-42.90491589620094
 30
0
 40
2.0000000000000013
 50
159.99999999999997
 51
255.83677960116319
  0
ARC
  8
default
 10
10.827312313770337
 20
-42.90491589620094
 30
0
 40
2.0000000000000151
 50
284.16322039883642
 51
19.999999999999655
  0
ARC
  8
default
 10
2.9309887850104133e-014
 20
0
 30
0
 40
46.249999999999986
 50
275.83677960116319
 51
284.1632203988367
  0
ARC
  8
default
 10
4.4999999999999982
 20
-44.020591772487563
 30
0
 40
2.000000000000004
 50
179.9999999999998
 51
275.83677960116313
  0
ARC
  8
default
 10
24.848690968388798
 20
-36.614273953712534
 30
0
 40
2.0000000000000133
 50
304.16322039883642
 51
39.999999999999659
  0
ARC
  8
default
 10
2.1316282072803006e-014
 20
7.1054273576010019e-015
 30
0
 40
46.25
 50
295.83677960116319
 51
304.1632203988367
  0
ARC
  8
default
 10
19.28454590084354
 20
-39.826734606269923
 30
0
 40
2.0000000000000053
 50
199.99999999999974
 51
295.83677960116313
  0
ARC
  8
default
 10
35.872950764598457
 20
-25.907410203273759
 30
0
 40
2.0000000000000155
 50
324.1632203988363
 51
59.999999999999531
  0
ARC
  8
default
 10
4.2632564145606011e-014
 20
0
 30
0
 40
46.249999999999964
 50
315.83677960116319
 51
324.1632203988367
  0
ARC
  8
default
 10
31.743090956459618
 20
-30.829185466533666
 30
0
 40
2.0000000000000053
 50
219.99999999999994
 51
315.83677960116319
  0
ARC
  8
default
 10
42.570403270229967
 20
-12.075730429667308
 30
0
 40
2.0000000000000187
 50
344.16322039883642
 51
79.999999999999687
  0
ARC
  8
default
 10
4.9737991503207013e-014
 20
6.3948846218409017e-014
 30
0
 40
46.249999999999986
 50
335.83677960116313
 51
344.16322039883659
  0
ARC
  8
default
 10
40.372950764598471
 20
-18.113181569213825
 30
0
 40
2.0000000000000044
 50
239.99999999999983
 51
335.83677960116319
  0
ARC
  8
default
 10
44.133236869232348
 20
3.2124606525573776
 30
0
 40
2.0000000000000155
 50
4.1632203988364171
 51
99.999999999999702
  0
ARC
  8
default
 10
7.1054273576010019e-015
 20
3.4638958368304884e-014
 30
0
 40
46.249999999999986
 50
355.83677960116319
 51
4.163220398836688
  0
ARC
  8
default
 10
44.133236869232356
 20
-3.2124606525573918
 30
0
 40
2.000000000000004
 50
259.99999999999983
 51
355.83677960116313
  0
ARC
  8
default
 10
40.372950764598485
 20
18.113181569213772
 30
0
 40
2.0000000000000142
 50
24.163220398836483
 51
119.99999999999974
  0
ARC
  8
default
 10
-1.4210854715202004e-014
 20
1.7763568394002505e-014
 30
0
 40
46.25
 50
15.836779601163187
 51
24.163220398836685
  0
ARC
  8
default
 10
42.570403270229981
 20
12.075730429667255
 30
0
 40
2.0000000000000036
 50
279.99999999999994
 51
15.836779601163149
  0
ARC
  8
default
 10
31.743090956459625
 20
30.829185466533662
 30
0
 40
2.0000000000000147
 50
44.163220398836465
 51
139.99999999999969
  0
ARC
  8
default
 10
-3.5527136788005009e-014
 20
-1.0658141036401503e-014
 30
0
 40
46.250000000000028
 50
35.836779601163222
 51
44.163220398836714
  0
ARC
  8
default
 10
35.872950764598471
 20
25.907410203273763
 30
0
 40
2.0000000000000058
 50
299.99999999999989
 51
35.836779601162988
  0
ARC
  8
default
 10
19.284545900843565
 20
39.826734606269902
 30
0
 40
2.0000000000000124
 50
64.163220398836529
 51
159.99999999999969
  0
ARC
  8
default
 10
-3.1974423109204508e-014
 20
1.4210854715202004e-014
 30
0
 40
46.25
 50
55.836779601163173
 51
64.163220398836671
  0
ARC
  8
default
 10
24.848690968388826
 20
36.614273953712519
 30
0
 40
2.0000000000000062
 50
319.99999999999989
 51
55.836779601163173
  0
ARC
  8
default
 10
4.5000000000000107
 20
44.020591772487549
 30
0
 40
2.0000000000000142
 50
84.16322039883643
 51
179.9999999999996
  0
ARC
  8
default
 10
-4.0856207306205761e-014
 20
1.4210854715202004e-014
 30
0
 40
46.249999999999986
 50
75.836779601163187
 51
84.163220398836685
  0
ARC
  8
default
 10
10.827312313770353
 20
42.90491589620094
 30
0
 40
2.0000000000000013
 50
340
 51
75.836779601163187
  0
ENDSEC
  0
EOF
