<?xml version="1.0" ?>
<svg xmlns="http://www.w3.org/2000/svg" xmlns:ev="http://www.w3.org/2001/xml-events" xmlns:xlink="http://www.w3.org/1999/xlink" baseProfile="full" height="600px" version="1.1" viewBox="-14.070000000000004 -14.069999999999972 168.14000000000004 168.14" width="600px">
	<defs/>
	<path d="M 1.9721522630525295e-31,2.8421709e-14 L 5.000000000000001,2.8421709e-14" fill="none" stroke="#000000" stroke-width="0.14000000000000004"/>
	<path d="M 5.000000000000001,2.8421709e-14 L 9.165016,2.8421709e-14" fill="none" stroke="#000000" stroke-width="0.14000000000000004"/>
	<path d="M 9.165016000000001,2.8421709e-14 L 10.165016000000001,2.8421709e-14" fill="none" stroke="#000000" stroke-width="0.14000000000000004"/>
	<path d="M 10.165016000000001,2.8421709e-14 L 140.0,2.8421709e-14" fill="none" stroke="#000000" stroke-width="0.14000000000000004"/>
	<path d="M 140.0,2.8421709e-14 L 140.0,140.00000000000003" fill="none" stroke="#000000" stroke-width="0.14000000000000004"/>
	<path d="M 140.00000000000003,140.00000000000003 L 0.0,140.00000000000003" fill="none" stroke="#000000" stroke-width="0.14000000000000004"/>
	<path d="M 8.8817842e-16,140.00000000000003 L 8.8817842e-16,4.999999903142452" fill="none" stroke="#000000" stroke-width="0.14000000000000004"/>
	<path d="M 8.8817842e-16,4.999999903142452 L 8.8817842e-16,2.842170943040401e-14" fill="none" stroke="#000000" stroke-width="0.14000000000000004"/>
	<path d="M 5.0,2.8421708993652644e-14 L 5.0,4.999999903142452" fill="none" stroke="#000000" stroke-width="0.14000000000000004"/>
	<path d="M 5.0,4.999999903142452 L 8.881784197001252e-16,4.999999903142452" fill="none" stroke="#000000" stroke-width="0.14000000000000004"/>
	<path d="M 10.165016,2.8421708999999996e-14 L 10.165016,1.5" fill="none" stroke="#000000" stroke-width="0.14000000000000004"/>
	<path d="M 10.165016,1.5 L 9.165016,1.5" fill="none" stroke="#000000" stroke-width="0.14000000000000004"/>
	<path d="M 9.165016,1.5 L 9.165016,2.842170943040401e-14" fill="none" stroke="#000000" stroke-width="0.14000000000000004"/>
	<path d="M 15.522929,1.5 L 16.522929,1.5" fill="none" stroke="#000000" stroke-width="0.14000000000000004"/>
	<path d="M 16.522929,1.5 L 16.522929,3.0" fill="none" stroke="#000000" stroke-width="0.14000000000000004"/>
	<path d="M 16.522928999999998,3.0 L 15.522929,3.0" fill="none" stroke="#000000" stroke-width="0.14000000000000004"/>
	<path d="M 15.522929,3.0 L 15.522929,1.5" fill="none" stroke="#000000" stroke-width="0.14000000000000004"/>
	<path d="M 8.021446,3.0 L 9.021446,3.0" fill="none" stroke="#000000" stroke-width="0.14000000000000004"/>
	<path d="M 9.021446,3.0 L 9.021446,4.5" fill="none" stroke="#000000" stroke-width="0.14000000000000004"/>
	<path d="M 9.021446,4.5 L 8.021446,4.5" fill="none" stroke="#000000" stroke-width="0.14000000000000004"/>
	<path d="M 8.021446,4.5 L 8.021446,3.0" fill="none" stroke="#000000" stroke-width="0.14000000000000004"/>
	<path d="M 14.062176,4.5 L 15.062176,4.5" fill="none" stroke="#000000" stroke-width="0.14000000000000004"/>
	<path d="M 15.062176,4.5 L 15.062176,6.0" fill="none" stroke="#000000" stroke-width="0.14000000000000004"/>
	<path d="M 15.062176,6.0 L 14.062176,6.0" fill="none" stroke="#000000" stroke-width="0.14000000000000004"/>
	<path d="M 14.062176,6.0 L 14.062176,4.5" fill="none" stroke="#000000" stroke-width="0.14000000000000004"/>
	<path d="M 1.861788,6.0 L 2.861788,6.0" fill="none" stroke="#000000" stroke-width="0.14000000000000004"/>
	<path d="M 2.861788,6.0 L 2.861788,7.5" fill="none" stroke="#000000" stroke-width="0.14000000000000004"/>
	<path d="M 2.861788,7.5 L 1.861788,7.5" fill="none" stroke="#000000" stroke-width="0.14000000000000004"/>
	<path d="M 1.861788,7.5 L 1.861788,6.0" fill="none" stroke="#000000" stroke-width="0.14000000000000004"/>
	<path d="M 13.294613,7.5 L 14.294613,7.5" fill="none" stroke="#000000" stroke-width="0.14000000000000004"/>
	<path d="M 14.294613,7.5 L 14.294613,9.0" fill="none" stroke="#000000" stroke-width="0.14000000000000004"/>
	<path d="M 14.294613,9.0 L 13.294613,9.0" fill="none" stroke="#000000" stroke-width="0.14000000000000004"/>
	<path d="M 13.294613,9.0 L 13.294613,7.5" fill="none" stroke="#000000" stroke-width="0.14000000000000004"/>
	<path d="M 4.178836,9.0 L 5.178836,9.0" fill="none" stroke="#000000" stroke-width="0.14000000000000004"/>
	<path d="M 5.178836,9.0 L 5.178836,10.5" fill="none" stroke="#000000" stroke-width="0.14000000000000004"/>
	<path d="M 5.178836,10.5 L 4.178836,10.5" fill="none" stroke="#000000" stroke-width="0.14000000000000004"/>
	<path d="M 4.178836,10.5 L 4.178836,9.0" fill="none" stroke="#000000" stroke-width="0.14000000000000004"/>
	<path d="M 8.299472,10.5 L 9.299472,10.5" fill="none" stroke="#000000" stroke-width="0.14000000000000004"/>
	<path d="M 9.299472,10.5 L 9.299472,12.0" fill="none" stroke="#000000" stroke-width="0.14000000000000004"/>
	<path d="M 9.299472,12.0 L 8.651775999999984,12.0" fill="none" stroke="#000000" stroke-width="0.14000000000000004"/>
	<path d="M 8.651775999999984,12.0 L 8.299472,12.0" fill="none" stroke="#000000" stroke-width="0.14000000000000004"/>
	<path d="M 8.299472,12.0 L 8.299472,10.5" fill="none" stroke="#000000" stroke-width="0.14000000000000004"/>
	<path d="M 9.299471999999996,12.0 L 9.651776,12.0" fill="none" stroke="#000000" stroke-width="0.14000000000000004"/>
	<path d="M 9.651776,12.0 L 9.651776,13.5" fill="none" stroke="#000000" stroke-width="0.14000000000000004"/>
	<path d="M 9.651776,13.5 L 8.651776,13.5" fill="none" stroke="#000000" stroke-width="0.14000000000000004"/>
	<path d="M 8.651776,13.5 L 8.651776,12.0" fill="none" stroke="#000000" stroke-width="0.14000000000000004"/>
	<path d="M 16.88442,13.5 L 17.88442,13.5" fill="none" stroke="#000000" stroke-width="0.14000000000000004"/>
	<path d="M 17.88442,13.5 L 17.88442,15.0" fill="none" stroke="#000000" stroke-width="0.14000000000000004"/>
	<path d="M 17.88442,15.0 L 16.88442,15.0" fill="none" stroke="#000000" stroke-width="0.14000000000000004"/>
	<path d="M 16.88442,15.0 L 16.88442,13.5" fill="none" stroke="#000000" stroke-width="0.14000000000000004"/>
</svg>
