  0
SECTION
  2
HEADER
  9
$INSBASE
 10
0.0000
 20
0.0000
  9
$EXTMIN
 10
-6.8551913052402478
 20
-6.8551913052402478
  9
$EXTMAX
 10
152.85519130524025
 20
26.855191305240247
  9
$LIMMIN
 10
-6.8551913052402478
 20
-6.8551913052402478
  9
$LIMMAX
 10
152.85519130524025
 20
26.855191305240247
  9
$TEXTSTYLE
  7
STANDARD
  9
$CLAYER
  8
default
  0
ENDSEC
  0
SECTION
  2
TABLES
  0
TABLE
  2
LTYPE
 70
4948253
  0
LTYPE
  2
CONTINUOUS
 70
    64
  3
Solid line
 72
    65
 73
     0
 40
0.0
  0
ENDTAB
  0
TABLE
  2
LAYER
 70
     5
  0
LAYER
  2
default
 70
    64
 62
     7
  6
CONTINUOUS
  0
ENDTAB
  0
TABLE
  2
STYLE
 70
     1
  0
STYLE
  2
STANDARD
 70
     0
 40
0.0
 41
1.0
 50
0.0
 71
     0
 42
0.2
  3
txt
  4

  0
ENDTAB
  0
TABLE
  2
VIEW
 70
     0
  0
ENDTAB
  0
ENDSEC
  0
SECTION
  2
BLOCKS
  0
ENDSEC
  0
SECTION
  2
ENTITIES
  0
LINE
  8
default
 10
1
 20
1
 30
0.0
 11
1
 21
5
 31
0.0
  0
LINE
  8
default
 10
1
 20
5
 30
0.0
 11
4.75
 21
5
 31
0.0
  0
LINE
  8
default
 10
141
 20
5
 30
0.0
 11
141
 21
1
 31
0.0
  0
LINE
  8
default
 10
4.75
 20
5
 30
0.0
 11
14.75
 21
5
 31
0.0
  0
LINE
  8
default
 10
4.75
 20
5
 30
0.0
 11
4.75
 21
10
 31
0.0
  0
LINE
  8
default
 10
4.75
 20
10
 30
0.0
 11
14.75
 21
10
 31
0.0
  0
LINE
  8
default
 10
14.75
 20
5
 30
0.0
 11
22.25
 21
5
 31
0.0
  0
LINE
  8
default
 10
14.75
 20
10
 30
0.0
 11
14.75
 21
5
 31
0.0
  0
LINE
  8
default
 10
22.25
 20
5
 30
0.0
 11
32.25
 21
5
 31
0.0
  0
LINE
  8
default
 10
22.25
 20
5
 30
0.0
 11
22.25
 21
10
 31
0.0
  0
LINE
  8
default
 10
22.25
 20
10
 30
0.0
 11
32.25
 21
10
 31
0.0
  0
LINE
  8
default
 10
32.25
 20
5
 30
0.0
 11
39.75
 21
5
 31
0.0
  0
LINE
  8
default
 10
32.25
 20
10
 30
0.0
 11
32.25
 21
5
 31
0.0
  0
LINE
  8
default
 10
39.75
 20
5
 30
0.0
 11
49.75
 21
5
 31
0.0
  0
LINE
  8
default
 10
39.75
 20
5
 30
0.0
 11
39.75
 21
10
 31
0.0
  0
LINE
  8
default
 10
39.75
 20
10
 30
0.0
 11
49.75
 21
10
 31
0.0
  0
LINE
  8
default
 10
49.75
 20
5
 30
0.0
 11
57.25
 21
5
 31
0.0
  0
LINE
  8
default
 10
49.75
 20
10
 30
0.0
 11
49.75
 21
5
 31
0.0
  0
LINE
  8
default
 10
57.25
 20
5
 30
0.0
 11
67.25
 21
5
 31
0.0
  0
LINE
  8
default
 10
57.25
 20
5
 30
0.0
 11
57.25
 21
10
 31
0.0
  0
LINE
  8
default
 10
57.25
 20
10
 30
0.0
 11
67.25
 21
10
 31
0.0
  0
LINE
  8
default
 10
67.25
 20
5
 30
0.0
 11
74.75
 21
5
 31
0.0
  0
LINE
  8
default
 10
67.25
 20
10
 30
0.0
 11
67.25
 21
5
 31
0.0
  0
LINE
  8
default
 10
74.75
 20
5
 30
0.0
 11
84.75
 21
5
 31
0.0
  0
LINE
  8
default
 10
74.75
 20
5
 30
0.0
 11
74.75
 21
10
 31
0.0
  0
LINE
  8
default
 10
74.75
 20
10
 30
0.0
 11
84.75
 21
10
 31
0.0
  0
LINE
  8
default
 10
84.75
 20
5
 30
0.0
 11
92.25
 21
5
 31
0.0
  0
LINE
  8
default
 10
84.75
 20
10
 30
0.0
 11
84.75
 21
5
 31
0.0
  0
LINE
  8
default
 10
92.25
 20
5
 30
0.0
 11
102.25
 21
5
 31
0.0
  0
LINE
  8
default
 10
92.25
 20
5
 30
0.0
 11
92.25
 21
10
 31
0.0
  0
LINE
  8
default
 10
92.25
 20
10
 30
0.0
 11
102.25
 21
10
 31
0.0
  0
LINE
  8
default
 10
102.25
 20
5
 30
0.0
 11
109.75
 21
5
 31
0.0
  0
LINE
  8
default
 10
102.25
 20
10
 30
0.0
 11
102.25
 21
5
 31
0.0
  0
LINE
  8
default
 10
109.75
 20
5
 30
0.0
 11
119.75
 21
5
 31
0.0
  0
LINE
  8
default
 10
109.75
 20
5
 30
0.0
 11
109.75
 21
10
 31
0.0
  0
LINE
  8
default
 10
109.75
 20
10
 30
0.0
 11
119.75
 21
10
 31
0.0
  0
LINE
  8
default
 10
119.75
 20
5
 30
0.0
 11
127.25
 21
5
 31
0.0
  0
LINE
  8
default
 10
119.75
 20
10
 30
0.0
 11
119.75
 21
5
 31
0.0
  0
LINE
  8
default
 10
127.25
 20
5
 30
0.0
 11
137.25
 21
5
 31
0.0
  0
LINE
  8
default
 10
127.25
 20
5
 30
0.0
 11
127.25
 21
10
 31
0.0
  0
LINE
  8
default
 10
127.25
 20
10
 30
0.0
 11
137.25
 21
10
 31
0.0
  0
LINE
  8
default
 10
137.25
 20
5
 30
0.0
 11
141
 21
5
 31
0.0
  0
LINE
  8
default
 10
137.25
 20
10
 30
0.0
 11
137.25
 21
5
 31
0.0
  0
LINE
  8
default
 10
-3
 20
-3
 30
0.0
 11
1
 21
1
 31
0.0
  0
LINE
  8
default
 10
144
 20
-3
 30
0.0
 11
141
 21
1
 31
0.0
  0
LINE
  8
default
 10
9.75
 20
11
 30
0.0
 11
19.75
 21
11
 31
0.0
  0
LINE
  8
default
 10
19.75
 20
11
 30
0.0
 11
19.75
 21
16
 31
0.0
  0
LINE
  8
default
 10
19.75
 20
16
 30
0.0
 11
27.25
 21
16
 31
0.0
  0
LINE
  8
default
 10
27.25
 20
16
 30
0.0
 11
27.25
 21
11
 31
0.0
  0
LINE
  8
default
 10
27.25
 20
11
 30
0.0
 11
37.25
 21
11
 31
0.0
  0
LINE
  8
default
 10
37.25
 20
11
 30
0.0
 11
37.25
 21
16
 31
0.0
  0
LINE
  8
default
 10
37.25
 20
16
 30
0.0
 11
44.75
 21
16
 31
0.0
  0
LINE
  8
default
 10
44.75
 20
16
 30
0.0
 11
44.75
 21
11
 31
0.0
  0
LINE
  8
default
 10
44.75
 20
11
 30
0.0
 11
54.75
 21
11
 31
0.0
  0
LINE
  8
default
 10
54.75
 20
11
 30
0.0
 11
54.75
 21
16
 31
0.0
  0
LINE
  8
default
 10
54.75
 20
16
 30
0.0
 11
62.25
 21
16
 31
0.0
  0
LINE
  8
default
 10
62.25
 20
16
 30
0.0
 11
62.25
 21
11
 31
0.0
  0
LINE
  8
default
 10
62.25
 20
11
 30
0.0
 11
72.25
 21
11
 31
0.0
  0
LINE
  8
default
 10
72.25
 20
11
 30
0.0
 11
72.25
 21
16
 31
0.0
  0
LINE
  8
default
 10
72.25
 20
16
 30
0.0
 11
79.75
 21
16
 31
0.0
  0
LINE
  8
default
 10
79.75
 20
16
 30
0.0
 11
79.75
 21
11
 31
0.0
  0
LINE
  8
default
 10
79.75
 20
11
 30
0.0
 11
89.75
 21
11
 31
0.0
  0
LINE
  8
default
 10
89.75
 20
11
 30
0.0
 11
89.75
 21
16
 31
0.0
  0
LINE
  8
default
 10
89.75
 20
16
 30
0.0
 11
97.25
 21
16
 31
0.0
  0
LINE
  8
default
 10
97.25
 20
16
 30
0.0
 11
97.25
 21
11
 31
0.0
  0
LINE
  8
default
 10
97.25
 20
11
 30
0.0
 11
107.25
 21
11
 31
0.0
  0
LINE
  8
default
 10
107.25
 20
11
 30
0.0
 11
107.25
 21
16
 31
0.0
  0
LINE
  8
default
 10
107.25
 20
16
 30
0.0
 11
114.75
 21
16
 31
0.0
  0
LINE
  8
default
 10
114.75
 20
16
 30
0.0
 11
114.75
 21
11
 31
0.0
  0
LINE
  8
default
 10
114.75
 20
11
 30
0.0
 11
124.75
 21
11
 31
0.0
  0
LINE
  8
default
 10
124.75
 20
11
 30
0.0
 11
124.75
 21
16
 31
0.0
  0
LINE
  8
default
 10
124.75
 20
16
 30
0.0
 11
132.25
 21
16
 31
0.0
  0
LINE
  8
default
 10
132.25
 20
16
 30
0.0
 11
132.25
 21
11
 31
0.0
  0
LINE
  8
default
 10
132.25
 20
11
 30
0.0
 11
142.25
 21
11
 31
0.0
  0
LINE
  8
default
 10
142.25
 20
11
 30
0.0
 11
142.25
 21
16
 31
0.0
  0
LINE
  8
default
 10
9.75
 20
11
 30
0.0
 11
9.75
 21
16
 31
0.0
  0
LINE
  8
default
 10
9.75
 20
16
 30
0.0
 11
6
 21
16
 31
0.0
  0
LINE
  8
default
 10
142.25
 20
16
 30
0.0
 11
146
 21
16
 31
0.0
  0
LINE
  8
default
 10
-3
 20
-3
 30
0.0
 11
144
 21
-3
 31
0.0
  0
LINE
  8
default
 10
149
 20
23
 30
0.0
 11
3
 21
23
 31
0.0
  0
LINE
  8
default
 10
6
 20
16
 30
0.0
 11
1.8999999999999999
 21
12.1
 31
0.0
  0
LINE
  8
default
 10
1.8999999999999999
 20
12.1
 30
0.0
 11
1
 21
5
 31
0.0
  0
LINE
  8
default
 10
146
 20
16
 30
0.0
 11
146.09999999999999
 21
9.5
 31
0.0
  0
LINE
  8
default
 10
146.09999999999999
 20
9.5
 30
0.0
 11
141
 21
5
 31
0.0
  0
LINE
  8
default
 10
149
 20
23
 30
0.0
 11
146
 21
20
 31
0.0
  0
LINE
  8
default
 10
6
 20
20
 30
0.0
 11
3
 21
23
 31
0.0
  0
LINE
  8
default
 10
146
 20
16
 30
0.0
 11
146
 21
20
 31
0.0
  0
LINE
  8
default
 10
6
 20
16
 30
0.0
 11
6
 21
20
 31
0.0
  0
ENDSEC
  0
EOF
