<?xml version="1.0" ?>
<svg xmlns="http://www.w3.org/2000/svg" xmlns:ev="http://www.w3.org/2001/xml-events" xmlns:xlink="http://www.w3.org/1999/xlink" baseProfile="full" height="600px" version="1.1" viewBox="-14.070000000000004 -14.069999999999972 168.14000000000004 168.14" width="600px">
	<defs/>
	<path d="M 1.9721522630525295e-31,2.8421709e-14 L 5.000000000000001,2.8421709e-14" fill="none" stroke="#000000" stroke-width="0.14000000000000004"/>
	<path d="M 5.000000000000001,2.8421709e-14 L 18.746029,2.8421709e-14" fill="none" stroke="#000000" stroke-width="0.14000000000000004"/>
	<path d="M 18.746029,2.8421709e-14 L 19.746029,2.8421709e-14" fill="none" stroke="#000000" stroke-width="0.14000000000000004"/>
	<path d="M 19.746029,2.8421709e-14 L 140.0,2.8421709e-14" fill="none" stroke="#000000" stroke-width="0.14000000000000004"/>
	<path d="M 140.0,2.8421709e-14 L 140.0,140.00000000000003" fill="none" stroke="#000000" stroke-width="0.14000000000000004"/>
	<path d="M 140.00000000000003,140.00000000000003 L 0.0,140.00000000000003" fill="none" stroke="#000000" stroke-width="0.14000000000000004"/>
	<path d="M 8.8817842e-16,140.00000000000003 L 8.8817842e-16,4.999999903142452" fill="none" stroke="#000000" stroke-width="0.14000000000000004"/>
	<path d="M 8.8817842e-16,4.999999903142452 L 8.8817842e-16,2.842170943040401e-14" fill="none" stroke="#000000" stroke-width="0.14000000000000004"/>
	<path d="M 5.0,2.8421708993652644e-14 L 5.0,4.999999903142452" fill="none" stroke="#000000" stroke-width="0.14000000000000004"/>
	<path d="M 5.0,4.999999903142452 L 8.881784197001252e-16,4.999999903142452" fill="none" stroke="#000000" stroke-width="0.14000000000000004"/>
	<path d="M 19.746029,2.8421708999999996e-14 L 19.746029,1.5" fill="none" stroke="#000000" stroke-width="0.14000000000000004"/>
	<path d="M 19.746029,1.5 L 18.746029,1.5" fill="none" stroke="#000000" stroke-width="0.14000000000000004"/>
	<path d="M 18.746029,1.5 L 18.746029,2.842170943040401e-14" fill="none" stroke="#000000" stroke-width="0.14000000000000004"/>
	<path d="M 7.696165,1.5 L 8.696165,1.5" fill="none" stroke="#000000" stroke-width="0.14000000000000004"/>
	<path d="M 8.696165,1.5 L 8.696165,3.0" fill="none" stroke="#000000" stroke-width="0.14000000000000004"/>
	<path d="M 8.696164999999999,3.0 L 7.897660000000001,3.0" fill="none" stroke="#000000" stroke-width="0.14000000000000004"/>
	<path d="M 7.897660000000001,3.0 L 7.696165,3.0" fill="none" stroke="#000000" stroke-width="0.14000000000000004"/>
	<path d="M 7.696165,3.0 L 7.696165,1.5" fill="none" stroke="#000000" stroke-width="0.14000000000000004"/>
	<path d="M 8.696165000000004,3.0 L 8.89766,3.0" fill="none" stroke="#000000" stroke-width="0.14000000000000004"/>
	<path d="M 8.89766,3.0 L 8.89766,4.5" fill="none" stroke="#000000" stroke-width="0.14000000000000004"/>
	<path d="M 8.89766,4.5 L 7.89766,4.5" fill="none" stroke="#000000" stroke-width="0.14000000000000004"/>
	<path d="M 7.89766,4.5 L 7.89766,3.0" fill="none" stroke="#000000" stroke-width="0.14000000000000004"/>
	<path d="M 16.401492,4.5 L 17.401492,4.5" fill="none" stroke="#000000" stroke-width="0.14000000000000004"/>
	<path d="M 17.401492,4.5 L 17.401492,6.0" fill="none" stroke="#000000" stroke-width="0.14000000000000004"/>
	<path d="M 17.401492,6.0 L 16.403417,6.0" fill="none" stroke="#000000" stroke-width="0.14000000000000004"/>
	<path d="M 16.403417,6.0 L 16.401492,6.0" fill="none" stroke="#000000" stroke-width="0.14000000000000004"/>
	<path d="M 16.401492,6.0 L 16.401492,4.5" fill="none" stroke="#000000" stroke-width="0.14000000000000004"/>
	<path d="M 17.40149200000001,6.0 L 17.403417,6.0" fill="none" stroke="#000000" stroke-width="0.14000000000000004"/>
	<path d="M 17.403417,6.0 L 17.403417,7.5" fill="none" stroke="#000000" stroke-width="0.14000000000000004"/>
	<path d="M 17.403417,7.5 L 16.403417,7.5" fill="none" stroke="#000000" stroke-width="0.14000000000000004"/>
	<path d="M 16.403417,7.5 L 16.403417,6.0" fill="none" stroke="#000000" stroke-width="0.14000000000000004"/>
	<path d="M 6.597375,7.5 L 7.597375,7.5" fill="none" stroke="#000000" stroke-width="0.14000000000000004"/>
	<path d="M 7.597375,7.5 L 7.597375,9.0" fill="none" stroke="#000000" stroke-width="0.14000000000000004"/>
	<path d="M 7.597374999999996,9.0 L 6.597375,9.0" fill="none" stroke="#000000" stroke-width="0.14000000000000004"/>
	<path d="M 6.597375,9.0 L 6.597375,7.5" fill="none" stroke="#000000" stroke-width="0.14000000000000004"/>
	<path d="M 13.497617,9.0 L 14.497617,9.0" fill="none" stroke="#000000" stroke-width="0.14000000000000004"/>
	<path d="M 14.497617,9.0 L 14.497617,10.5" fill="none" stroke="#000000" stroke-width="0.14000000000000004"/>
	<path d="M 14.497617,10.5 L 13.497617,10.5" fill="none" stroke="#000000" stroke-width="0.14000000000000004"/>
	<path d="M 13.497617,10.5 L 13.497617,9.0" fill="none" stroke="#000000" stroke-width="0.14000000000000004"/>
	<path d="M 3.462278,10.5 L 4.462278,10.5" fill="none" stroke="#000000" stroke-width="0.14000000000000004"/>
	<path d="M 4.462278,10.5 L 4.462278,12.0" fill="none" stroke="#000000" stroke-width="0.14000000000000004"/>
	<path d="M 4.462278,12.0 L 3.614891000000002,12.0" fill="none" stroke="#000000" stroke-width="0.14000000000000004"/>
	<path d="M 3.614891000000002,12.0 L 3.462278,12.0" fill="none" stroke="#000000" stroke-width="0.14000000000000004"/>
	<path d="M 3.462278,12.0 L 3.462278,10.5" fill="none" stroke="#000000" stroke-width="0.14000000000000004"/>
	<path d="M 4.462277999999998,12.0 L 4.614891,12.0" fill="none" stroke="#000000" stroke-width="0.14000000000000004"/>
	<path d="M 4.614891,12.0 L 4.614891,13.5" fill="none" stroke="#000000" stroke-width="0.14000000000000004"/>
	<path d="M 4.614891,13.5 L 3.614891,13.5" fill="none" stroke="#000000" stroke-width="0.14000000000000004"/>
	<path d="M 3.614891,13.5 L 3.614891,12.0" fill="none" stroke="#000000" stroke-width="0.14000000000000004"/>
	<path d="M 17.439794,13.5 L 18.439794,13.5" fill="none" stroke="#000000" stroke-width="0.14000000000000004"/>
	<path d="M 18.439794,13.5 L 18.439794,15.0" fill="none" stroke="#000000" stroke-width="0.14000000000000004"/>
	<path d="M 18.439794000000017,15.0 L 17.439794,15.0" fill="none" stroke="#000000" stroke-width="0.14000000000000004"/>
	<path d="M 17.439794,15.0 L 17.439794,13.5" fill="none" stroke="#000000" stroke-width="0.14000000000000004"/>
</svg>
