  0
SECTION
  2
HEADER
  9
$INSBASE
 10
0.0000
 20
0.0000
  9
$EXTMIN
 10
-2.298097
 20
-2.298097
  9
$EXTMAX
 10
67.298097
 20
67.298097
  9
$LIMMIN
 10
-2.298097
 20
-2.298097
  9
$LIMMAX
 10
67.298097
 20
67.298097
  9
$TEXTSTYLE
  7
STANDARD
  9
$CLAYER
  8
default
  0
ENDSEC
  0
SECTION
  2
TABLES
  0
TABLE
  2
LTYPE
 70
4948253
  0
LTYPE
  2
CONTINUOUS
 70
    64
  3
Solid line
 72
    65
 73
     0
 40
0.0
  0
ENDTAB
  0
TABLE
  2
LAYER
 70
     5
  0
LAYER
  2
default
 70
    64
 62
     7
  6
CONTINUOUS
  0
LAYER
  2
layer 4
 70
    64
 62
     7
  6
CONTINUOUS
  0
LAYER
  2
layer 5
 70
    64
 62
     7
  6
CONTINUOUS
  0
ENDTAB
  0
TABLE
  2
STYLE
 70
     1
  0
STYLE
  2
STANDARD
 70
     0
 40
0.0
 41
1.0
 50
0.0
 71
     0
 42
0.2
  3
txt
  4

  0
ENDTAB
  0
TABLE
  2
VIEW
 70
     0
  0
ENDTAB
  0
ENDSEC
  0
SECTION
  2
BLOCKS
  0
ENDSEC
  0
SECTION
  2
ENTITIES
  0
LINE
  8
layer 4
 10
39.996875
 20
0.500000
 30
0.0
 11
39.500000
 21
0.500000
 31
0.0
  0
LINE
  8
layer 5
 10
42.250000
 20
1.900000
 30
0.0
 11
53.000000
 21
1.900000
 31
0.0
  0
LINE
  8
layer 5
 10
40.296178
 20
2.521639
 30
0.0
 11
40.931138
 21
2.577191
 31
0.0
  0
LINE
  8
layer 5
 10
51.864879
 20
11.074488
 30
0.0
 11
41.278196
 21
9.207770
 31
0.0
  0
LINE
  8
layer 5
 10
40.121867
 20
4.514028
 30
0.0
 11
40.756827
 21
4.569580
 31
0.0
  0
LINE
  8
layer 5
 10
41.938059
 20
5.465501
 30
0.0
 11
52.524742
 21
7.332219
 31
0.0
  0
LINE
  8
layer 5
 10
39.246111
 20
9.480687
 30
0.0
 11
39.861778
 21
9.645655
 31
0.0
  0
LINE
  8
layer 5
 10
49.153871
 20
19.912484
 30
0.0
 11
39.052175
 21
16.235767
 31
0.0
  0
LINE
  8
layer 5
 10
38.728472
 20
11.412539
 30
0.0
 11
39.344140
 21
11.577507
 31
0.0
  0
LINE
  8
layer 5
 10
40.351852
 20
12.664935
 30
0.0
 11
50.453547
 21
16.341652
 31
0.0
  0
LINE
  8
layer 5
 10
37.003570
 20
16.151670
 30
0.0
 11
37.581238
 21
16.421041
 31
0.0
  0
LINE
  8
layer 5
 10
44.949346
 20
28.145448
 30
0.0
 11
35.639573
 21
22.770448
 31
0.0
  0
LINE
  8
layer 5
 10
36.736001
 20
18.233657
 30
0.0
 11
36.158333
 21
17.964286
 31
0.0
  0
LINE
  8
layer 5
 10
46.849346
 20
24.854552
 30
0.0
 11
37.539573
 21
19.479552
 31
0.0
  0
LINE
  8
layer 5
 10
33.636694
 20
22.331892
 30
0.0
 11
34.158810
 21
22.697482
 31
0.0
  0
LINE
  8
layer 5
 10
39.379059
 20
35.523228
 30
0.0
 11
31.144081
 21
28.613261
 31
0.0
  0
LINE
  8
layer 5
 10
32.489541
 20
23.970196
 30
0.0
 11
33.011657
 21
24.335786
 31
0.0
  0
LINE
  8
layer 5
 10
41.821652
 20
32.612259
 30
0.0
 11
33.586674
 21
25.702292
 31
0.0
  0
LINE
  8
layer 5
 10
29.698485
 20
28.284271
 30
0.0
 11
29.247785
 21
27.833571
 31
0.0
  0
LINE
  8
layer 5
 10
32.612259
 20
41.821652
 30
0.0
 11
25.702292
 21
33.586674
 31
0.0
  0
LINE
  8
layer 5
 10
27.833571
 20
29.247785
 30
0.0
 11
28.284271
 21
29.698485
 31
0.0
  0
LINE
  8
layer 5
 10
28.613261
 20
31.144081
 30
0.0
 11
35.523228
 21
39.379059
 31
0.0
  0
LINE
  8
layer 5
 10
23.970196
 20
32.489541
 30
0.0
 11
24.335786
 21
33.011657
 31
0.0
  0
LINE
  8
layer 5
 10
24.854552
 20
46.849346
 30
0.0
 11
19.479552
 21
37.539573
 31
0.0
  0
LINE
  8
layer 5
 10
22.697482
 20
34.158810
 30
0.0
 11
22.331892
 21
33.636694
 31
0.0
  0
LINE
  8
layer 5
 10
28.145448
 20
44.949346
 30
0.0
 11
22.770448
 21
35.639573
 31
0.0
  0
LINE
  8
layer 5
 10
17.964286
 20
36.158333
 30
0.0
 11
18.233657
 21
36.736001
 31
0.0
  0
LINE
  8
layer 5
 10
12.664935
 20
40.351852
 30
0.0
 11
16.341652
 21
50.453547
 31
0.0
  0
LINE
  8
layer 5
 10
16.151670
 20
37.003570
 30
0.0
 11
16.421041
 21
37.581238
 31
0.0
  0
LINE
  8
layer 5
 10
16.235767
 20
39.052175
 30
0.0
 11
19.912484
 21
49.153871
 31
0.0
  0
LINE
  8
layer 5
 10
11.412539
 20
38.728472
 30
0.0
 11
11.577507
 21
39.344140
 31
0.0
  0
LINE
  8
layer 5
 10
5.465501
 20
41.938059
 30
0.0
 11
7.332219
 21
52.524742
 31
0.0
  0
LINE
  8
layer 5
 10
9.645655
 20
39.861778
 30
0.0
 11
9.480687
 21
39.246111
 31
0.0
  0
LINE
  8
layer 5
 10
11.074488
 20
51.864879
 30
0.0
 11
9.207770
 21
41.278196
 31
0.0
  0
LINE
  8
layer 5
 10
4.514028
 20
40.121867
 30
0.0
 11
4.569580
 21
40.756827
 31
0.0
  0
LINE
  8
layer 5
 10
2.521639
 20
40.296178
 30
0.0
 11
2.577191
 21
40.931138
 31
0.0
  0
LINE
  8
layer 5
 10
1.900000
 20
53.000000
 30
0.0
 11
1.900000
 21
42.250000
 31
0.0
  0
LINE
  8
layer 4
 10
38.620913
 20
8.302113
 30
0.0
 11
39.105330
 21
8.412678
 31
0.0
  0
LINE
  8
layer 4
 10
38.882809
 20
9.387606
 30
0.0
 11
38.398392
 21
9.277041
 31
0.0
  0
LINE
  8
layer 4
 10
36.252881
 20
16.903509
 30
0.0
 11
35.805212
 21
16.687923
 31
0.0
  0
LINE
  8
layer 4
 10
35.371328
 20
17.588892
 30
0.0
 11
35.818997
 21
17.804478
 31
0.0
  0
LINE
  8
layer 4
 10
31.194088
 20
24.236931
 30
0.0
 11
31.582561
 21
24.546728
 31
0.0
  0
LINE
  8
layer 4
 10
30.959071
 20
25.328559
 30
0.0
 11
30.570599
 21
25.018763
 31
0.0
  0
LINE
  8
layer 4
 10
25.328559
 20
30.959071
 30
0.0
 11
25.018763
 21
30.570599
 31
0.0
  0
LINE
  8
layer 4
 10
24.546728
 20
31.582561
 30
0.0
 11
24.236931
 21
31.194088
 31
0.0
  0
LINE
  8
layer 4
 10
17.804478
 20
35.818997
 30
0.0
 11
17.588892
 21
35.371328
 31
0.0
  0
LINE
  8
layer 4
 10
16.687923
 20
35.805212
 30
0.0
 11
16.903509
 21
36.252881
 31
0.0
  0
LINE
  8
layer 4
 10
9.277041
 20
38.398392
 30
0.0
 11
9.387606
 21
38.882809
 31
0.0
  0
LINE
  8
layer 4
 10
8.302113
 20
38.620913
 30
0.0
 11
8.412678
 21
39.105330
 31
0.0
  0
LINE
  8
layer 4
 10
0.500000
 20
39.500000
 30
0.0
 11
0.500000
 21
39.996875
 31
0.0
  0
LINE
  8
default
 10
39.500000
 20
0.500000
 30
0.0
 11
39.500000
 21
0.000000
 31
0.0
  0
LINE
  8
default
 10
38.620913
 20
8.302113
 30
0.0
 11
38.398392
 21
9.277041
 31
0.0
  0
LINE
  8
default
 10
35.805212
 20
16.687923
 30
0.0
 11
35.371328
 21
17.588892
 31
0.0
  0
LINE
  8
default
 10
31.194088
 20
24.236931
 30
0.0
 11
30.570599
 21
25.018763
 31
0.0
  0
LINE
  8
default
 10
25.018763
 20
30.570599
 30
0.0
 11
24.236931
 21
31.194088
 31
0.0
  0
LINE
  8
default
 10
16.687923
 20
35.805212
 30
0.0
 11
17.588892
 21
35.371328
 31
0.0
  0
LINE
  8
default
 10
9.277041
 20
38.398392
 30
0.0
 11
8.302113
 21
38.620913
 31
0.0
  0
LINE
  8
layer 5
 10
40.931138
 20
2.577191
 30
0.0
 11
40.756827
 21
4.569580
 31
0.0
  0
LINE
  8
layer 5
 10
39.344140
 20
11.577507
 30
0.0
 11
39.861778
 21
9.645655
 31
0.0
  0
LINE
  8
layer 5
 10
37.581238
 20
16.421041
 30
0.0
 11
36.736001
 21
18.233657
 31
0.0
  0
LINE
  8
layer 5
 10
33.011657
 20
24.335786
 30
0.0
 11
34.158810
 21
22.697482
 31
0.0
  0
LINE
  8
layer 5
 10
28.284271
 20
29.698485
 30
0.0
 11
29.698485
 21
28.284271
 31
0.0
  0
LINE
  8
layer 5
 10
24.335786
 20
33.011657
 30
0.0
 11
22.697482
 21
34.158810
 31
0.0
  0
LINE
  8
layer 5
 10
16.421041
 20
37.581238
 30
0.0
 11
18.233657
 21
36.736001
 31
0.0
  0
LINE
  8
layer 5
 10
9.645655
 20
39.861778
 30
0.0
 11
11.577507
 21
39.344140
 31
0.0
  0
LINE
  8
layer 5
 10
4.569580
 20
40.756827
 30
0.0
 11
2.577191
 21
40.931138
 31
0.0
  0
LINE
  8
layer 5
 10
40.375000
 20
0.000000
 30
0.0
 11
65.000000
 21
0.000000
 31
0.0
  0
LINE
  8
default
 10
0.500000
 20
39.500000
 30
0.0
 11
0.000000
 21
39.500000
 31
0.0
  0
LINE
  8
layer 5
 10
0.000000
 20
40.375000
 30
0.0
 11
0.000000
 21
65.000000
 31
0.0
  0
LINE
  8
layer 4
 10
37.017886
 20
6.384835
 30
0.0
 11
24.993968
 21
5.030065
 31
0.0
  0
LINE
  8
layer 4
 10
25.486612
 20
0.657731
 30
0.0
 11
37.510530
 21
2.012501
 31
0.0
  0
LINE
  8
layer 4
 10
34.669011
 20
14.462008
 30
0.0
 11
23.248023
 21
10.465632
 31
0.0
  0
LINE
  8
layer 4
 10
36.122239
 20
10.308921
 30
0.0
 11
24.701251
 21
6.312545
 31
0.0
  0
LINE
  8
layer 4
 10
30.581687
 20
21.813996
 30
0.0
 11
20.336324
 21
15.376408
 31
0.0
  0
LINE
  8
layer 4
 10
32.922628
 20
18.088410
 30
0.0
 11
22.677265
 21
11.650822
 31
0.0
  0
LINE
  8
layer 4
 10
24.960869
 20
28.072139
 30
0.0
 11
16.404877
 21
19.516147
 31
0.0
  0
LINE
  8
layer 4
 10
28.072139
 20
24.960869
 30
0.0
 11
19.516147
 21
16.404877
 31
0.0
  0
LINE
  8
layer 4
 10
18.088410
 20
32.922628
 30
0.0
 11
11.650822
 21
22.677265
 31
0.0
  0
LINE
  8
layer 4
 10
21.813996
 20
30.581687
 30
0.0
 11
15.376408
 21
20.336324
 31
0.0
  0
LINE
  8
layer 4
 10
10.308921
 20
36.122239
 30
0.0
 11
6.312545
 21
24.701251
 31
0.0
  0
LINE
  8
layer 4
 10
14.462008
 20
34.669011
 30
0.0
 11
10.465632
 21
23.248023
 31
0.0
  0
LINE
  8
layer 4
 10
2.012501
 20
37.510530
 30
0.0
 11
0.657731
 21
25.486612
 31
0.0
  0
LINE
  8
layer 4
 10
5.030065
 20
24.993968
 30
0.0
 11
6.384835
 21
37.017886
 31
0.0
  0
LINE
  8
layer 4
 10
0.000000
 20
39.500000
 30
0.0
 11
0.000000
 21
25.000000
 31
0.0
  0
LINE
  8
layer 4
 10
0.000000
 20
25.000000
 30
0.0
 11
0.000000
 21
12.500000
 31
0.0
  0
LINE
  8
layer 4
 10
25.000000
 20
0.000000
 30
0.0
 11
12.500000
 21
0.000000
 31
0.0
  0
LINE
  8
layer 4
 10
39.500000
 20
0.000000
 30
0.0
 11
25.000000
 21
0.000000
 31
0.0
  0
LINE
  8
default
 10
0.000000
 20
40.375000
 30
0.0
 11
0.000000
 21
39.500000
 31
0.0
  0
LINE
  8
default
 10
40.375000
 20
0.000000
 30
0.0
 11
39.500000
 21
0.000000
 31
0.0
  0
ARC
  8
layer 4
 10
-0.000000
 20
-0.000000
 30
0.000000
 40
12.500000
 50
0.000000
 51
90.000000
  0
ARC
  8
layer 5
 10
42.177034
 20
3.380763
 30
0.000000
 40
1.482560
 50
212.821038
 51
272.821038
  0
ARC
  8
layer 5
 10
-0.000000
 20
0.000000
 30
0.000000
 40
54.000000
 50
3.076379
 51
5.000000
  0
ARC
  8
layer 5
 10
53.042368
 20
2.785913
 30
0.000000
 40
0.886926
 50
267.261952
 51
7.261952
  0
ARC
  8
layer 5
 10
42.123333
 20
3.994563
 30
0.000000
 40
1.482560
 50
97.178962
 51
157.178962
  0
ARC
  8
layer 5
 10
40.949206
 20
10.653367
 30
0.000000
 40
1.482560
 50
222.821038
 51
282.821038
  0
ARC
  8
layer 5
 10
0.000000
 20
0.000000
 30
0.000000
 40
40.375000
 50
6.419236
 51
13.580764
  0
ARC
  8
layer 5
 10
-0.000000
 20
0.000000
 30
0.000000
 40
54.000000
 50
13.076379
 51
15.000000
  0
ARC
  8
layer 5
 10
51.752767
 20
11.954299
 30
0.000000
 40
0.886926
 50
277.261952
 51
17.261952
  0
ARC
  8
layer 5
 10
0.000000
 20
-0.000000
 30
0.000000
 40
54.000000
 50
5.000000
 51
6.923621
  0
ARC
  8
layer 5
 10
52.720304
 20
6.467122
 30
0.000000
 40
0.886926
 50
2.738048
 51
102.738048
  0
ARC
  8
layer 5
 10
40.789736
 20
11.248517
 30
0.000000
 40
1.482560
 50
107.178962
 51
167.178962
  0
ARC
  8
layer 5
 10
38.477158
 20
17.602273
 30
0.000000
 40
1.482560
 50
232.821038
 51
292.821038
  0
ARC
  8
layer 5
 10
-0.000000
 20
0.000000
 30
0.000000
 40
40.375000
 50
16.419236
 51
23.580764
  0
ARC
  8
layer 5
 10
-0.000000
 20
0.000000
 30
0.000000
 40
54.000000
 50
23.076379
 51
25.000000
  0
ARC
  8
layer 5
 10
48.890684
 20
20.759460
 30
0.000000
 40
0.886926
 50
287.261952
 51
27.261952
  0
ARC
  8
layer 5
 10
0.000000
 20
-0.000000
 30
0.000000
 40
54.000000
 50
15.000000
 51
16.923621
  0
ARC
  8
layer 5
 10
50.796360
 20
15.523656
 30
0.000000
 40
0.886926
 50
12.738048
 51
112.738048
  0
ARC
  8
layer 5
 10
38.216764
 20
18.160690
 30
0.000000
 40
1.482560
 50
117.178962
 51
177.178962
  0
ARC
  8
layer 5
 10
34.836001
 20
24.016343
 30
0.000000
 40
1.482560
 50
242.821038
 51
302.821038
  0
ARC
  8
layer 5
 10
-0.000000
 20
0.000000
 30
0.000000
 40
40.375000
 50
26.419236
 51
33.580764
  0
ARC
  8
layer 5
 10
-0.000000
 20
0.000000
 30
0.000000
 40
54.000000
 50
33.076379
 51
35.000000
  0
ARC
  8
layer 5
 10
44.543082
 20
28.933856
 30
0.000000
 40
0.886926
 50
297.261952
 51
37.261952
  0
ARC
  8
layer 5
 10
0.000000
 20
-0.000000
 30
0.000000
 40
54.000000
 50
25.000000
 51
26.923621
  0
ARC
  8
layer 5
 10
47.328995
 20
24.108513
 30
0.000000
 40
0.886926
 50
22.738048
 51
122.738048
  0
ARC
  8
layer 5
 10
34.482595
 20
24.521060
 30
0.000000
 40
1.482560
 50
127.178962
 51
187.178962
  0
ARC
  8
layer 5
 10
30.136370
 20
29.700689
 30
0.000000
 40
1.482560
 50
252.821038
 51
312.821038
  0
ARC
  8
layer 5
 10
-0.000000
 20
-0.000000
 30
0.000000
 40
40.375000
 50
36.419236
 51
43.580764
  0
ARC
  8
layer 5
 10
-0.000000
 20
0.000000
 30
0.000000
 40
54.000000
 50
43.076379
 51
45.000000
  0
ARC
  8
layer 5
 10
38.842061
 20
36.229110
 30
0.000000
 40
0.886926
 50
307.261952
 51
47.261952
  0
ARC
  8
layer 5
 10
0.000000
 20
-0.000000
 30
0.000000
 40
54.000000
 50
35.000000
 51
36.923621
  0
ARC
  8
layer 5
 10
42.423562
 20
31.960844
 30
0.000000
 40
0.886926
 50
32.738048
 51
132.738048
  0
ARC
  8
layer 5
 10
29.700689
 20
30.136370
 30
0.000000
 40
1.482560
 50
137.178962
 51
197.178962
  0
ARC
  8
layer 5
 10
24.521060
 20
34.482595
 30
0.000000
 40
1.482560
 50
262.821038
 51
322.821038
  0
ARC
  8
layer 5
 10
-0.000000
 20
-0.000000
 30
0.000000
 40
40.375000
 50
46.419236
 51
53.580764
  0
ARC
  8
layer 5
 10
-0.000000
 20
0.000000
 30
0.000000
 40
54.000000
 50
53.076379
 51
55.000000
  0
ARC
  8
layer 5
 10
31.960844
 20
42.423562
 30
0.000000
 40
0.886926
 50
317.261952
 51
57.261952
  0
ARC
  8
layer 5
 10
0.000000
 20
0.000000
 30
0.000000
 40
54.000000
 50
45.000000
 51
46.923621
  0
ARC
  8
layer 5
 10
36.229110
 20
38.842061
 30
0.000000
 40
0.886926
 50
42.738048
 51
142.738048
  0
ARC
  8
layer 5
 10
24.016343
 20
34.836001
 30
0.000000
 40
1.482560
 50
147.178962
 51
207.178962
  0
ARC
  8
layer 5
 10
18.160690
 20
38.216764
 30
0.000000
 40
1.482560
 50
272.821038
 51
332.821038
  0
ARC
  8
layer 5
 10
0.000000
 20
0.000000
 30
0.000000
 40
40.375000
 50
56.419236
 51
63.580764
  0
ARC
  8
layer 5
 10
-0.000000
 20
0.000000
 30
0.000000
 40
54.000000
 50
63.076379
 51
65.000000
  0
ARC
  8
layer 5
 10
24.108513
 20
47.328995
 30
0.000000
 40
0.886926
 50
327.261952
 51
67.261952
  0
ARC
  8
layer 5
 10
0.000000
 20
-0.000000
 30
0.000000
 40
54.000000
 50
55.000000
 51
56.923621
  0
ARC
  8
layer 5
 10
28.933856
 20
44.543082
 30
0.000000
 40
0.886926
 50
52.738048
 51
152.738048
  0
ARC
  8
layer 5
 10
17.602273
 20
38.477158
 30
0.000000
 40
1.482560
 50
157.178962
 51
217.178962
  0
ARC
  8
layer 5
 10
11.248517
 20
40.789736
 30
0.000000
 40
1.482560
 50
282.821038
 51
342.821038
  0
ARC
  8
layer 5
 10
0.000000
 20
0.000000
 30
0.000000
 40
40.375000
 50
66.419236
 51
73.580764
  0
ARC
  8
layer 5
 10
-0.000000
 20
0.000000
 30
0.000000
 40
54.000000
 50
73.076379
 51
75.000000
  0
ARC
  8
layer 5
 10
15.523656
 20
50.796360
 30
0.000000
 40
0.886926
 50
337.261952
 51
77.261952
  0
ARC
  8
layer 5
 10
0.000000
 20
-0.000000
 30
0.000000
 40
54.000000
 50
65.000000
 51
66.923621
  0
ARC
  8
layer 5
 10
20.759460
 20
48.890684
 30
0.000000
 40
0.886926
 50
62.738048
 51
162.738048
  0
ARC
  8
layer 5
 10
10.653367
 20
40.949206
 30
0.000000
 40
1.482560
 50
167.178962
 51
227.178962
  0
ARC
  8
layer 5
 10
3.994563
 20
42.123333
 30
0.000000
 40
1.482560
 50
292.821038
 51
352.821038
  0
ARC
  8
layer 5
 10
0.000000
 20
0.000000
 30
0.000000
 40
40.375000
 50
76.419236
 51
83.580764
  0
ARC
  8
layer 5
 10
-0.000000
 20
0.000000
 30
0.000000
 40
54.000000
 50
83.076379
 51
85.000000
  0
ARC
  8
layer 5
 10
6.467122
 20
52.720304
 30
0.000000
 40
0.886926
 50
347.261952
 51
87.261952
  0
ARC
  8
layer 5
 10
0.000000
 20
-0.000000
 30
0.000000
 40
54.000000
 50
75.000000
 51
76.923621
  0
ARC
  8
layer 5
 10
11.954299
 20
51.752767
 30
0.000000
 40
0.886926
 50
72.738048
 51
172.738048
  0
ARC
  8
layer 5
 10
3.380763
 20
42.177034
 30
0.000000
 40
1.482560
 50
177.178962
 51
237.178962
  0
ARC
  8
layer 5
 10
0.000000
 20
-0.000000
 30
0.000000
 40
40.375000
 50
86.419236
 51
90.000000
  0
ARC
  8
layer 5
 10
0.000000
 20
-0.000000
 30
0.000000
 40
54.000000
 50
85.000000
 51
86.923621
  0
ARC
  8
layer 5
 10
2.785913
 20
53.042368
 30
0.000000
 40
0.886926
 50
82.738048
 51
182.738048
  0
ARC
  8
layer 4
 10
0.000000
 20
0.000000
 30
0.000000
 40
40.000000
 50
0.716216
 51
12.140927
  0
ARC
  8
layer 4
 10
-0.000000
 20
0.000000
 30
0.000000
 40
40.000000
 50
13.573359
 51
24.998070
  0
ARC
  8
layer 4
 10
0.000000
 20
-0.000000
 30
0.000000
 40
40.000000
 50
26.430502
 51
37.855213
  0
ARC
  8
layer 4
 10
-0.000000
 20
0.000000
 30
0.000000
 40
40.000000
 50
39.287644
 51
50.712356
  0
ARC
  8
layer 4
 10
0.000000
 20
0.000000
 30
0.000000
 40
40.000000
 50
52.144787
 51
63.569498
  0
ARC
  8
layer 4
 10
-0.000000
 20
0.000000
 30
0.000000
 40
40.000000
 50
65.001930
 51
76.426641
  0
ARC
  8
layer 4
 10
0.000000
 20
0.000000
 30
0.000000
 40
40.000000
 50
77.859073
 51
89.283784
  0
ARC
  8
layer 5
 10
-0.000000
 20
0.000000
 30
0.000000
 40
65.000000
 50
0.000000
 51
90.000000
  0
ARC
  8
layer 5
 10
0.000000
 20
0.000000
 30
0.000000
 40
40.375000
 50
360.000000
 51
3.580764
  0
ARC
  8
layer 4
 10
37.679962
 20
0.170688
 30
0.000000
 40
1.849590
 50
10.255974
 51
95.255974
  0
ARC
  8
layer 4
 10
36.773229
 20
8.218172
 30
0.000000
 40
1.849590
 50
277.601169
 51
2.601169
  0
ARC
  8
layer 4
 10
25.635233
 20
0.038905
 30
0.000000
 40
0.636423
 50
103.504686
 51
183.504686
  0
ARC
  8
layer 4
 10
0.038905
 20
25.635233
 30
0.000000
 40
0.636423
 50
266.495314
 51
346.495314
  0
ARC
  8
layer 4
 10
24.983847
 20
5.742305
 30
0.000000
 40
0.636423
 50
116.361828
 51
196.361828
  0
ARC
  8
layer 4
 10
23.079666
 20
11.157762
 30
0.000000
 40
0.636423
 50
129.218971
 51
209.218971
  0
ARC
  8
layer 4
 10
20.018175
 20
16.013723
 30
0.000000
 40
0.636423
 50
142.076114
 51
222.076114
  0
ARC
  8
layer 4
 10
15.952889
 20
20.066688
 30
0.000000
 40
0.636423
 50
154.933257
 51
234.933257
  0
ARC
  8
layer 4
 10
11.087659
 20
23.113427
 30
0.000000
 40
0.636423
 50
167.790400
 51
247.790400
  0
ARC
  8
layer 4
 10
5.666447
 20
25.001161
 30
0.000000
 40
0.636423
 50
180.647543
 51
260.647543
  0
ARC
  8
layer 4
 10
5.742305
 20
24.983847
 30
0.000000
 40
0.636423
 50
253.638172
 51
333.638172
  0
ARC
  8
layer 4
 10
11.157762
 20
23.079666
 30
0.000000
 40
0.636423
 50
240.781029
 51
320.781029
  0
ARC
  8
layer 4
 10
16.013723
 20
20.018175
 30
0.000000
 40
0.636423
 50
227.923886
 51
307.923886
  0
ARC
  8
layer 4
 10
20.066688
 20
15.952889
 30
0.000000
 40
0.636423
 50
215.066743
 51
295.066743
  0
ARC
  8
layer 4
 10
23.113427
 20
11.087659
 30
0.000000
 40
0.636423
 50
202.209600
 51
282.209600
  0
ARC
  8
layer 4
 10
25.001161
 20
5.666447
 30
0.000000
 40
0.636423
 50
189.352457
 51
269.352457
  0
ARC
  8
layer 4
 10
36.697265
 20
8.550988
 30
0.000000
 40
1.849590
 50
23.113117
 51
108.113117
  0
ARC
  8
layer 4
 10
34.022532
 20
16.194939
 30
0.000000
 40
1.849590
 50
290.458312
 51
15.458312
  0
ARC
  8
layer 4
 10
33.874414
 20
16.502507
 30
0.000000
 40
1.849590
 50
35.970260
 51
120.970260
  0
ARC
  8
layer 4
 10
29.565803
 20
23.359623
 30
0.000000
 40
1.849590
 50
303.315454
 51
28.315454
  0
ARC
  8
layer 4
 10
29.352959
 20
23.626521
 30
0.000000
 40
1.849590
 50
48.827403
 51
133.827403
  0
ARC
  8
layer 4
 10
23.626521
 20
29.352959
 30
0.000000
 40
1.849590
 50
316.172597
 51
41.172597
  0
ARC
  8
layer 4
 10
23.359623
 20
29.565803
 30
0.000000
 40
1.849590
 50
61.684546
 51
146.684546
  0
ARC
  8
layer 4
 10
16.502507
 20
33.874414
 30
0.000000
 40
1.849590
 50
329.029740
 51
54.029740
  0
ARC
  8
layer 4
 10
16.194939
 20
34.022532
 30
0.000000
 40
1.849590
 50
74.541688
 51
159.541688
  0
ARC
  8
layer 4
 10
8.550988
 20
36.697265
 30
0.000000
 40
1.849590
 50
341.886883
 51
66.886883
  0
ARC
  8
layer 4
 10
8.218172
 20
36.773229
 30
0.000000
 40
1.849590
 50
87.398831
 51
172.398831
  0
ARC
  8
layer 4
 10
0.170688
 20
37.679962
 30
0.000000
 40
1.849590
 50
354.744026
 51
79.744026
  0
ENDSEC
  0
EOF
