<?xml version="1.0" ?>
<svg xmlns="http://www.w3.org/2000/svg" xmlns:ev="http://www.w3.org/2001/xml-events" xmlns:xlink="http://www.w3.org/1999/xlink" baseProfile="full" height="600px" version="1.1" viewBox="-14.070000000000004 -14.069999999999972 168.14000000000004 168.14" width="600px">
	<defs/>
	<path d="M 1.9721522630525295e-31,2.8421709e-14 L 5.000000000000001,2.8421709e-14" fill="none" stroke="#000000" stroke-width="0.14000000000000004"/>
	<path d="M 5.000000000000001,2.8421709e-14 L 18.246028999999997,2.8421709e-14" fill="none" stroke="#000000" stroke-width="0.14000000000000004"/>
	<path d="M 18.246029,2.8421709e-14 L 19.246028999999997,2.8421709e-14" fill="none" stroke="#000000" stroke-width="0.14000000000000004"/>
	<path d="M 19.246029,2.8421709e-14 L 140.0,2.8421709e-14" fill="none" stroke="#000000" stroke-width="0.14000000000000004"/>
	<path d="M 140.0,2.8421709e-14 L 140.0,140.00000000000003" fill="none" stroke="#000000" stroke-width="0.14000000000000004"/>
	<path d="M 140.00000000000003,140.00000000000003 L 0.0,140.00000000000003" fill="none" stroke="#000000" stroke-width="0.14000000000000004"/>
	<path d="M 8.8817842e-16,140.00000000000003 L 8.8817842e-16,4.999999903142452" fill="none" stroke="#000000" stroke-width="0.14000000000000004"/>
	<path d="M 8.8817842e-16,4.999999903142452 L 8.8817842e-16,2.842170943040401e-14" fill="none" stroke="#000000" stroke-width="0.14000000000000004"/>
	<path d="M 5.0,2.8421708993652644e-14 L 5.0,4.999999903142452" fill="none" stroke="#000000" stroke-width="0.14000000000000004"/>
	<path d="M 5.0,4.999999903142452 L 8.881784197001252e-16,4.999999903142452" fill="none" stroke="#000000" stroke-width="0.14000000000000004"/>
	<path d="M 19.246029,2.8421708999999996e-14 L 19.246029,1.5" fill="none" stroke="#000000" stroke-width="0.14000000000000004"/>
	<path d="M 19.246029,1.5 L 18.246029,1.5" fill="none" stroke="#000000" stroke-width="0.14000000000000004"/>
	<path d="M 18.246029,1.5 L 18.246029,2.842170943040401e-14" fill="none" stroke="#000000" stroke-width="0.14000000000000004"/>
	<path d="M 7.196165,1.5 L 8.196165,1.5" fill="none" stroke="#000000" stroke-width="0.14000000000000004"/>
	<path d="M 8.196165,1.5 L 8.196165,3.0" fill="none" stroke="#000000" stroke-width="0.14000000000000004"/>
	<path d="M 8.196164999999999,3.0 L 7.397660000000001,3.0" fill="none" stroke="#000000" stroke-width="0.14000000000000004"/>
	<path d="M 7.397660000000001,3.0 L 7.196165,3.0" fill="none" stroke="#000000" stroke-width="0.14000000000000004"/>
	<path d="M 7.196165,3.0 L 7.196165,1.5" fill="none" stroke="#000000" stroke-width="0.14000000000000004"/>
	<path d="M 8.196165000000004,3.0 L 8.39766,3.0" fill="none" stroke="#000000" stroke-width="0.14000000000000004"/>
	<path d="M 8.39766,3.0 L 8.39766,4.5" fill="none" stroke="#000000" stroke-width="0.14000000000000004"/>
	<path d="M 8.39766,4.5 L 7.39766,4.5" fill="none" stroke="#000000" stroke-width="0.14000000000000004"/>
	<path d="M 7.39766,4.5 L 7.39766,3.0" fill="none" stroke="#000000" stroke-width="0.14000000000000004"/>
	<path d="M 15.901492,4.5 L 16.901492,4.5" fill="none" stroke="#000000" stroke-width="0.14000000000000004"/>
	<path d="M 16.901492,4.5 L 16.901492,6.0" fill="none" stroke="#000000" stroke-width="0.14000000000000004"/>
	<path d="M 16.901492,6.0 L 15.903417,6.0" fill="none" stroke="#000000" stroke-width="0.14000000000000004"/>
	<path d="M 15.903417,6.0 L 15.901492,6.0" fill="none" stroke="#000000" stroke-width="0.14000000000000004"/>
	<path d="M 15.901492,6.0 L 15.901492,4.5" fill="none" stroke="#000000" stroke-width="0.14000000000000004"/>
	<path d="M 16.901492,6.0 L 16.903417,6.0" fill="none" stroke="#000000" stroke-width="0.14000000000000004"/>
	<path d="M 16.903417,6.0 L 16.903417,7.5" fill="none" stroke="#000000" stroke-width="0.14000000000000004"/>
	<path d="M 16.903417,7.5 L 15.903417,7.5" fill="none" stroke="#000000" stroke-width="0.14000000000000004"/>
	<path d="M 15.903417,7.5 L 15.903417,6.0" fill="none" stroke="#000000" stroke-width="0.14000000000000004"/>
	<path d="M 6.097375,7.5 L 7.097375,7.5" fill="none" stroke="#000000" stroke-width="0.14000000000000004"/>
	<path d="M 7.097375,7.5 L 7.097375,9.0" fill="none" stroke="#000000" stroke-width="0.14000000000000004"/>
	<path d="M 7.097375000000005,9.0 L 6.097375,9.0" fill="none" stroke="#000000" stroke-width="0.14000000000000004"/>
	<path d="M 6.097375,9.0 L 6.097375,7.5" fill="none" stroke="#000000" stroke-width="0.14000000000000004"/>
	<path d="M 12.997617,9.0 L 13.997617,9.0" fill="none" stroke="#000000" stroke-width="0.14000000000000004"/>
	<path d="M 13.997617,9.0 L 13.997617,10.5" fill="none" stroke="#000000" stroke-width="0.14000000000000004"/>
	<path d="M 13.997617,10.5 L 12.997617,10.5" fill="none" stroke="#000000" stroke-width="0.14000000000000004"/>
	<path d="M 12.997617,10.5 L 12.997617,9.0" fill="none" stroke="#000000" stroke-width="0.14000000000000004"/>
	<path d="M 2.962278,10.5 L 3.962278,10.5" fill="none" stroke="#000000" stroke-width="0.14000000000000004"/>
	<path d="M 3.962278,10.5 L 3.962278,12.0" fill="none" stroke="#000000" stroke-width="0.14000000000000004"/>
	<path d="M 3.962278,12.0 L 3.1148910000000023,12.0" fill="none" stroke="#000000" stroke-width="0.14000000000000004"/>
	<path d="M 3.1148910000000023,12.0 L 2.962278,12.0" fill="none" stroke="#000000" stroke-width="0.14000000000000004"/>
	<path d="M 2.962278,12.0 L 2.962278,10.5" fill="none" stroke="#000000" stroke-width="0.14000000000000004"/>
	<path d="M 3.9622780000000026,12.0 L 4.114891,12.0" fill="none" stroke="#000000" stroke-width="0.14000000000000004"/>
	<path d="M 4.114891,12.0 L 4.114891,13.5" fill="none" stroke="#000000" stroke-width="0.14000000000000004"/>
	<path d="M 4.114891,13.5 L 3.114891,13.5" fill="none" stroke="#000000" stroke-width="0.14000000000000004"/>
	<path d="M 3.114891,13.5 L 3.114891,12.0" fill="none" stroke="#000000" stroke-width="0.14000000000000004"/>
	<path d="M 16.939794,13.5 L 17.939794,13.5" fill="none" stroke="#000000" stroke-width="0.14000000000000004"/>
	<path d="M 17.939794,13.5 L 17.939794,15.0" fill="none" stroke="#000000" stroke-width="0.14000000000000004"/>
	<path d="M 17.939794000000017,15.0 L 16.939794,15.0" fill="none" stroke="#000000" stroke-width="0.14000000000000004"/>
	<path d="M 16.939794,15.0 L 16.939794,13.5" fill="none" stroke="#000000" stroke-width="0.14000000000000004"/>
</svg>
