<?xml version="1.0" ?>
<svg xmlns="http://www.w3.org/2000/svg" xmlns:ev="http://www.w3.org/2001/xml-events" xmlns:xlink="http://www.w3.org/1999/xlink" baseProfile="full" height="600px" version="1.1" viewBox="-14.070000000000004 -14.069999999999972 168.14000000000004 168.14" width="600px">
	<defs/>
	<path d="M 1.9721522630525295e-31,2.8421709e-14 L 5.000000000000001,2.8421709e-14" fill="none" stroke="#000000" stroke-width="0.14000000000000004"/>
	<path d="M 5.000000000000001,2.8421709e-14 L 17.985977000000002,2.8421709e-14" fill="none" stroke="#000000" stroke-width="0.14000000000000004"/>
	<path d="M 17.985977000000002,2.8421709e-14 L 18.985977,2.8421709e-14" fill="none" stroke="#000000" stroke-width="0.14000000000000004"/>
	<path d="M 18.985977000000002,2.8421709e-14 L 140.0,2.8421709e-14" fill="none" stroke="#000000" stroke-width="0.14000000000000004"/>
	<path d="M 140.0,2.8421709e-14 L 140.0,140.00000000000003" fill="none" stroke="#000000" stroke-width="0.14000000000000004"/>
	<path d="M 140.00000000000003,140.00000000000003 L 0.0,140.00000000000003" fill="none" stroke="#000000" stroke-width="0.14000000000000004"/>
	<path d="M 8.8817842e-16,140.00000000000003 L 8.8817842e-16,4.999999903142452" fill="none" stroke="#000000" stroke-width="0.14000000000000004"/>
	<path d="M 8.8817842e-16,4.999999903142452 L 8.8817842e-16,2.842170943040401e-14" fill="none" stroke="#000000" stroke-width="0.14000000000000004"/>
	<path d="M 5.0,2.8421708993652644e-14 L 5.0,4.999999903142452" fill="none" stroke="#000000" stroke-width="0.14000000000000004"/>
	<path d="M 5.0,4.999999903142452 L 8.881784197001252e-16,4.999999903142452" fill="none" stroke="#000000" stroke-width="0.14000000000000004"/>
	<path d="M 18.985977,2.8421708999999996e-14 L 18.985977,1.5" fill="none" stroke="#000000" stroke-width="0.14000000000000004"/>
	<path d="M 18.985977,1.5 L 17.985977,1.5" fill="none" stroke="#000000" stroke-width="0.14000000000000004"/>
	<path d="M 17.985977,1.5 L 17.985977,2.842170943040401e-14" fill="none" stroke="#000000" stroke-width="0.14000000000000004"/>
	<path d="M 14.901638,1.5 L 15.901638,1.5" fill="none" stroke="#000000" stroke-width="0.14000000000000004"/>
	<path d="M 15.901638,1.5 L 15.901638,3.0" fill="none" stroke="#000000" stroke-width="0.14000000000000004"/>
	<path d="M 15.901638,3.0 L 14.927641000000003,3.0" fill="none" stroke="#000000" stroke-width="0.14000000000000004"/>
	<path d="M 14.927641000000003,3.0 L 14.901638,3.0" fill="none" stroke="#000000" stroke-width="0.14000000000000004"/>
	<path d="M 14.901638,3.0 L 14.901638,1.5" fill="none" stroke="#000000" stroke-width="0.14000000000000004"/>
	<path d="M 13.927641,3.0 L 14.901638000000002,3.0" fill="none" stroke="#000000" stroke-width="0.14000000000000004"/>
	<path d="M 14.927641,3.0 L 14.927641,4.5" fill="none" stroke="#000000" stroke-width="0.14000000000000004"/>
	<path d="M 14.927641,4.5 L 13.927641,4.5" fill="none" stroke="#000000" stroke-width="0.14000000000000004"/>
	<path d="M 13.927641,4.5 L 13.927641,3.0" fill="none" stroke="#000000" stroke-width="0.14000000000000004"/>
	<path d="M 19.951646,4.5 L 20.951646,4.5" fill="none" stroke="#000000" stroke-width="0.14000000000000004"/>
	<path d="M 20.951646,4.5 L 20.951646,6.0" fill="none" stroke="#000000" stroke-width="0.14000000000000004"/>
	<path d="M 20.951646,6.0 L 19.951646,6.0" fill="none" stroke="#000000" stroke-width="0.14000000000000004"/>
	<path d="M 19.951646,6.0 L 19.951646,4.5" fill="none" stroke="#000000" stroke-width="0.14000000000000004"/>
	<path d="M 3.168015,6.0 L 4.168015,6.0" fill="none" stroke="#000000" stroke-width="0.14000000000000004"/>
	<path d="M 4.168015,6.0 L 4.168015,7.5" fill="none" stroke="#000000" stroke-width="0.14000000000000004"/>
	<path d="M 4.168015,7.5 L 3.168015,7.5" fill="none" stroke="#000000" stroke-width="0.14000000000000004"/>
	<path d="M 3.168015,7.5 L 3.168015,6.0" fill="none" stroke="#000000" stroke-width="0.14000000000000004"/>
	<path d="M 5.436239,7.5 L 6.436239,7.5" fill="none" stroke="#000000" stroke-width="0.14000000000000004"/>
	<path d="M 6.436239,7.5 L 6.436239,9.0" fill="none" stroke="#000000" stroke-width="0.14000000000000004"/>
	<path d="M 6.436238999999995,9.0 L 5.436239,9.0" fill="none" stroke="#000000" stroke-width="0.14000000000000004"/>
	<path d="M 5.436239,9.0 L 5.436239,7.5" fill="none" stroke="#000000" stroke-width="0.14000000000000004"/>
	<path d="M 20.409513,9.0 L 21.409513,9.0" fill="none" stroke="#000000" stroke-width="0.14000000000000004"/>
	<path d="M 21.409513,9.0 L 21.409513,10.5" fill="none" stroke="#000000" stroke-width="0.14000000000000004"/>
	<path d="M 21.409512999999983,10.5 L 20.409513,10.5" fill="none" stroke="#000000" stroke-width="0.14000000000000004"/>
	<path d="M 20.409513,10.5 L 20.409513,9.0" fill="none" stroke="#000000" stroke-width="0.14000000000000004"/>
	<path d="M 7.790303,10.5 L 8.790303,10.5" fill="none" stroke="#000000" stroke-width="0.14000000000000004"/>
	<path d="M 8.790303,10.5 L 8.790303,12.0" fill="none" stroke="#000000" stroke-width="0.14000000000000004"/>
	<path d="M 8.790303,12.0 L 8.662455,12.0" fill="none" stroke="#000000" stroke-width="0.14000000000000004"/>
	<path d="M 8.662455,12.0 L 7.790303,12.0" fill="none" stroke="#000000" stroke-width="0.14000000000000004"/>
	<path d="M 7.790303,12.0 L 7.790303,10.5" fill="none" stroke="#000000" stroke-width="0.14000000000000004"/>
	<path d="M 7.662455,12.0 L 7.790303,12.0" fill="none" stroke="#000000" stroke-width="0.14000000000000004"/>
	<path d="M 8.662455,12.0 L 8.662455,13.5" fill="none" stroke="#000000" stroke-width="0.14000000000000004"/>
	<path d="M 8.662455,13.5 L 7.662455,13.5" fill="none" stroke="#000000" stroke-width="0.14000000000000004"/>
	<path d="M 7.662455,13.5 L 7.662455,12.0" fill="none" stroke="#000000" stroke-width="0.14000000000000004"/>
	<path d="M 9.266665,13.5 L 10.266665,13.5" fill="none" stroke="#000000" stroke-width="0.14000000000000004"/>
	<path d="M 10.266665,13.5 L 10.266665,15.0" fill="none" stroke="#000000" stroke-width="0.14000000000000004"/>
	<path d="M 10.266665,15.0 L 9.266665,15.0" fill="none" stroke="#000000" stroke-width="0.14000000000000004"/>
	<path d="M 9.266665,15.0 L 9.266665,13.5" fill="none" stroke="#000000" stroke-width="0.14000000000000004"/>
</svg>
