<?xml version="1.0" ?>
<svg xmlns="http://www.w3.org/2000/svg" xmlns:ev="http://www.w3.org/2001/xml-events" xmlns:xlink="http://www.w3.org/1999/xlink" baseProfile="full" height="600px" version="1.1" viewBox="-14.070000000000004 -14.069999999999972 168.14000000000004 168.14" width="600px">
	<defs/>
	<path d="M 1.9721522630525295e-31,2.8421709e-14 L 5.000000000000001,2.8421709e-14" fill="none" stroke="#000000" stroke-width="0.14000000000000004"/>
	<path d="M 5.000000000000001,2.8421709e-14 L 10.284984,2.8421709e-14" fill="none" stroke="#000000" stroke-width="0.14000000000000004"/>
	<path d="M 10.284984,2.8421709e-14 L 11.284984,2.8421709e-14" fill="none" stroke="#000000" stroke-width="0.14000000000000004"/>
	<path d="M 11.284984,2.8421709e-14 L 140.0,2.8421709e-14" fill="none" stroke="#000000" stroke-width="0.14000000000000004"/>
	<path d="M 140.0,2.8421709e-14 L 140.0,140.00000000000003" fill="none" stroke="#000000" stroke-width="0.14000000000000004"/>
	<path d="M 140.00000000000003,140.00000000000003 L 0.0,140.00000000000003" fill="none" stroke="#000000" stroke-width="0.14000000000000004"/>
	<path d="M 8.8817842e-16,140.00000000000003 L 8.8817842e-16,4.999999903142452" fill="none" stroke="#000000" stroke-width="0.14000000000000004"/>
	<path d="M 8.8817842e-16,4.999999903142452 L 8.8817842e-16,2.842170943040401e-14" fill="none" stroke="#000000" stroke-width="0.14000000000000004"/>
	<path d="M 5.0,2.8421708993652644e-14 L 5.0,4.999999903142452" fill="none" stroke="#000000" stroke-width="0.14000000000000004"/>
	<path d="M 5.0,4.999999903142452 L 8.881784197001252e-16,4.999999903142452" fill="none" stroke="#000000" stroke-width="0.14000000000000004"/>
	<path d="M 11.284984,2.8421708999999996e-14 L 11.284984,1.5" fill="none" stroke="#000000" stroke-width="0.14000000000000004"/>
	<path d="M 11.284984,1.5 L 10.284984,1.5" fill="none" stroke="#000000" stroke-width="0.14000000000000004"/>
	<path d="M 10.284984,1.5 L 10.284984,2.842170943040401e-14" fill="none" stroke="#000000" stroke-width="0.14000000000000004"/>
	<path d="M 17.570927,1.5 L 18.570927,1.5" fill="none" stroke="#000000" stroke-width="0.14000000000000004"/>
	<path d="M 18.570927,1.5 L 18.570927,3.0" fill="none" stroke="#000000" stroke-width="0.14000000000000004"/>
	<path d="M 18.570927,3.0 L 17.570927,3.0" fill="none" stroke="#000000" stroke-width="0.14000000000000004"/>
	<path d="M 17.570927,3.0 L 17.570927,1.5" fill="none" stroke="#000000" stroke-width="0.14000000000000004"/>
	<path d="M 10.689856,3.0 L 11.689856,3.0" fill="none" stroke="#000000" stroke-width="0.14000000000000004"/>
	<path d="M 11.689856,3.0 L 11.689856,4.5" fill="none" stroke="#000000" stroke-width="0.14000000000000004"/>
	<path d="M 11.689856,4.5 L 10.889523000000006,4.5" fill="none" stroke="#000000" stroke-width="0.14000000000000004"/>
	<path d="M 10.889523000000006,4.5 L 10.689856,4.5" fill="none" stroke="#000000" stroke-width="0.14000000000000004"/>
	<path d="M 10.689856,4.5 L 10.689856,3.0" fill="none" stroke="#000000" stroke-width="0.14000000000000004"/>
	<path d="M 11.689856000000004,4.5 L 11.889523,4.5" fill="none" stroke="#000000" stroke-width="0.14000000000000004"/>
	<path d="M 11.889523,4.5 L 11.889523,6.0" fill="none" stroke="#000000" stroke-width="0.14000000000000004"/>
	<path d="M 11.889523,6.0 L 10.889523,6.0" fill="none" stroke="#000000" stroke-width="0.14000000000000004"/>
	<path d="M 10.889523,6.0 L 10.889523,4.5" fill="none" stroke="#000000" stroke-width="0.14000000000000004"/>
	<path d="M 4.322068,6.0 L 5.322068,6.0" fill="none" stroke="#000000" stroke-width="0.14000000000000004"/>
	<path d="M 5.322068,6.0 L 5.322068,7.5" fill="none" stroke="#000000" stroke-width="0.14000000000000004"/>
	<path d="M 5.322067999999997,7.5 L 4.402739999999997,7.5" fill="none" stroke="#000000" stroke-width="0.14000000000000004"/>
	<path d="M 4.402739999999997,7.5 L 4.322068,7.5" fill="none" stroke="#000000" stroke-width="0.14000000000000004"/>
	<path d="M 4.322068,7.5 L 4.322068,6.0" fill="none" stroke="#000000" stroke-width="0.14000000000000004"/>
	<path d="M 3.40274,7.5 L 4.322068,7.5" fill="none" stroke="#000000" stroke-width="0.14000000000000004"/>
	<path d="M 4.40274,7.5 L 4.40274,9.0" fill="none" stroke="#000000" stroke-width="0.14000000000000004"/>
	<path d="M 4.40274,9.0 L 3.473232999999997,9.0" fill="none" stroke="#000000" stroke-width="0.14000000000000004"/>
	<path d="M 3.473232999999997,9.0 L 3.40274,9.0" fill="none" stroke="#000000" stroke-width="0.14000000000000004"/>
	<path d="M 3.40274,9.0 L 3.40274,7.5" fill="none" stroke="#000000" stroke-width="0.14000000000000004"/>
	<path d="M 2.473233,9.0 L 3.4027399999999988,9.0" fill="none" stroke="#000000" stroke-width="0.14000000000000004"/>
	<path d="M 3.473233,9.0 L 3.473233,10.5" fill="none" stroke="#000000" stroke-width="0.14000000000000004"/>
	<path d="M 3.473232999999998,10.5 L 2.473233,10.5" fill="none" stroke="#000000" stroke-width="0.14000000000000004"/>
	<path d="M 2.473233,10.5 L 2.473233,9.0" fill="none" stroke="#000000" stroke-width="0.14000000000000004"/>
	<path d="M 9.590945,10.5 L 10.590945,10.5" fill="none" stroke="#000000" stroke-width="0.14000000000000004"/>
	<path d="M 10.590945,10.5 L 10.590945,12.0" fill="none" stroke="#000000" stroke-width="0.14000000000000004"/>
	<path d="M 10.590945000000008,12.0 L 9.590945,12.0" fill="none" stroke="#000000" stroke-width="0.14000000000000004"/>
	<path d="M 9.590945,12.0 L 9.590945,10.5" fill="none" stroke="#000000" stroke-width="0.14000000000000004"/>
	<path d="M 5.303384,12.0 L 6.303384,12.0" fill="none" stroke="#000000" stroke-width="0.14000000000000004"/>
	<path d="M 6.303384,12.0 L 6.303384,13.5" fill="none" stroke="#000000" stroke-width="0.14000000000000004"/>
	<path d="M 6.303384,13.5 L 5.303384,13.5" fill="none" stroke="#000000" stroke-width="0.14000000000000004"/>
	<path d="M 5.303384,13.5 L 5.303384,12.0" fill="none" stroke="#000000" stroke-width="0.14000000000000004"/>
	<path d="M 12.824939,13.5 L 13.824939,13.5" fill="none" stroke="#000000" stroke-width="0.14000000000000004"/>
	<path d="M 13.824939,13.5 L 13.824939,15.0" fill="none" stroke="#000000" stroke-width="0.14000000000000004"/>
	<path d="M 13.824939,15.0 L 12.824939,15.0" fill="none" stroke="#000000" stroke-width="0.14000000000000004"/>
	<path d="M 12.824939,15.0 L 12.824939,13.5" fill="none" stroke="#000000" stroke-width="0.14000000000000004"/>
</svg>
