<?xml version="1.0" encoding="UTF-8" standalone="no"?>
<svg
   version="1.1"
   id="Capa_1"
   x="0px"
   y="0px"
   viewBox="0 0 445.953 445.953"
   style="enable-background:new 0 0 445.953 445.953;"
   xml:space="preserve"
   sodipodi:docname="owl-shape_cleaned.svg"
   inkscape:version="1.1 (1:1.1+202105261517+ce6663b3b7)"
   xmlns:inkscape="http://www.inkscape.org/namespaces/inkscape"
   xmlns:sodipodi="http://sodipodi.sourceforge.net/DTD/sodipodi-0.dtd"
   xmlns="http://www.w3.org/2000/svg"
   xmlns:svg="http://www.w3.org/2000/svg"
   xmlns:rdf="http://www.w3.org/1999/02/22-rdf-syntax-ns#"
   xmlns:cc="http://creativecommons.org/ns#"
   xmlns:dc="http://purl.org/dc/elements/1.1/"><metadata
   id="metadata49"><rdf:RDF><cc:Work
       rdf:about=""><dc:format>image/svg+xml</dc:format><dc:type
         rdf:resource="http://purl.org/dc/dcmitype/StillImage" /></cc:Work></rdf:RDF></metadata><defs
   id="defs47" /><sodipodi:namedview
   pagecolor="#ffffff"
   bordercolor="#666666"
   borderopacity="1"
   objecttolerance="10"
   gridtolerance="10"
   guidetolerance="10"
   inkscape:pageopacity="0"
   inkscape:pageshadow="2"
   inkscape:window-width="1848"
   inkscape:window-height="1016"
   id="namedview45"
   showgrid="false"
   inkscape:zoom="43.737419"
   inkscape:cx="339.83487"
   inkscape:cy="168.76853"
   inkscape:window-x="72"
   inkscape:window-y="27"
   inkscape:window-maximized="1"
   inkscape:current-layer="Capa_1"
   inkscape:pagecheckerboard="0" />
<path
   style="fill:none;stroke:#000000;stroke-opacity:1"
   d="m 329.64327,34.144531 c -12.80567,16.419808 -25.58073,32.865063 -38.40552,49.268978 -0.98364,1.152398 -2.59319,0.956465 -3.94487,0.951725 -46.79399,-0.0039 -93.58816,0.0078 -140.38203,-0.0059 -1.39,-0.02402 -2.28586,-1.18741 -3.01575,-2.216919 -13.65699,-17.529156 -27.3128,-35.059228 -40.97058,-52.587768 -0.007,46.641359 0.0137,93.283423 -0.0103,139.924343 -0.0218,1.74935 -1.76246,3.08421 -3.458052,2.86401 -7.13769,0.0492 -14.54279,1.22609 -20.66237,5.11576 -5.26031,3.28022 -8.98119,8.57935 -11.16603,14.30834 -3.06073,7.95428 -3.83563,16.57511 -3.86363,25.03481 -0.0246,8.7299 0.93732,17.47884 3.16013,25.9301 3.67492,14.132 10.32743,27.53795 19.64673,38.80115 5.24771,6.23866 11.35324,11.96419 18.687502,15.65821 1.98222,0.94019 4.01126,1.77786 6.01368,2.67382 -2.14232,-5.93407 -4.22139,-11.89828 -5.81929,-18.00616 -2.12176,-7.91312 -3.71942,-15.96036 -4.94829,-24.05829 -1.204252,-8.00716 -2.068512,-16.25054 -2.626932,-24.3996 -0.2864,-4.05896 -0.48709,-8.08783 -0.64793,-12.21011 -0.19586,-5.64953 -0.32437,-11.35631 -0.28766,-17.05121 0.0801,-1.96892 2.37938,-3.34994 4.160172,-2.51486 1.34634,0.53434 1.99197,2.04426 1.82711,3.42421 0.0531,19.67381 1.13046,39.41187 4.57328,58.80626 3.00255,16.68684 7.80308,33.25995 16.20287,48.07962 6.37793,11.28652 15.06001,21.35673 25.72521,28.78646 12.27275,8.64926 26.79291,13.6476 41.53221,16.0381 12.73876,2.07671 25.71276,2.41834 38.58525,1.73775 14.90443,-0.85789 29.90215,-3.52816 43.57499,-9.71228 10.89657,-4.8793 20.71406,-12.14811 28.51229,-21.19332 9.88383,-11.3685 16.55278,-25.18636 21.09269,-39.4636 5.57794,-17.63586 8.21065,-36.06299 9.5262,-54.46869 0.69635,-9.82028 0.93793,-19.66706 0.9803,-29.50991 0.0727,-1.97314 2.37663,-3.36154 4.16057,-2.5246 1.3838,0.54632 2.00581,2.10927 1.82182,3.51445 -0.0178,10.35175 -0.34744,20.5965 -1.13262,30.89767 -0.26198,3.49409 -0.58266,6.89468 -0.95287,10.39257 -1.76433,16.09225 -4.75378,32.30554 -10.11243,47.68517 -0.67127,1.91274 -1.34172,3.82577 -2.01257,5.73866 3.52421,-1.57006 7.14326,-3.0008 10.33937,-5.20022 7.74473,-5.16112 14.05578,-12.21382 19.32401,-19.82798 10.93107,-16.00886 17.27195,-35.18593 17.65802,-54.59207 0.21941,-8.81004 -0.28371,-17.78345 -3.00638,-26.22338 -1.98243,-6.15151 -5.48243,-12.03505 -10.85016,-15.79756 -5.79722,-4.13584 -13.03559,-5.54434 -20.03604,-5.83358 -1.46888,-0.0607 -5.06682,-3.92578 -5.21398,-5.46037 -4.37075,-45.57946 0,-137.365627 0,-137.365627 -1.1927,1.530599 -2.38541,3.061198 -3.57812,4.591797 z"
   sodipodi:nodetypes="cccccccccccccccccccccccccccccccccccccccccccssccc"
   id="path10" />
<g
   id="g14">
</g>
<g
   id="g16">
</g>
<g
   id="g18">
</g>
<g
   id="g20">
</g>
<g
   id="g22">
</g>
<g
   id="g24">
</g>
<g
   id="g26">
</g>
<g
   id="g28">
</g>
<g
   id="g30">
</g>
<g
   id="g32">
</g>
<g
   id="g34">
</g>
<g
   id="g36">
</g>
<g
   id="g38">
</g>
<g
   id="g40">
</g>
<g
   id="g42">
</g>
</svg>
