<?xml version="1.0" encoding="UTF-8" standalone="no"?>
<svg
   xmlns:dc="http://purl.org/dc/elements/1.1/"
   xmlns:cc="http://creativecommons.org/ns#"
   xmlns:rdf="http://www.w3.org/1999/02/22-rdf-syntax-ns#"
   xmlns:svg="http://www.w3.org/2000/svg"
   xmlns="http://www.w3.org/2000/svg"
   xml:space="preserve"
   style="enable-background:new 0 0 445.953 445.953;"
   viewBox="0 0 445.953 445.953"
   y="0px"
   x="0px"
   id="Capa_1"
   version="1.1"><metadata
   id="metadata49"><rdf:RDF><cc:Work
       rdf:about=""><dc:format>image/svg+xml</dc:format><dc:type
         rdf:resource="http://purl.org/dc/dcmitype/StillImage" /><dc:title></dc:title></cc:Work></rdf:RDF></metadata><defs
   id="defs47" />

<g
   id="g14">
</g>
<g
   id="g16">
</g>
<g
   id="g18">
</g>
<g
   id="g20">
</g>
<g
   id="g22">
</g>
<g
   id="g24">
</g>
<g
   id="g26">
</g>
<g
   id="g28">
</g>
<g
   id="g30">
</g>
<g
   id="g32">
</g>
<g
   id="g34">
</g>
<g
   id="g36">
</g>
<g
   id="g38">
</g>
<g
   id="g40">
</g>
<g
   id="g42">
</g>
<path
   id="path827"
   d="m 101.25845,36.80051 39.06025,50.666477 h 147.42525 l 39.8115,-50.665477 -0.30299,138.09632 c 9.82594,-0.61725 19.3155,1.12023 28.1681,7.3164 5.72157,5.80817 8.66513,12.72755 9.5113,20.48589 5.36067,27.35204 -2.06736,46.17829 -10.97458,64.01841 -7.44962,16.80115 -18.53709,23.41635 -29.32083,30.88198 8.75137,-26.53766 14.22899,-60.82774 12.29722,-94.13642 -1.31164,-2.65503 -2.68335,-2.42752 -4.40821,-2.60321 -0.71469,-0.30874 -4.47652,0.6913 -4.99405,4.37778 -3.21819,36.46806 -7.62302,81.53935 -27.1873,114.08434 -14.20779,21.12753 -32.04659,29.79189 -50.72424,35.57695 -24.27104,3.80983 -48.59271,5.97376 -73.20458,-1.29337 -25.96197,-8.47045 -37.52119,-18.58693 -46.61584,-28.98507 -7.48332,-13.46878 -14.96665,-20.87931 -22.44997,-53.79043 -3.72575,-22.24592 -6.85725,-44.49183 -6.72551,-66.73775 -0.967297,-2.94034 -2.711547,-3.39446 -4.526777,-3.62142 -2.04811,0.20065 -3.93967,1.20365 -5.30281,4.91479 3.66545,77.19936 8.71393,69.34234 13.263067,92.19481 -14.260227,-4.53155 -23.683547,-20.72845 -33.953911,-38.91101 -7.4324,-22.94633 -13.05224,-47.50661 -3.86329,-66.39624 4.40844,-12.26631 15.325714,-15.25299 30.911754,-16.82769 1.73601,-0.2937 4.742047,-0.79614 4.572747,-5.85312 z"
   style="fill:none;stroke:#000000;stroke-width:1px;stroke-linecap:butt;stroke-linejoin:miter;stroke-opacity:1" /></svg>