<?xml version="1.0" ?>
<svg xmlns="http://www.w3.org/2000/svg" xmlns:ev="http://www.w3.org/2001/xml-events" xmlns:xlink="http://www.w3.org/1999/xlink" baseProfile="full" height="600px" version="1.1" viewBox="-14.070000000000004 -14.069999999999972 168.14000000000004 168.14" width="600px">
	<defs/>
	<path d="M 1.9721522630525295e-31,2.8421709e-14 L 5.000000000000001,2.8421709e-14" fill="none" stroke="#000000" stroke-width="0.14000000000000004"/>
	<path d="M 5.000000000000001,2.8421709e-14 L 7.968711,2.8421709e-14" fill="none" stroke="#000000" stroke-width="0.14000000000000004"/>
	<path d="M 7.968711,2.8421709e-14 L 8.968711000000003,2.8421709e-14" fill="none" stroke="#000000" stroke-width="0.14000000000000004"/>
	<path d="M 8.968711000000003,2.8421709e-14 L 140.0,2.8421709e-14" fill="none" stroke="#000000" stroke-width="0.14000000000000004"/>
	<path d="M 140.0,2.8421709e-14 L 140.0,140.00000000000003" fill="none" stroke="#000000" stroke-width="0.14000000000000004"/>
	<path d="M 140.00000000000003,140.00000000000003 L 0.0,140.00000000000003" fill="none" stroke="#000000" stroke-width="0.14000000000000004"/>
	<path d="M 8.8817842e-16,140.00000000000003 L 8.8817842e-16,4.999999903142452" fill="none" stroke="#000000" stroke-width="0.14000000000000004"/>
	<path d="M 8.8817842e-16,4.999999903142452 L 8.8817842e-16,2.842170943040401e-14" fill="none" stroke="#000000" stroke-width="0.14000000000000004"/>
	<path d="M 5.0,2.8421708993652644e-14 L 5.0,4.999999903142452" fill="none" stroke="#000000" stroke-width="0.14000000000000004"/>
	<path d="M 5.0,4.999999903142452 L 8.881784197001252e-16,4.999999903142452" fill="none" stroke="#000000" stroke-width="0.14000000000000004"/>
	<path d="M 8.968711,2.8421708999999996e-14 L 8.968711,1.5" fill="none" stroke="#000000" stroke-width="0.14000000000000004"/>
	<path d="M 8.968711,1.5 L 7.968711,1.5" fill="none" stroke="#000000" stroke-width="0.14000000000000004"/>
	<path d="M 7.968711,1.5 L 7.968711,2.842170943040401e-14" fill="none" stroke="#000000" stroke-width="0.14000000000000004"/>
	<path d="M 16.111834,1.5 L 17.111834,1.5" fill="none" stroke="#000000" stroke-width="0.14000000000000004"/>
	<path d="M 17.111834,1.5 L 17.111834,3.0" fill="none" stroke="#000000" stroke-width="0.14000000000000004"/>
	<path d="M 17.111834000000005,3.0 L 16.111834,3.0" fill="none" stroke="#000000" stroke-width="0.14000000000000004"/>
	<path d="M 16.111834,3.0 L 16.111834,1.5" fill="none" stroke="#000000" stroke-width="0.14000000000000004"/>
	<path d="M 10.131759,3.0 L 11.131759,3.0" fill="none" stroke="#000000" stroke-width="0.14000000000000004"/>
	<path d="M 11.131759,3.0 L 11.131759,4.5" fill="none" stroke="#000000" stroke-width="0.14000000000000004"/>
	<path d="M 11.131758999999995,4.5 L 10.131759,4.5" fill="none" stroke="#000000" stroke-width="0.14000000000000004"/>
	<path d="M 10.131759,4.5 L 10.131759,3.0" fill="none" stroke="#000000" stroke-width="0.14000000000000004"/>
	<path d="M 15.995733,4.5 L 16.995733,4.5" fill="none" stroke="#000000" stroke-width="0.14000000000000004"/>
	<path d="M 16.995733,4.5 L 16.995733,6.0" fill="none" stroke="#000000" stroke-width="0.14000000000000004"/>
	<path d="M 16.995733,6.0 L 15.995733,6.0" fill="none" stroke="#000000" stroke-width="0.14000000000000004"/>
	<path d="M 15.995733,6.0 L 15.995733,4.5" fill="none" stroke="#000000" stroke-width="0.14000000000000004"/>
	<path d="M 13.986035,6.0 L 14.986035,6.0" fill="none" stroke="#000000" stroke-width="0.14000000000000004"/>
	<path d="M 14.986035,6.0 L 14.986035,7.5" fill="none" stroke="#000000" stroke-width="0.14000000000000004"/>
	<path d="M 14.98603499999999,7.5 L 13.986035,7.5" fill="none" stroke="#000000" stroke-width="0.14000000000000004"/>
	<path d="M 13.986035,7.5 L 13.986035,6.0" fill="none" stroke="#000000" stroke-width="0.14000000000000004"/>
	<path d="M 6.60989,7.5 L 7.60989,7.5" fill="none" stroke="#000000" stroke-width="0.14000000000000004"/>
	<path d="M 7.60989,7.5 L 7.60989,9.0" fill="none" stroke="#000000" stroke-width="0.14000000000000004"/>
	<path d="M 7.60989,9.0 L 6.60989,9.0" fill="none" stroke="#000000" stroke-width="0.14000000000000004"/>
	<path d="M 6.60989,9.0 L 6.60989,7.5" fill="none" stroke="#000000" stroke-width="0.14000000000000004"/>
	<path d="M 16.074032,9.0 L 17.074032,9.0" fill="none" stroke="#000000" stroke-width="0.14000000000000004"/>
	<path d="M 17.074032,9.0 L 17.074032,10.5" fill="none" stroke="#000000" stroke-width="0.14000000000000004"/>
	<path d="M 17.074032,10.5 L 16.633801000000016,10.5" fill="none" stroke="#000000" stroke-width="0.14000000000000004"/>
	<path d="M 16.633801000000016,10.5 L 16.074032,10.5" fill="none" stroke="#000000" stroke-width="0.14000000000000004"/>
	<path d="M 16.074032,10.5 L 16.074032,9.0" fill="none" stroke="#000000" stroke-width="0.14000000000000004"/>
	<path d="M 17.07403200000002,10.5 L 17.633801,10.5" fill="none" stroke="#000000" stroke-width="0.14000000000000004"/>
	<path d="M 17.633801,10.5 L 17.633801,12.0" fill="none" stroke="#000000" stroke-width="0.14000000000000004"/>
	<path d="M 17.633801,12.0 L 16.633801,12.0" fill="none" stroke="#000000" stroke-width="0.14000000000000004"/>
	<path d="M 16.633801,12.0 L 16.633801,10.5" fill="none" stroke="#000000" stroke-width="0.14000000000000004"/>
	<path d="M 18.454939,12.0 L 19.454939,12.0" fill="none" stroke="#000000" stroke-width="0.14000000000000004"/>
	<path d="M 19.454939,12.0 L 19.454939,13.5" fill="none" stroke="#000000" stroke-width="0.14000000000000004"/>
	<path d="M 19.454939,13.5 L 18.454939,13.5" fill="none" stroke="#000000" stroke-width="0.14000000000000004"/>
	<path d="M 18.454939,13.5 L 18.454939,12.0" fill="none" stroke="#000000" stroke-width="0.14000000000000004"/>
	<path d="M 5.02798,13.5 L 6.02798,13.5" fill="none" stroke="#000000" stroke-width="0.14000000000000004"/>
	<path d="M 6.02798,13.5 L 6.02798,15.0" fill="none" stroke="#000000" stroke-width="0.14000000000000004"/>
	<path d="M 6.02798,15.0 L 5.02798,15.0" fill="none" stroke="#000000" stroke-width="0.14000000000000004"/>
	<path d="M 5.02798,15.0 L 5.02798,13.5" fill="none" stroke="#000000" stroke-width="0.14000000000000004"/>
</svg>
