<?xml version="1.0" ?>
<svg xmlns="http://www.w3.org/2000/svg" xmlns:ev="http://www.w3.org/2001/xml-events" xmlns:xlink="http://www.w3.org/1999/xlink" baseProfile="full" height="600px" version="1.1" viewBox="-14.070000000000004 -14.069999999999972 168.14000000000004 168.14" width="600px">
	<defs/>
	<path d="M 1.9721522630525295e-31,2.8421709e-14 L 5.000000000000001,2.8421709e-14" fill="none" stroke="#000000" stroke-width="0.14000000000000004"/>
	<path d="M 5.000000000000001,2.8421709e-14 L 18.915341,2.8421709e-14" fill="none" stroke="#000000" stroke-width="0.14000000000000004"/>
	<path d="M 18.915341,2.8421709e-14 L 19.915341,2.8421709e-14" fill="none" stroke="#000000" stroke-width="0.14000000000000004"/>
	<path d="M 19.915341,2.8421709e-14 L 140.0,2.8421709e-14" fill="none" stroke="#000000" stroke-width="0.14000000000000004"/>
	<path d="M 140.0,2.8421709e-14 L 140.0,140.00000000000003" fill="none" stroke="#000000" stroke-width="0.14000000000000004"/>
	<path d="M 140.00000000000003,140.00000000000003 L 0.0,140.00000000000003" fill="none" stroke="#000000" stroke-width="0.14000000000000004"/>
	<path d="M 8.8817842e-16,140.00000000000003 L 8.8817842e-16,4.999999903142452" fill="none" stroke="#000000" stroke-width="0.14000000000000004"/>
	<path d="M 8.8817842e-16,4.999999903142452 L 8.8817842e-16,2.842170943040401e-14" fill="none" stroke="#000000" stroke-width="0.14000000000000004"/>
	<path d="M 5.0,2.8421708993652644e-14 L 5.0,4.999999903142452" fill="none" stroke="#000000" stroke-width="0.14000000000000004"/>
	<path d="M 5.0,4.999999903142452 L 8.881784197001252e-16,4.999999903142452" fill="none" stroke="#000000" stroke-width="0.14000000000000004"/>
	<path d="M 19.915341,2.8421708999999996e-14 L 19.915341,1.5" fill="none" stroke="#000000" stroke-width="0.14000000000000004"/>
	<path d="M 19.915341,1.5 L 18.915341,1.5" fill="none" stroke="#000000" stroke-width="0.14000000000000004"/>
	<path d="M 18.915341,1.5 L 18.915341,2.842170943040401e-14" fill="none" stroke="#000000" stroke-width="0.14000000000000004"/>
	<path d="M 10.57439,1.5 L 11.57439,1.5" fill="none" stroke="#000000" stroke-width="0.14000000000000004"/>
	<path d="M 11.57439,1.5 L 11.57439,3.0" fill="none" stroke="#000000" stroke-width="0.14000000000000004"/>
	<path d="M 11.57439,3.0 L 10.57439,3.0" fill="none" stroke="#000000" stroke-width="0.14000000000000004"/>
	<path d="M 10.57439,3.0 L 10.57439,1.5" fill="none" stroke="#000000" stroke-width="0.14000000000000004"/>
	<path d="M 14.072974,3.0 L 15.072974,3.0" fill="none" stroke="#000000" stroke-width="0.14000000000000004"/>
	<path d="M 15.072974,3.0 L 15.072974,4.5" fill="none" stroke="#000000" stroke-width="0.14000000000000004"/>
	<path d="M 15.072973999999995,4.5 L 14.072974,4.5" fill="none" stroke="#000000" stroke-width="0.14000000000000004"/>
	<path d="M 14.072974,4.5 L 14.072974,3.0" fill="none" stroke="#000000" stroke-width="0.14000000000000004"/>
	<path d="M 15.448271,4.5 L 16.448271,4.5" fill="none" stroke="#000000" stroke-width="0.14000000000000004"/>
	<path d="M 16.448271,4.5 L 16.448271,6.0" fill="none" stroke="#000000" stroke-width="0.14000000000000004"/>
	<path d="M 16.448271,6.0 L 15.448271,6.0" fill="none" stroke="#000000" stroke-width="0.14000000000000004"/>
	<path d="M 15.448271,6.0 L 15.448271,4.5" fill="none" stroke="#000000" stroke-width="0.14000000000000004"/>
	<path d="M 9.593878,6.0 L 10.593878,6.0" fill="none" stroke="#000000" stroke-width="0.14000000000000004"/>
	<path d="M 10.593878,6.0 L 10.593878,7.5" fill="none" stroke="#000000" stroke-width="0.14000000000000004"/>
	<path d="M 10.593877999999995,7.5 L 9.593878,7.5" fill="none" stroke="#000000" stroke-width="0.14000000000000004"/>
	<path d="M 9.593878,7.5 L 9.593878,6.0" fill="none" stroke="#000000" stroke-width="0.14000000000000004"/>
	<path d="M 13.445599,7.5 L 14.445599,7.5" fill="none" stroke="#000000" stroke-width="0.14000000000000004"/>
	<path d="M 14.445599,7.5 L 14.445599,9.0" fill="none" stroke="#000000" stroke-width="0.14000000000000004"/>
	<path d="M 14.445599,9.0 L 13.614135000000017,9.0" fill="none" stroke="#000000" stroke-width="0.14000000000000004"/>
	<path d="M 13.614135000000017,9.0 L 13.445599,9.0" fill="none" stroke="#000000" stroke-width="0.14000000000000004"/>
	<path d="M 13.445599,9.0 L 13.445599,7.5" fill="none" stroke="#000000" stroke-width="0.14000000000000004"/>
	<path d="M 12.614135,9.0 L 13.44559899999999,9.0" fill="none" stroke="#000000" stroke-width="0.14000000000000004"/>
	<path d="M 13.614135,9.0 L 13.614135,10.5" fill="none" stroke="#000000" stroke-width="0.14000000000000004"/>
	<path d="M 13.614135000000008,10.5 L 12.614135,10.5" fill="none" stroke="#000000" stroke-width="0.14000000000000004"/>
	<path d="M 12.614135,10.5 L 12.614135,9.0" fill="none" stroke="#000000" stroke-width="0.14000000000000004"/>
	<path d="M 15.572719,10.5 L 16.572719,10.5" fill="none" stroke="#000000" stroke-width="0.14000000000000004"/>
	<path d="M 16.572719,10.5 L 16.572719,12.0" fill="none" stroke="#000000" stroke-width="0.14000000000000004"/>
	<path d="M 16.572719,12.0 L 15.572719,12.0" fill="none" stroke="#000000" stroke-width="0.14000000000000004"/>
	<path d="M 15.572719,12.0 L 15.572719,10.5" fill="none" stroke="#000000" stroke-width="0.14000000000000004"/>
	<path d="M 6.656454,12.0 L 7.656454,12.0" fill="none" stroke="#000000" stroke-width="0.14000000000000004"/>
	<path d="M 7.656454,12.0 L 7.656454,13.5" fill="none" stroke="#000000" stroke-width="0.14000000000000004"/>
	<path d="M 7.656454,13.5 L 6.656454,13.5" fill="none" stroke="#000000" stroke-width="0.14000000000000004"/>
	<path d="M 6.656454,13.5 L 6.656454,12.0" fill="none" stroke="#000000" stroke-width="0.14000000000000004"/>
	<path d="M 3.598699,13.5 L 4.598699,13.5" fill="none" stroke="#000000" stroke-width="0.14000000000000004"/>
	<path d="M 4.598699,13.5 L 4.598699,15.0" fill="none" stroke="#000000" stroke-width="0.14000000000000004"/>
	<path d="M 4.598699,15.0 L 3.598699,15.0" fill="none" stroke="#000000" stroke-width="0.14000000000000004"/>
	<path d="M 3.598699,15.0 L 3.598699,13.5" fill="none" stroke="#000000" stroke-width="0.14000000000000004"/>
</svg>
