  0
SECTION
  2
HEADER
  9
$INSBASE
 10
0.0000
 20
0.0000
  9
$EXTMIN
 10
-54.832448034022391
 20
47.793395630963396
  9
$EXTMAX
 10
54.832448034022434
 20
137.93047845193595
  9
$LIMMIN
 10
-54.832448034022391
 20
47.793395630963396
  9
$LIMMAX
 10
54.832448034022434
 20
137.93047845193595
  9
$TEXTSTYLE
  7
STANDARD
  9
$CLAYER
  8
default
  0
ENDSEC
  0
SECTION
  2
TABLES
  0
TABLE
  2
LTYPE
 70
4948253
  0
LTYPE
  2
CONTINUOUS
 70
    64
  3
Solid line
 72
    65
 73
     0
 40
0.0
  0
ENDTAB
  0
TABLE
  2
LAYER
 70
     5
  0
LAYER
  2
default
 70
    64
 62
     7
  6
CONTINUOUS
  0
ENDTAB
  0
TABLE
  2
STYLE
 70
     1
  0
STYLE
  2
STANDARD
 70
     0
 40
0.0
 41
1.0
 50
0.0
 71
     0
 42
0.2
  3
txt
  4

  0
ENDTAB
  0
TABLE
  2
VIEW
 70
     0
  0
ENDTAB
  0
ENDSEC
  0
SECTION
  2
BLOCKS
  0
ENDSEC
  0
SECTION
  2
ENTITIES
  0
LINE
  8
default
 10
21.170000000000002
 20
51.109000000000002
 30
0.0
 11
30.690999999999999
 21
74.094999999999999
 31
0.0
  0
LINE
  8
default
 10
-30.690999999999999
 20
74.094999999999999
 30
0.0
 11
-21.170000000000002
 21
51.109000000000002
 31
0.0
  0
LINE
  8
default
 10
30.690999999999999
 20
74.094999999999999
 30
0.0
 11
30.786652523712057
 21
74.325554062813509
 31
0.0
  0
LINE
  8
default
 10
-30.690999999999999
 20
74.094999999999999
 30
0.0
 11
-30.78665252371205
 21
74.325554062813509
 31
0.0
  0
LINE
  8
default
 10
-30.978223849952439
 20
74.788048156789287
 30
0.0
 11
-30.882552991863506
 21
74.557078273660494
 31
0.0
  0
LINE
  8
default
 10
30.882552991863566
 20
74.55707827366048
 30
0.0
 11
30.978223849952467
 21
74.788048156789273
 31
0.0
  0
LINE
  8
default
 10
-30.978223849952439
 20
74.788048156789287
 30
0.0
 11
-51.516843664985778
 21
124.37266266667051
 31
0.0
  0
LINE
  8
default
 10
30.978223849952467
 20
74.788048156789273
 30
0.0
 11
51.516843664985828
 21
124.37266266667049
 31
0.0
  0
LINE
  8
default
 10
-3.796213834501315
 20
82.185086291712025
 30
0.0
 11
-4.4836892282785348
 21
111.4870712582749
 31
0.0
  0
LINE
  8
default
 10
-6.9635696720410456
 20
81.977486822151604
 30
0.0
 11
-10.10665224773436
 21
111.1185227906977
 31
0.0
  0
LINE
  8
default
 10
-6.2569409695546483
 20
80.707826074696811
 30
0.0
 11
-6.3240283639200916
 21
81.731381918161247
 31
0.0
  0
LINE
  8
default
 10
-4.3310732477041247
 20
80.834054114110984
 30
0.0
 11
-4.3981606420695689
 21
81.85760995757542
 31
0.0
  0
LINE
  8
default
 10
-4.3981606420695689
 20
81.85760995757542
 30
0.0
 11
-4.07651036185558
 21
81.878692030756142
 31
0.0
  0
LINE
  8
default
 10
-6.6456786441340787
 20
81.710299844980526
 30
0.0
 11
-6.3240283639200916
 21
81.731381918161247
 31
0.0
  0
LINE
  8
default
 10
-6.3240283639200916
 20
81.731381918161247
 30
0.0
 11
-4.3981606420695689
 21
81.85760995757542
 31
0.0
  0
LINE
  8
default
 10
-14.49104306982588
 20
80.986476148810539
 30
0.0
 11
-18.9973135384821
 21
109.9480450265671
 31
0.0
  0
LINE
  8
default
 10
-17.604204570828671
 20
80.367229824610888
 30
0.0
 11
-24.524066101694871
 21
108.8487055902969
 31
0.0
  0
LINE
  8
default
 10
-16.737897192072751
 20
79.200664754707731
 30
0.0
 11
-16.938011491251238
 21
80.206707273907199
 31
0.0
  0
LINE
  8
default
 10
-14.844981600894361
 20
79.577189076198891
 30
0.0
 11
-15.045095900073081
 21
80.583231595398374
 31
0.0
  0
LINE
  8
default
 10
-17.254158245992549
 20
80.143821774482234
 30
0.0
 11
-16.938011491251238
 21
80.206707273907199
 31
0.0
  0
LINE
  8
default
 10
-15.045095900073081
 20
80.583231595398374
 30
0.0
 11
-14.728949145331583
 21
80.646117094823339
 31
0.0
  0
LINE
  8
default
 10
-16.938011491251238
 20
80.206707273907199
 30
0.0
 11
-15.045095900073081
 21
80.583231595398374
 31
0.0
  0
LINE
  8
default
 10
-24.9379265405498
 20
78.402164945309693
 30
0.0
 11
-33.185888546991691
 21
106.5277772610979
 31
0.0
  0
LINE
  8
default
 10
-27.943626648601612
 20
77.381867242765452
 30
0.0
 11
-38.5218663853002
 21
104.7164568586835
 31
0.0
  0
LINE
  8
default
 10
-26.932463353012391
 20
76.338358102192913
 30
0.0
 11
-27.262180545862972
 21
77.309673630696267
 31
0.0
  0
LINE
  8
default
 10
-25.10488820308672
 20
76.958736270228044
 30
0.0
 11
-25.4346053959373
 21
77.930051798731341
 31
0.0
  0
LINE
  8
default
 10
-27.567414416505429
 20
77.20606069335733
 30
0.0
 11
-27.262180545862972
 21
77.309673630696267
 31
0.0
  0
LINE
  8
default
 10
-25.4346053959373
 20
77.930051798731341
 30
0.0
 11
-25.129371525294925
 21
78.033664736070264
 31
0.0
  0
LINE
  8
default
 10
-27.262180545862972
 20
77.309673630696267
 30
0.0
 11
-25.4346053959373
 21
77.930051798731341
 31
0.0
  0
LINE
  8
default
 10
27.94362664860159
 20
77.381867242765423
 30
0.0
 11
38.521866385300093
 21
104.7164568586835
 31
0.0
  0
LINE
  8
default
 10
24.9379265405498
 20
78.402164945309693
 30
0.0
 11
33.185888546991812
 21
106.5277772610978
 31
0.0
  0
LINE
  8
default
 10
25.10488820308694
 20
76.95873627022803
 30
0.0
 11
25.43460539593741
 21
77.930051798731341
 31
0.0
  0
LINE
  8
default
 10
26.932463353012281
 20
76.338358102192913
 30
0.0
 11
27.262180545862972
 21
77.309673630696224
 31
0.0
  0
LINE
  8
default
 10
25.129371525294939
 20
78.033664736070264
 30
0.0
 11
25.43460539593741
 21
77.930051798731341
 31
0.0
  0
LINE
  8
default
 10
27.262180545862972
 20
77.309673630696224
 30
0.0
 11
27.567414416505457
 21
77.206060693357301
 31
0.0
  0
LINE
  8
default
 10
25.43460539593741
 20
77.930051798731341
 30
0.0
 11
27.262180545862972
 21
77.309673630696224
 31
0.0
  0
LINE
  8
default
 10
17.604204570828671
 20
80.367229824610888
 30
0.0
 11
24.524066101694991
 21
108.8487055902968
 31
0.0
  0
LINE
  8
default
 10
14.4910430698261
 20
80.986476148810482
 30
0.0
 11
18.997313538482221
 21
109.9480450265671
 31
0.0
  0
LINE
  8
default
 10
14.844981600894471
 20
79.577189076198891
 30
0.0
 11
15.04509590007296
 21
80.583231595398289
 31
0.0
  0
LINE
  8
default
 10
16.73789719207263
 20
79.200664754707731
 30
0.0
 11
16.938011491251132
 21
80.206707273907256
 31
0.0
  0
LINE
  8
default
 10
14.72894914533174
 20
80.646117094823296
 30
0.0
 11
15.04509590007296
 21
80.583231595398289
 31
0.0
  0
LINE
  8
default
 10
16.938011491251132
 20
80.206707273907256
 30
0.0
 11
17.254158245992524
 21
80.143821774482234
 31
0.0
  0
LINE
  8
default
 10
15.04509590007296
 20
80.583231595398289
 30
0.0
 11
16.938011491251132
 21
80.206707273907256
 31
0.0
  0
LINE
  8
default
 10
6.963569672041273
 20
81.977486822151533
 30
0.0
 11
10.10665224773447
 21
111.1185227906977
 31
0.0
  0
LINE
  8
default
 10
3.7962138345014291
 20
82.185086291711997
 30
0.0
 11
4.483689228278763
 21
111.4870712582748
 31
0.0
  0
LINE
  8
default
 10
4.3310732477029736
 20
80.834054114111012
 30
0.0
 11
4.3981606420695689
 21
81.85760995757542
 31
0.0
  0
LINE
  8
default
 10
6.2569409695546483
 20
80.707826074696797
 30
0.0
 11
6.3240283639200916
 21
81.731381918161205
 31
0.0
  0
LINE
  8
default
 10
4.0765103618557239
 20
81.878692030756113
 30
0.0
 11
4.3981606420695689
 21
81.85760995757542
 31
0.0
  0
LINE
  8
default
 10
6.3240283639200916
 20
81.731381918161205
 30
0.0
 11
6.6456786441343123
 21
81.710299844980469
 31
0.0
  0
LINE
  8
default
 10
4.3981606420695689
 20
81.85760995757542
 30
0.0
 11
6.3240283639200916
 21
81.731381918161205
 31
0.0
  0
ARC
  8
default
 10
0
 20
9.8884561580803165e-005
 30
0
 40
55.319875932865784
 50
67.5
 51
112.50000000000001
  0
ARC
  8
default
 10
1.4210854715202004e-014
 20
7.3328010330442339e-012
 30
0
 40
134.61999999999324
 50
67.5
 51
112.5
  0
ARC
  8
default
 10
1.4210854715202004e-014
 20
-2.2595258997171186e-012
 30
0
 40
80.700000000002063
 50
67.499999999999986
 51
112.49999999999999
  0
ARC
  8
default
 10
3.5527136788005009e-015
 20
0
 30
0
 40
80.449399999999997
 50
67.5
 51
112.5
  0
ARC
  8
default
 10
0
 20
0.00037155720734460829
 30
0
 40
80.199447910041741
 50
67.5
 51
112.5
  0
ARC
  8
default
 10
-4.0961424978090086
 20
82.178059951169899
 30
0
 40
0.30001095402493849
 50
273.752005901117
 51
1.3420059011175514
  0
ARC
  8
default
 10
-7.2874312500176295
 20
111.18471525620021
 30
0
 40
2.8199979568177378
 50
6.1550000000002001
 51
181.34500000000054
  0
ARC
  8
default
 10
-3.0997426847534371e-013
 20
-0.051905059928827768
 30
0
 40
81.001830763146401
 50
86.935000000000187
 51
93.065000000000197
  0
ARC
  8
default
 10
-6.6652898185497094
 20
82.009669139286061
 30
0
 40
0.30001095402494221
 50
186.15799409888356
 51
273.74799409888413
  0
ARC
  8
default
 10
-14.787488680364829
 20
80.940361373226608
 30
0
 40
0.30001095402496014
 50
281.25200590111274
 51
8.8420059011119516
  0
ARC
  8
default
 10
-17.312677178145734
 20
80.438070151053125
 30
0
 40
0.30001095402493877
 50
193.65799409888353
 51
281.2479940988834
  0
ARC
  8
default
 10
-21.737603780907314
 20
109.28231395193973
 30
0
 40
2.819997956817585
 50
13.654999999999729
 51
188.84499999999932
  0
ARC
  8
default
 10
0.0067749698310191064
 20
-0.051461004956806278
 30
0
 40
81.001830763157571
 50
94.435000000000073
 51
100.56500000000008
  0
ARC
  8
default
 10
-25.225816831733383
 20
78.317750771279577
 30
0
 40
0.30001095402493971
 50
288.75200590111803
 51
16.342005901117741
  0
ARC
  8
default
 10
-27.663839831242523
 20
77.490153480889404
 30
0
 40
0.3000109540249562
 50
201.1579940988841
 51
288.74799409888362
  0
ARC
  8
default
 10
-35.815839884303465
 20
105.51006195718011
 30
0
 40
2.8199979568177795
 50
21.155000000000012
 51
196.34499999999966
  0
ARC
  8
default
 10
0.013434018049288454
 20
-0.050136437908861353
 30
0
 40
81.001830763155283
 50
101.9350000000002
 51
108.0650000000002
  0
ARC
  8
default
 10
-0.028645164036866788
 20
0.074753744200279471
 30
0
 40
80.869974544436957
 50
109.4315178311079
 51
112.50151783110789
  0
ARC
  8
default
 10
27.663839831242527
 20
77.490153480889347
 30
0
 40
0.30001095402492373
 50
251.25200590111911
 51
338.84200590111925
  0
ARC
  8
default
 10
25.22581683173339
 20
78.317750771279577
 30
0
 40
0.30001095402494443
 50
163.65799409888265
 51
251.24799409888328
  0
ARC
  8
default
 10
35.815839884303479
 20
105.51006195718008
 30
0
 40
2.8199979568176552
 50
343.6550000000002
 51
158.84500000000054
  0
ARC
  8
default
 10
0.028645164036564807
 20
0.074753744197693095
 30
0
 40
80.869974544439472
 50
67.498482168892608
 51
70.568482168892601
  0
ARC
  8
default
 10
17.312677178145723
 20
80.43807015105314
 30
0
 40
0.30001095402495392
 50
258.75200590111444
 51
346.34200590111431
  0
ARC
  8
default
 10
14.787488680365009
 20
80.940361373226523
 30
0
 40
0.30001095402492522
 50
171.15799409888149
 51
258.74799409888135
  0
ARC
  8
default
 10
21.737603780907435
 20
109.28231395193968
 30
0
 40
2.8199979568175944
 50
351.15499999999952
 51
166.34499999999943
  0
ARC
  8
default
 10
-0.013434018049377272
 20
-0.050136437912073006
 30
0
 40
81.001830763158409
 50
71.935000000000301
 51
78.065000000000296
  0
ARC
  8
default
 10
6.6652898185499474
 20
82.00966913928599
 30
0
 40
0.30001095402493222
 50
266.25200590111484
 51
353.84200590111624
  0
ARC
  8
default
 10
4.0961424978091374
 20
82.178059951169885
 30
0
 40
0.30001095402495304
 50
178.65799409888524
 51
266.24799409888607
  0
ARC
  8
default
 10
7.2874312500178
 20
111.18471525620015
 30
0
 40
2.8199979568176765
 50
358.6550000000006
 51
173.84500000000054
  0
ARC
  8
default
 10
-0.0067749698308308126
 20
-0.05146100495784367
 30
0
 40
81.00183076315858
 50
79.43500000000013
 51
85.565000000000126
  0
ENDSEC
  0
EOF
