<?xml version="1.0" ?>
<svg xmlns="http://www.w3.org/2000/svg" xmlns:ev="http://www.w3.org/2001/xml-events" xmlns:xlink="http://www.w3.org/1999/xlink" baseProfile="full" height="600px" version="1.1" viewBox="-6.808250000000001 -117.07625 80.93650000000001 183.1525" width="266px">
	<defs/>
	<path d="M 0.0,-61.75 L 6.0,-61.75" fill="none" stroke="#000000" stroke-width="0.1525"/>
	<path d="M 16.44,-61.75 L 28.44,-61.75" fill="none" stroke="#000000" stroke-width="0.1525"/>
	<path d="M 38.88,-61.75 L 50.88,-61.75" fill="none" stroke="#000000" stroke-width="0.1525"/>
	<path d="M 0.0,-61.75 L 0.0,-101.75" fill="none" stroke="#000000" stroke-width="0.1525"/>
	<path d="M 0.0,-0.0 L 0.0,-0.75" fill="none" stroke="#000000" stroke-width="0.1525"/>
	<path d="M 67.32,-61.75 L 67.32,-0.75" fill="none" stroke="#000000" stroke-width="0.1525"/>
	<path d="M 67.32,-61.75 L 67.32,-101.75" fill="none" stroke="#000000" stroke-width="0.1525"/>
	<path d="M 67.31999999999996,-101.75 L 0.0,-101.75" fill="none" stroke="#000000" stroke-width="0.1525"/>
	<path d="M 61.32,-61.75 L 67.32,-61.75" fill="none" stroke="#000000" stroke-width="0.1525"/>
	<path d="M 20.44,-0.75 L 20.44,-3.75" fill="none" stroke="#000000" stroke-width="0.1525"/>
	<path d="M 20.439999999999994,-3.75 L 16.44,-3.75" fill="none" stroke="#000000" stroke-width="0.1525"/>
	<path d="M 2.0,-0.75 L 2.0,-3.75" fill="none" stroke="#000000" stroke-width="0.1525"/>
	<path d="M 2.0,-3.75 L 6.0,-3.75" fill="none" stroke="#000000" stroke-width="0.1525"/>
	<path d="M 6.0,-61.75 L 6.0,-3.75" fill="none" stroke="#000000" stroke-width="0.1525"/>
	<path d="M 16.44,-3.75 L 16.44,-61.75" fill="none" stroke="#000000" stroke-width="0.1525"/>
	<path d="M 24.44,-0.75 L 24.44,-3.75" fill="none" stroke="#000000" stroke-width="0.1525"/>
	<path d="M 24.439999999999994,-3.75 L 28.44,-3.75" fill="none" stroke="#000000" stroke-width="0.1525"/>
	<path d="M 42.88,-0.7499999999999993 L 42.88,-3.75" fill="none" stroke="#000000" stroke-width="0.1525"/>
	<path d="M 42.87999999999999,-3.75 L 38.88,-3.75" fill="none" stroke="#000000" stroke-width="0.1525"/>
	<path d="M 28.44,-61.75 L 28.44,-3.75" fill="none" stroke="#000000" stroke-width="0.1525"/>
	<path d="M 38.88,-3.75 L 38.88,-61.75" fill="none" stroke="#000000" stroke-width="0.1525"/>
	<path d="M 65.32,-0.7499999999999984 L 65.32,-3.75" fill="none" stroke="#000000" stroke-width="0.1525"/>
	<path d="M 65.32,-3.75 L 61.32,-3.75" fill="none" stroke="#000000" stroke-width="0.1525"/>
	<path d="M 46.88,-0.75 L 46.88,-3.75" fill="none" stroke="#000000" stroke-width="0.1525"/>
	<path d="M 46.87999999999999,-3.75 L 50.88,-3.75" fill="none" stroke="#000000" stroke-width="0.1525"/>
	<path d="M 50.88,-61.75 L 50.88,-3.75" fill="none" stroke="#000000" stroke-width="0.1525"/>
	<path d="M 61.32,-3.75 L 61.32,-61.75" fill="none" stroke="#000000" stroke-width="0.1525"/>
	<path d="M 0.0,-0.75 L 0.0,-61.75" fill="none" stroke="#000000" stroke-width="0.1525"/>
	<path d="M 67.32,-0.75 L 67.32,-0.0" fill="none" stroke="#000000" stroke-width="0.1525"/>
	<path d="M 65.32000000000001,-0.75 L 67.32,-0.75" fill="none" stroke="#000000" stroke-width="0.1525"/>
	<path d="M 0.0,-0.75 L 2.0,-0.75" fill="none" stroke="#000000" stroke-width="0.1525"/>
	<path d="M 20.44,-0.75 L 24.44,-0.75" fill="none" stroke="#000000" stroke-width="0.1525"/>
	<path d="M 42.88000000000001,-0.75 L 46.88,-0.75" fill="none" stroke="#000000" stroke-width="0.1525"/>
	<path d="M 5.05,10.75 L 5.05,0.75" fill="none" stroke="#000000" stroke-width="0.1525"/>
	<path d="M 5.05,0.75 L 62.27,0.75" fill="none" stroke="#000000" stroke-width="0.1525"/>
	<path d="M 62.27,0.75 L 62.27,10.75" fill="none" stroke="#000000" stroke-width="0.1525"/>
	<path d="M 0.0,10.75 L 0.0,50.75" fill="none" stroke="#000000" stroke-width="0.1525"/>
	<path d="M 0.0,-0.0 L 0.0,0.75" fill="none" stroke="#000000" stroke-width="0.1525"/>
	<path d="M 67.32,-0.0 L 67.32,0.75" fill="none" stroke="#000000" stroke-width="0.1525"/>
	<path d="M 67.32,10.75 L 67.32,50.75" fill="none" stroke="#000000" stroke-width="0.1525"/>
	<path d="M 0.0,10.75 L 5.05,10.75" fill="none" stroke="#000000" stroke-width="0.1525"/>
	<path d="M 5.05,10.75 L 62.27,10.75" fill="none" stroke="#000000" stroke-width="0.1525"/>
	<path d="M 62.27000000000001,10.75 L 67.32,10.75" fill="none" stroke="#000000" stroke-width="0.1525"/>
	<path d="M 0.0,50.75 L 67.32000000000001,50.75" fill="none" stroke="#000000" stroke-width="0.1525"/>
	<path d="M 0.0,0.75 L 0.0,10.75" fill="none" stroke="#000000" stroke-width="0.1525"/>
	<path d="M 0.0,0.75 L 5.05,0.75" fill="none" stroke="#000000" stroke-width="0.1525"/>
	<path d="M 67.32,0.75 L 67.32,10.75" fill="none" stroke="#000000" stroke-width="0.1525"/>
	<path d="M 62.27,0.75 L 67.32,0.75" fill="none" stroke="#000000" stroke-width="0.1525"/>
	<path d="M 10.482500000000002,-0.328125 L 20.44,-0.75" fill="none" stroke="#000000" stroke-width="0.1525"/>
	<path d="M 5.055,-0.1875 L 10.482500000000005,-0.3281250000000001" fill="none" stroke="#000000" stroke-width="0.1525"/>
	<path d="M 2.71,-0.328125 L 5.054999999999999,-0.18750000000000006" fill="none" stroke="#000000" stroke-width="0.1525"/>
	<path d="M 2.0,-0.75 L 2.7099999999999995,-0.32812500000000017" fill="none" stroke="#000000" stroke-width="0.1525"/>
	<path d="M 37.45624999999999,-0.32812499999999967 L 42.88,-0.75" fill="none" stroke="#000000" stroke-width="0.1525"/>
	<path d="M 32.79,-0.1875 L 37.456250000000004,-0.3281250000000002" fill="none" stroke="#000000" stroke-width="0.1525"/>
	<path d="M 28.558749999999996,-0.328125 L 32.79,-0.1875" fill="none" stroke="#000000" stroke-width="0.1525"/>
	<path d="M 24.44,-0.75 L 28.558749999999996,-0.328125" fill="none" stroke="#000000" stroke-width="0.1525"/>
	<path d="M 60.63312499999999,-0.328125 L 65.32,-0.7499999999999998" fill="none" stroke="#000000" stroke-width="0.1525"/>
	<path d="M 55.275,-0.1875 L 60.63312499999999,-0.328125" fill="none" stroke="#000000" stroke-width="0.1525"/>
	<path d="M 50.329375,-0.328125 L 55.275,-0.1875" fill="none" stroke="#000000" stroke-width="0.1525"/>
	<path d="M 46.88,-0.75 L 50.329375,-0.328125" fill="none" stroke="#000000" stroke-width="0.1525"/>
</svg>
