<?xml version='1.0' encoding='UTF-8' standalone='no'?>
<svg xmlns:svg="http://www.w3.org/2000/svg" baseProfile="tiny" xmlns="http://www.w3.org/2000/svg" xmlns:cc="http://creativecommons.org/ns#" xmlns:rdf="http://www.w3.org/1999/02/22-rdf-syntax-ns#" viewBox="0 0 2970 2100" version="1.2" xmlns:xlink="http://www.w3.org/1999/xlink" xmlns:freecad="http://www.freecadweb.org/wiki/index.php?title=Svg_Namespace" xmlns:dc="http://purl.org/dc/elements/1.1/" width="297mm" height="210mm">
 <title>FreeCAD SVG Export</title>
 <desc>Drawing page: Page002 exported from FreeCAD document: cadmodell</desc>
 <defs/>
 <g id="Page002">
  <g stroke-width="1" stroke="black" fill-rule="evenodd" id="DrawingContent" stroke-linecap="square" fill="none" stroke-linejoin="bevel">
   <g fill-opacity="1" font-size="31.75" font-style="normal" stroke="none" fill="#ffffff" font-family="Sans Serif" font-weight="400" transform="matrix(1,0,0,1,1479.43,983.156)">
    <path d="M703.681,-446.842 C712.947,-469.211 712.384,-494.446 702.129,-516.379 C691.874,-538.313 672.872,-554.927 649.765,-562.161 C592.192,-580.185 533.893,-595.806 475.02,-608.984 C451.392,-614.272 426.629,-609.386 406.781,-595.518 C386.933,-581.65 373.828,-560.078 370.668,-536.072 L290.365,73.8927 L337.601,105.738 L328.543,139.546 C233.35,116.78 136.049,103.97 38.2073,101.323 L38.2073,66.3225 L92.0765,47.7875 L172.38,-562.177 C175.541,-586.183 168.466,-610.412 152.884,-628.944 C137.301,-647.476 114.647,-658.606 90.455,-659.612 C30.1778,-662.122 -30.1778,-662.122 -90.455,-659.612 C-114.647,-658.606 -137.301,-647.476 -152.884,-628.944 C-168.466,-610.412 -175.541,-586.183 -172.38,-562.177 L-92.0765,47.7875 L-38.2072,66.3225 L-38.2072,101.323 C-136.049,103.97 -233.35,116.78 -328.543,139.546 L-337.601,105.738 L-290.365,73.8927 L-370.668,-536.072 C-373.828,-560.078 -386.933,-581.65 -406.781,-595.518 C-426.629,-609.386 -451.392,-614.272 -475.02,-608.984 C-533.893,-595.806 -592.192,-580.185 -649.765,-562.161 C-672.872,-554.927 -691.874,-538.313 -702.129,-516.379 C-712.384,-494.446 -712.947,-469.211 -703.681,-446.842 L-468.243,121.555 L-411.412,125.516 L-402.354,159.323 C-449.233,173.254 -495.357,189.61 -540.54,208.326 L-956.709,-796.393 C-344.138,-1050.13 344.138,-1050.13 956.709,-796.393 L540.54,208.326 C495.357,189.61 449.233,173.254 402.354,159.323 L411.412,125.516 L468.243,121.555 L703.681,-446.842" vector-effect="non-scaling-stroke" fill-rule="evenodd"/>
   </g>
   <g font-size="31.75" font-style="normal" stroke-width="1" stroke-opacity="1" stroke="#000000" stroke-linecap="square" fill="none" stroke-linejoin="bevel" font-family="Sans Serif" font-weight="400" transform="matrix(1,0,0,1,1479.43,983.156)">
    <rect x="0" y="0" width="0" height="0"/>
   </g>
   <g fill-opacity="1" font-size="31.75" font-style="normal" stroke="none" fill="#ffffff" font-family="Sans Serif" font-weight="400" transform="matrix(1,0,0,1,1479.43,983.156)">
    <path d="M218.13,986.694 L483.138,346.908 C454.634,335.101 425.707,324.343 396.415,314.656 L396.415,183.64 C137.763,106.528 -137.763,106.528 -396.415,183.64 L-396.415,314.656 C-425.707,324.343 -454.634,335.101 -483.138,346.908 L-218.13,986.694 C-78.4635,928.843 78.4635,928.843 218.13,986.694 " vector-effect="non-scaling-stroke" fill-rule="evenodd"/>
   </g>
   <g font-size="31.75" font-style="normal" stroke-width="1" stroke-opacity="1" stroke="#000000" stroke-linecap="square" fill="none" stroke-linejoin="bevel" font-family="Sans Serif" font-weight="400" transform="matrix(1,0,0,1,1479.43,983.156)">
    <rect x="0" y="0" width="0" height="0"/>
   </g>
   <g fill-opacity="1" font-size="31.75" font-style="normal" stroke="none" fill="#ffffff" font-family="Sans Serif" font-weight="400" transform="matrix(1,0,0,1,1479.43,983.156)">
    <path d="M218.13,986.694 L483.138,346.908 C454.634,335.101 425.707,324.343 396.415,314.656 L-396.415,314.656 C-425.707,324.343 -454.634,335.101 -483.138,346.908 L-218.13,986.694 C-78.4635,928.843 78.4635,928.843 218.13,986.694 " vector-effect="non-scaling-stroke" fill-rule="evenodd"/>
   </g>
   <g font-size="31.75" font-style="normal" stroke-width="1" stroke-opacity="1" stroke="#000000" stroke-linecap="square" fill="none" stroke-linejoin="bevel" font-family="Sans Serif" font-weight="400" transform="matrix(1,0,0,1,1479.43,983.156)">
    <rect x="0" y="0" width="0" height="0"/>
   </g>
   <g fill-opacity="1" font-size="31.75" font-style="normal" stroke="none" fill="#ffffff" font-family="Sans Serif" font-weight="400" transform="matrix(1,0,0,1,1479.43,983.156)">
    <path d="M396.415,183.64 L396.415,314.656 L-396.415,314.656 L-396.415,183.64 C-137.763,106.528 137.763,106.528 396.415,183.64 " vector-effect="non-scaling-stroke" fill-rule="evenodd"/>
   </g>
   <g font-size="31.75" font-style="normal" stroke-width="1" stroke-opacity="1" stroke="#000000" stroke-linecap="square" fill="none" stroke-linejoin="bevel" font-family="Sans Serif" font-weight="400" transform="matrix(1,0,0,1,1479.43,983.156)">
    <rect x="0" y="0" width="0" height="0"/>
   </g>
   <g font-size="31.75" font-style="normal" stroke-width="7" stroke-opacity="1" stroke="#000000" stroke-linecap="round" fill="none" stroke-linejoin="bevel" font-family="Sans Serif" font-weight="400" transform="matrix(1,0,0,1,1479.43,983.156)">
    <path d="M396.415,183.64 C137.763,106.528 -137.763,106.528 -396.415,183.64 " vector-effect="none" fill-rule="evenodd"/>
   </g>
   <g font-size="31.75" font-style="normal" stroke-width="7" stroke-opacity="1" stroke="#000000" stroke-linecap="round" fill="none" stroke-linejoin="bevel" font-family="Sans Serif" font-weight="400" transform="matrix(1,0,0,1,1479.43,983.156)">
    <path d="M-396.415,183.64 L-396.415,314.656" vector-effect="none" fill-rule="evenodd"/>
   </g>
   <g font-size="31.75" font-style="normal" stroke-width="7" stroke-opacity="1" stroke="#000000" stroke-linecap="round" fill="none" stroke-linejoin="bevel" font-family="Sans Serif" font-weight="400" transform="matrix(1,0,0,1,1479.43,983.156)">
    <path d="M-396.415,314.656 L396.415,314.656" vector-effect="none" fill-rule="evenodd"/>
   </g>
   <g font-size="31.75" font-style="normal" stroke-width="7" stroke-opacity="1" stroke="#000000" stroke-linecap="round" fill="none" stroke-linejoin="bevel" font-family="Sans Serif" font-weight="400" transform="matrix(1,0,0,1,1479.43,983.156)">
    <path d="M396.415,183.64 L396.415,314.656" vector-effect="none" fill-rule="evenodd"/>
   </g>
   <g font-size="31.75" font-style="normal" stroke-width="7" stroke-opacity="1" stroke="#000000" stroke-linecap="round" fill="none" stroke-linejoin="bevel" font-family="Sans Serif" font-weight="400" transform="matrix(1,0,0,1,1479.43,983.156)">
    <path d="M218.13,986.694 C78.4635,928.843 -78.4635,928.843 -218.13,986.694 " vector-effect="none" fill-rule="evenodd"/>
   </g>
   <g font-size="31.75" font-style="normal" stroke-width="7" stroke-opacity="1" stroke="#000000" stroke-linecap="round" fill="none" stroke-linejoin="bevel" font-family="Sans Serif" font-weight="400" transform="matrix(1,0,0,1,1479.43,983.156)">
    <path d="M-218.13,986.694 L-483.138,346.908" vector-effect="none" fill-rule="evenodd"/>
   </g>
   <g font-size="31.75" font-style="normal" stroke-width="7" stroke-opacity="1" stroke="#000000" stroke-linecap="round" fill="none" stroke-linejoin="bevel" font-family="Sans Serif" font-weight="400" transform="matrix(1,0,0,1,1479.43,983.156)">
    <path d="M-396.415,314.656 C-425.707,324.343 -454.634,335.101 -483.138,346.908 " vector-effect="none" fill-rule="evenodd"/>
   </g>
   <g font-size="31.75" font-style="normal" stroke-width="7" stroke-opacity="1" stroke="#000000" stroke-linecap="round" fill="none" stroke-linejoin="bevel" font-family="Sans Serif" font-weight="400" transform="matrix(1,0,0,1,1479.43,983.156)">
    <path d="M-396.415,314.656 L396.415,314.656" vector-effect="none" fill-rule="evenodd"/>
   </g>
   <g font-size="31.75" font-style="normal" stroke-width="7" stroke-opacity="1" stroke="#000000" stroke-linecap="round" fill="none" stroke-linejoin="bevel" font-family="Sans Serif" font-weight="400" transform="matrix(1,0,0,1,1479.43,983.156)">
    <path d="M483.138,346.908 C454.634,335.101 425.707,324.343 396.415,314.656 " vector-effect="none" fill-rule="evenodd"/>
   </g>
   <g font-size="31.75" font-style="normal" stroke-width="7" stroke-opacity="1" stroke="#000000" stroke-linecap="round" fill="none" stroke-linejoin="bevel" font-family="Sans Serif" font-weight="400" transform="matrix(1,0,0,1,1479.43,983.156)">
    <path d="M218.13,986.694 L483.138,346.908" vector-effect="none" fill-rule="evenodd"/>
   </g>
   <g font-size="31.75" font-style="normal" stroke-width="7" stroke-opacity="1" stroke="#000000" stroke-linecap="round" fill="none" stroke-linejoin="bevel" font-family="Sans Serif" font-weight="400" transform="matrix(1,0,0,1,1479.43,983.156)">
    <path d="M540.54,208.326 L956.709,-796.393" vector-effect="none" fill-rule="evenodd"/>
   </g>
   <g font-size="31.75" font-style="normal" stroke-width="7" stroke-opacity="1" stroke="#000000" stroke-linecap="round" fill="none" stroke-linejoin="bevel" font-family="Sans Serif" font-weight="400" transform="matrix(1,0,0,1,1479.43,983.156)">
    <path d="M540.54,208.326 C495.357,189.61 449.233,173.254 402.354,159.323 " vector-effect="none" fill-rule="evenodd"/>
   </g>
   <g font-size="31.75" font-style="normal" stroke-width="7" stroke-opacity="1" stroke="#000000" stroke-linecap="round" fill="none" stroke-linejoin="bevel" font-family="Sans Serif" font-weight="400" transform="matrix(1,0,0,1,1479.43,983.156)">
    <path d="M956.709,-796.393 C344.138,-1050.13 -344.138,-1050.13 -956.709,-796.393 " vector-effect="none" fill-rule="evenodd"/>
   </g>
   <g font-size="31.75" font-style="normal" stroke-width="7" stroke-opacity="1" stroke="#000000" stroke-linecap="round" fill="none" stroke-linejoin="bevel" font-family="Sans Serif" font-weight="400" transform="matrix(1,0,0,1,1479.43,983.156)">
    <path d="M-540.54,208.326 L-956.709,-796.393" vector-effect="none" fill-rule="evenodd"/>
   </g>
   <g font-size="31.75" font-style="normal" stroke-width="7" stroke-opacity="1" stroke="#000000" stroke-linecap="round" fill="none" stroke-linejoin="bevel" font-family="Sans Serif" font-weight="400" transform="matrix(1,0,0,1,1479.43,983.156)">
    <path d="M-402.354,159.323 C-449.233,173.254 -495.357,189.61 -540.54,208.326 " vector-effect="none" fill-rule="evenodd"/>
   </g>
   <g font-size="31.75" font-style="normal" stroke-width="7" stroke-opacity="1" stroke="#000000" stroke-linecap="round" fill="none" stroke-linejoin="bevel" font-family="Sans Serif" font-weight="400" transform="matrix(1,0,0,1,1479.43,983.156)">
    <path d="M-402.354,159.323 L-411.412,125.516" vector-effect="none" fill-rule="evenodd"/>
   </g>
   <g font-size="31.75" font-style="normal" stroke-width="7" stroke-opacity="1" stroke="#000000" stroke-linecap="round" fill="none" stroke-linejoin="bevel" font-family="Sans Serif" font-weight="400" transform="matrix(1,0,0,1,1479.43,983.156)">
    <path d="M-411.412,125.516 L-468.243,121.555" vector-effect="none" fill-rule="evenodd"/>
   </g>
   <g font-size="31.75" font-style="normal" stroke-width="7" stroke-opacity="1" stroke="#000000" stroke-linecap="round" fill="none" stroke-linejoin="bevel" font-family="Sans Serif" font-weight="400" transform="matrix(1,0,0,1,1479.43,983.156)">
    <path d="M-703.681,-446.842 L-468.243,121.555" vector-effect="none" fill-rule="evenodd"/>
   </g>
   <g font-size="31.75" font-style="normal" stroke-width="7" stroke-opacity="1" stroke="#000000" stroke-linecap="round" fill="none" stroke-linejoin="bevel" font-family="Sans Serif" font-weight="400" transform="matrix(1,0,0,1,1479.43,983.156)">
    <path d="M-649.765,-562.161 C-672.872,-554.927 -691.874,-538.313 -702.129,-516.379 C-712.384,-494.446 -712.947,-469.211 -703.681,-446.842 " vector-effect="none" fill-rule="evenodd"/>
   </g>
   <g font-size="31.75" font-style="normal" stroke-width="7" stroke-opacity="1" stroke="#000000" stroke-linecap="round" fill="none" stroke-linejoin="bevel" font-family="Sans Serif" font-weight="400" transform="matrix(1,0,0,1,1479.43,983.156)">
    <path d="M-475.02,-608.984 C-533.893,-595.806 -592.192,-580.185 -649.765,-562.161 " vector-effect="none" fill-rule="evenodd"/>
   </g>
   <g font-size="31.75" font-style="normal" stroke-width="7" stroke-opacity="1" stroke="#000000" stroke-linecap="round" fill="none" stroke-linejoin="bevel" font-family="Sans Serif" font-weight="400" transform="matrix(1,0,0,1,1479.43,983.156)">
    <path d="M-370.668,-536.072 C-373.828,-560.078 -386.933,-581.65 -406.781,-595.518 C-426.629,-609.386 -451.392,-614.272 -475.02,-608.984 " vector-effect="none" fill-rule="evenodd"/>
   </g>
   <g font-size="31.75" font-style="normal" stroke-width="7" stroke-opacity="1" stroke="#000000" stroke-linecap="round" fill="none" stroke-linejoin="bevel" font-family="Sans Serif" font-weight="400" transform="matrix(1,0,0,1,1479.43,983.156)">
    <path d="M-370.668,-536.072 L-290.365,73.8927" vector-effect="none" fill-rule="evenodd"/>
   </g>
   <g font-size="31.75" font-style="normal" stroke-width="7" stroke-opacity="1" stroke="#000000" stroke-linecap="round" fill="none" stroke-linejoin="bevel" font-family="Sans Serif" font-weight="400" transform="matrix(1,0,0,1,1479.43,983.156)">
    <path d="M-337.601,105.738 L-290.365,73.8927" vector-effect="none" fill-rule="evenodd"/>
   </g>
   <g font-size="31.75" font-style="normal" stroke-width="7" stroke-opacity="1" stroke="#000000" stroke-linecap="round" fill="none" stroke-linejoin="bevel" font-family="Sans Serif" font-weight="400" transform="matrix(1,0,0,1,1479.43,983.156)">
    <path d="M-328.543,139.546 L-337.601,105.738" vector-effect="none" fill-rule="evenodd"/>
   </g>
   <g font-size="31.75" font-style="normal" stroke-width="7" stroke-opacity="1" stroke="#000000" stroke-linecap="round" fill="none" stroke-linejoin="bevel" font-family="Sans Serif" font-weight="400" transform="matrix(1,0,0,1,1479.43,983.156)">
    <path d="M-38.2072,101.323 C-136.049,103.97 -233.35,116.78 -328.543,139.546 " vector-effect="none" fill-rule="evenodd"/>
   </g>
   <g font-size="31.75" font-style="normal" stroke-width="7" stroke-opacity="1" stroke="#000000" stroke-linecap="round" fill="none" stroke-linejoin="bevel" font-family="Sans Serif" font-weight="400" transform="matrix(1,0,0,1,1479.43,983.156)">
    <path d="M-38.2072,101.323 L-38.2072,66.3225" vector-effect="none" fill-rule="evenodd"/>
   </g>
   <g font-size="31.75" font-style="normal" stroke-width="7" stroke-opacity="1" stroke="#000000" stroke-linecap="round" fill="none" stroke-linejoin="bevel" font-family="Sans Serif" font-weight="400" transform="matrix(1,0,0,1,1479.43,983.156)">
    <path d="M-38.2072,66.3225 L-92.0765,47.7875" vector-effect="none" fill-rule="evenodd"/>
   </g>
   <g font-size="31.75" font-style="normal" stroke-width="7" stroke-opacity="1" stroke="#000000" stroke-linecap="round" fill="none" stroke-linejoin="bevel" font-family="Sans Serif" font-weight="400" transform="matrix(1,0,0,1,1479.43,983.156)">
    <path d="M-172.38,-562.177 L-92.0765,47.7875" vector-effect="none" fill-rule="evenodd"/>
   </g>
   <g font-size="31.75" font-style="normal" stroke-width="7" stroke-opacity="1" stroke="#000000" stroke-linecap="round" fill="none" stroke-linejoin="bevel" font-family="Sans Serif" font-weight="400" transform="matrix(1,0,0,1,1479.43,983.156)">
    <path d="M-90.455,-659.612 C-114.647,-658.606 -137.301,-647.476 -152.884,-628.944 C-168.466,-610.412 -175.541,-586.183 -172.38,-562.177 " vector-effect="none" fill-rule="evenodd"/>
   </g>
   <g font-size="31.75" font-style="normal" stroke-width="7" stroke-opacity="1" stroke="#000000" stroke-linecap="round" fill="none" stroke-linejoin="bevel" font-family="Sans Serif" font-weight="400" transform="matrix(1,0,0,1,1479.43,983.156)">
    <path d="M90.455,-659.612 C30.1778,-662.122 -30.1778,-662.122 -90.455,-659.612 " vector-effect="none" fill-rule="evenodd"/>
   </g>
   <g font-size="31.75" font-style="normal" stroke-width="7" stroke-opacity="1" stroke="#000000" stroke-linecap="round" fill="none" stroke-linejoin="bevel" font-family="Sans Serif" font-weight="400" transform="matrix(1,0,0,1,1479.43,983.156)">
    <path d="M172.38,-562.177 C175.541,-586.183 168.466,-610.412 152.884,-628.944 C137.301,-647.476 114.647,-658.606 90.455,-659.612 " vector-effect="none" fill-rule="evenodd"/>
   </g>
   <g font-size="31.75" font-style="normal" stroke-width="7" stroke-opacity="1" stroke="#000000" stroke-linecap="round" fill="none" stroke-linejoin="bevel" font-family="Sans Serif" font-weight="400" transform="matrix(1,0,0,1,1479.43,983.156)">
    <path d="M172.38,-562.177 L92.0765,47.7875" vector-effect="none" fill-rule="evenodd"/>
   </g>
   <g font-size="31.75" font-style="normal" stroke-width="7" stroke-opacity="1" stroke="#000000" stroke-linecap="round" fill="none" stroke-linejoin="bevel" font-family="Sans Serif" font-weight="400" transform="matrix(1,0,0,1,1479.43,983.156)">
    <path d="M38.2073,66.3225 L92.0765,47.7875" vector-effect="none" fill-rule="evenodd"/>
   </g>
   <g font-size="31.75" font-style="normal" stroke-width="7" stroke-opacity="1" stroke="#000000" stroke-linecap="round" fill="none" stroke-linejoin="bevel" font-family="Sans Serif" font-weight="400" transform="matrix(1,0,0,1,1479.43,983.156)">
    <path d="M38.2073,101.323 L38.2073,66.3225" vector-effect="none" fill-rule="evenodd"/>
   </g>
   <g font-size="31.75" font-style="normal" stroke-width="7" stroke-opacity="1" stroke="#000000" stroke-linecap="round" fill="none" stroke-linejoin="bevel" font-family="Sans Serif" font-weight="400" transform="matrix(1,0,0,1,1479.43,983.156)">
    <path d="M328.543,139.546 C233.35,116.78 136.049,103.97 38.2073,101.323 " vector-effect="none" fill-rule="evenodd"/>
   </g>
   <g font-size="31.75" font-style="normal" stroke-width="7" stroke-opacity="1" stroke="#000000" stroke-linecap="round" fill="none" stroke-linejoin="bevel" font-family="Sans Serif" font-weight="400" transform="matrix(1,0,0,1,1479.43,983.156)">
    <path d="M328.543,139.546 L337.601,105.738" vector-effect="none" fill-rule="evenodd"/>
   </g>
   <g font-size="31.75" font-style="normal" stroke-width="7" stroke-opacity="1" stroke="#000000" stroke-linecap="round" fill="none" stroke-linejoin="bevel" font-family="Sans Serif" font-weight="400" transform="matrix(1,0,0,1,1479.43,983.156)">
    <path d="M337.601,105.738 L290.365,73.8927" vector-effect="none" fill-rule="evenodd"/>
   </g>
   <g font-size="31.75" font-style="normal" stroke-width="7" stroke-opacity="1" stroke="#000000" stroke-linecap="round" fill="none" stroke-linejoin="bevel" font-family="Sans Serif" font-weight="400" transform="matrix(1,0,0,1,1479.43,983.156)">
    <path d="M370.668,-536.072 L290.365,73.8927" vector-effect="none" fill-rule="evenodd"/>
   </g>
   <g font-size="31.75" font-style="normal" stroke-width="7" stroke-opacity="1" stroke="#000000" stroke-linecap="round" fill="none" stroke-linejoin="bevel" font-family="Sans Serif" font-weight="400" transform="matrix(1,0,0,1,1479.43,983.156)">
    <path d="M475.02,-608.984 C451.392,-614.272 426.629,-609.386 406.781,-595.518 C386.933,-581.65 373.828,-560.078 370.668,-536.072 " vector-effect="none" fill-rule="evenodd"/>
   </g>
   <g font-size="31.75" font-style="normal" stroke-width="7" stroke-opacity="1" stroke="#000000" stroke-linecap="round" fill="none" stroke-linejoin="bevel" font-family="Sans Serif" font-weight="400" transform="matrix(1,0,0,1,1479.43,983.156)">
    <path d="M649.765,-562.161 C592.192,-580.185 533.893,-595.806 475.02,-608.984 " vector-effect="none" fill-rule="evenodd"/>
   </g>
   <g font-size="31.75" font-style="normal" stroke-width="7" stroke-opacity="1" stroke="#000000" stroke-linecap="round" fill="none" stroke-linejoin="bevel" font-family="Sans Serif" font-weight="400" transform="matrix(1,0,0,1,1479.43,983.156)">
    <path d="M703.681,-446.842 C712.947,-469.211 712.384,-494.446 702.129,-516.379 C691.874,-538.313 672.872,-554.927 649.765,-562.161 " vector-effect="none" fill-rule="evenodd"/>
   </g>
   <g font-size="31.75" font-style="normal" stroke-width="7" stroke-opacity="1" stroke="#000000" stroke-linecap="round" fill="none" stroke-linejoin="bevel" font-family="Sans Serif" font-weight="400" transform="matrix(1,0,0,1,1479.43,983.156)">
    <path d="M703.681,-446.842 L468.243,121.555" vector-effect="none" fill-rule="evenodd"/>
   </g>
   <g font-size="31.75" font-style="normal" stroke-width="7" stroke-opacity="1" stroke="#000000" stroke-linecap="round" fill="none" stroke-linejoin="bevel" font-family="Sans Serif" font-weight="400" transform="matrix(1,0,0,1,1479.43,983.156)">
    <path d="M411.412,125.516 L468.243,121.555" vector-effect="none" fill-rule="evenodd"/>
   </g>
   <g font-size="31.75" font-style="normal" stroke-width="7" stroke-opacity="1" stroke="#000000" stroke-linecap="round" fill="none" stroke-linejoin="bevel" font-family="Sans Serif" font-weight="400" transform="matrix(1,0,0,1,1479.43,983.156)">
    <path d="M402.354,159.323 L411.412,125.516" vector-effect="none" fill-rule="evenodd"/>
   </g>
   <g font-size="31.75" font-style="normal" stroke-width="1" stroke-opacity="1" stroke="#000000" stroke-linecap="square" fill="none" stroke-linejoin="bevel" font-family="Sans Serif" font-weight="400" transform="matrix(1,0,0,1,1479.43,983.156)">
    <rect x="0" y="0" width="0" height="0"/>
   </g>
   <g font-size="31.75" font-style="normal" stroke-width="1" stroke-opacity="1" stroke="#000000" stroke-linecap="square" fill="none" stroke-linejoin="bevel" font-family="Sans Serif" font-weight="400" transform="matrix(1,0,0,1,1361.94,1329.07)">
    <text fill-opacity="1" font-size="50" font-style="normal" x="4" y="70" stroke="none" xml:space="preserve" fill="#000000" font-family="osifont" font-weight="400">mw ± 0,05</text>
   </g>
   <g font-size="31.75" font-style="normal" stroke-width="3.5" stroke-opacity="1" stroke="#000000" stroke-linecap="round" fill="none" stroke-linejoin="bevel" font-family="Sans Serif" font-weight="400" transform="matrix(1,0,0,1,1479.43,983.156)">
    <path d="M-396.415,433.412 L396.415,433.412 M396.415,314.656 L396.415,461.412 M-396.415,314.656 L-396.415,461.412" vector-effect="none" fill-rule="evenodd"/>
   </g>
   <g fill-opacity="1" font-size="31.75" font-style="normal" stroke-width="3.5" stroke-opacity="1" stroke="#000000" stroke-linecap="round" fill="#000000" stroke-linejoin="bevel" font-family="Sans Serif" font-weight="400" transform="matrix(1,0,0,1,1875.84,1416.57)">
    <path d="M0,0 L-50,-8.33333 L-50,8.33333 L0,0" vector-effect="none" fill-rule="evenodd"/>
   </g>
   <g fill-opacity="1" font-size="31.75" font-style="normal" stroke-width="3.5" stroke-opacity="1" stroke="#000000" stroke-linecap="round" fill="#000000" stroke-linejoin="bevel" font-family="Sans Serif" font-weight="400" transform="matrix(1,0,0,1,1083.01,1416.57)">
    <path d="M0,0 L50,8.33333 L50,-8.33333 L0,0" vector-effect="none" fill-rule="evenodd"/>
   </g>
   <g font-size="31.75" font-style="normal" stroke-width="1" stroke-opacity="1" stroke="#000000" stroke-linecap="square" fill="none" stroke-linejoin="bevel" font-family="Sans Serif" font-weight="400" transform="matrix(1,0,0,1,1479.43,983.156)">
    <rect x="0" y="0" width="0" height="0"/>
   </g>
   <g font-size="31.75" font-style="normal" stroke-width="1" stroke-opacity="1" stroke="#000000" stroke-linecap="square" fill="none" stroke-linejoin="bevel" font-family="Sans Serif" font-weight="400" transform="matrix(1,0,0,1,2160.35,991.823)">
    <text fill-opacity="1" font-size="50" font-style="normal" x="4" y="70" stroke="none" xml:space="preserve" fill="#000000" font-family="osifont" font-weight="400">s1 ± 0,05</text>
   </g>
   <g font-size="31.75" font-style="normal" stroke-width="3.5" stroke-opacity="1" stroke="#000000" stroke-linecap="round" fill="none" stroke-linejoin="bevel" font-family="Sans Serif" font-weight="400" transform="matrix(1,0,0,1,1479.43,983.156)">
    <path d="M628.238,58.9791 L472.083,182.03 M670.238,58.9791 L628.238,58.9791" vector-effect="none" fill-rule="evenodd"/>
   </g>
   <g fill-opacity="1" font-size="31.75" font-style="normal" stroke-width="3.5" stroke-opacity="1" stroke="#000000" stroke-linecap="round" fill="#000000" stroke-linejoin="bevel" font-family="Sans Serif" font-weight="400" transform="matrix(1,0,0,1,1951.51,1165.19)">
    <path d="M0,0 L44.4299,-24.4014 L34.1144,-37.4921 L0,0" vector-effect="none" fill-rule="evenodd"/>
   </g>
   <g font-size="31.75" font-style="normal" stroke-width="1" stroke-opacity="1" stroke="#000000" stroke-linecap="square" fill="none" stroke-linejoin="bevel" font-family="Sans Serif" font-weight="400" transform="matrix(1,0,0,1,1479.43,983.156)">
    <rect x="0" y="0" width="0" height="0"/>
   </g>
   <g font-size="31.75" font-style="normal" stroke-width="1" stroke-opacity="1" stroke="#000000" stroke-linecap="square" fill="none" stroke-linejoin="bevel" font-family="Sans Serif" font-weight="400" transform="matrix(1,0,0,1,716.21,1225.91)">
    <text fill-opacity="1" font-size="50" font-style="normal" x="4" y="70" stroke="none" xml:space="preserve" fill="#000000" font-family="osifont" font-weight="400">r3 ± 0,05</text>
   </g>
   <g font-size="31.75" font-style="normal" stroke-width="3.5" stroke-opacity="1" stroke="#000000" stroke-linecap="round" fill="none" stroke-linejoin="bevel" font-family="Sans Serif" font-weight="400" transform="matrix(1,0,0,1,1479.43,983.156)">
    <path d="M-522.509,293.069 L2.62596e-13,125.806 M-564.509,293.069 L-522.509,293.069" vector-effect="none" fill-rule="evenodd"/>
   </g>
   <g fill-opacity="1" font-size="31.75" font-style="normal" stroke-width="3.5" stroke-opacity="1" stroke="#000000" stroke-linecap="round" fill="#000000" stroke-linejoin="bevel" font-family="Sans Serif" font-weight="400" transform="matrix(1,0,0,1,1479.43,1108.96)">
    <path d="M0,0 L-50.1602,7.3072 L-45.079,23.1804 L0,0" vector-effect="none" fill-rule="evenodd"/>
   </g>
  </g>
 </g>
</svg>
