<?xml version='1.0' encoding='UTF-8' standalone='no'?>
<svg xmlns:svg="http://www.w3.org/2000/svg" baseProfile="tiny" xmlns="http://www.w3.org/2000/svg" xmlns:cc="http://creativecommons.org/ns#" xmlns:rdf="http://www.w3.org/1999/02/22-rdf-syntax-ns#" viewBox="0 0 2970 2100" version="1.2" xmlns:xlink="http://www.w3.org/1999/xlink" xmlns:freecad="http://www.freecadweb.org/wiki/index.php?title=Svg_Namespace" xmlns:dc="http://purl.org/dc/elements/1.1/" width="297mm" height="210mm">
 <title>FreeCAD SVG Export</title>
 <desc>Drawing page: Page exported from FreeCAD document: cadmodell</desc>
 <defs/>
 <g id="Page">
  <g stroke-width="1" stroke="black" fill-rule="evenodd" id="DrawingContent" stroke-linecap="square" fill="none" stroke-linejoin="bevel">
   <g fill-opacity="1" font-size="31.75" font-style="normal" stroke="none" fill="#ffffff" font-family="Sans Serif" font-weight="400" transform="matrix(1,0,0,1,1536.87,915.757)">
    <path d="M194.955,-372.51 L82.5303,481.441 L7.11336,507.39 L7.11336,556.39 C-28.5402,555.425 -64.2134,555.425 -99.8669,556.39 L-99.8669,507.39 L-175.284,481.441 L-287.709,-372.51 C-292.134,-406.118 -282.229,-440.038 -260.414,-465.983 C-238.599,-491.928 -206.882,-507.509 -173.014,-508.919 C-88.6257,-512.432 -4.12791,-512.432 80.2602,-508.919 C114.129,-507.509 145.845,-491.928 167.66,-465.983 C189.475,-440.038 199.38,-406.118 194.955,-372.51 " vector-effect="non-scaling-stroke" fill-rule="evenodd"/>
   </g>
   <g font-size="31.75" font-style="normal" stroke-width="1" stroke-opacity="1" stroke="#000000" stroke-linecap="square" fill="none" stroke-linejoin="bevel" font-family="Sans Serif" font-weight="400" transform="matrix(1,0,0,1,1536.87,915.757)">
    <rect x="0" y="0" width="0" height="0"/>
   </g>
   <g font-size="31.75" font-style="normal" stroke-width="7" stroke-opacity="1" stroke="#000000" stroke-linecap="round" fill="none" stroke-linejoin="bevel" font-family="Sans Serif" font-weight="400" transform="matrix(1,0,0,1,1536.87,915.757)">
    <path d="M194.955,-372.51 L82.5303,481.441" vector-effect="none" fill-rule="evenodd"/>
   </g>
   <g font-size="31.75" font-style="normal" stroke-width="7" stroke-opacity="1" stroke="#000000" stroke-linecap="round" fill="none" stroke-linejoin="bevel" font-family="Sans Serif" font-weight="400" transform="matrix(1,0,0,1,1536.87,915.757)">
    <path d="M7.11336,507.39 L82.5303,481.441" vector-effect="none" fill-rule="evenodd"/>
   </g>
   <g font-size="31.75" font-style="normal" stroke-width="7" stroke-opacity="1" stroke="#000000" stroke-linecap="round" fill="none" stroke-linejoin="bevel" font-family="Sans Serif" font-weight="400" transform="matrix(1,0,0,1,1536.87,915.757)">
    <path d="M7.11336,556.39 L7.11336,507.39" vector-effect="none" fill-rule="evenodd"/>
   </g>
   <g font-size="31.75" font-style="normal" stroke-width="7" stroke-opacity="1" stroke="#000000" stroke-linecap="round" fill="none" stroke-linejoin="bevel" font-family="Sans Serif" font-weight="400" transform="matrix(1,0,0,1,1536.87,915.757)">
    <path d="M7.11336,556.39 C-28.5402,555.425 -64.2134,555.425 -99.8669,556.39 " vector-effect="none" fill-rule="evenodd"/>
   </g>
   <g font-size="31.75" font-style="normal" stroke-width="7" stroke-opacity="1" stroke="#000000" stroke-linecap="round" fill="none" stroke-linejoin="bevel" font-family="Sans Serif" font-weight="400" transform="matrix(1,0,0,1,1536.87,915.757)">
    <path d="M-99.8669,556.39 L-99.8669,507.39" vector-effect="none" fill-rule="evenodd"/>
   </g>
   <g font-size="31.75" font-style="normal" stroke-width="7" stroke-opacity="1" stroke="#000000" stroke-linecap="round" fill="none" stroke-linejoin="bevel" font-family="Sans Serif" font-weight="400" transform="matrix(1,0,0,1,1536.87,915.757)">
    <path d="M-99.8669,507.39 L-175.284,481.441" vector-effect="none" fill-rule="evenodd"/>
   </g>
   <g font-size="31.75" font-style="normal" stroke-width="7" stroke-opacity="1" stroke="#000000" stroke-linecap="round" fill="none" stroke-linejoin="bevel" font-family="Sans Serif" font-weight="400" transform="matrix(1,0,0,1,1536.87,915.757)">
    <path d="M-287.709,-372.51 L-175.284,481.441" vector-effect="none" fill-rule="evenodd"/>
   </g>
   <g font-size="31.75" font-style="normal" stroke-width="7" stroke-opacity="1" stroke="#000000" stroke-linecap="round" fill="none" stroke-linejoin="bevel" font-family="Sans Serif" font-weight="400" transform="matrix(1,0,0,1,1536.87,915.757)">
    <path d="M-173.014,-508.919 C-206.882,-507.509 -238.599,-491.928 -260.414,-465.983 C-282.229,-440.038 -292.134,-406.118 -287.709,-372.51 " vector-effect="none" fill-rule="evenodd"/>
   </g>
   <g font-size="31.75" font-style="normal" stroke-width="7" stroke-opacity="1" stroke="#000000" stroke-linecap="round" fill="none" stroke-linejoin="bevel" font-family="Sans Serif" font-weight="400" transform="matrix(1,0,0,1,1536.87,915.757)">
    <path d="M80.2602,-508.919 C-4.12791,-512.432 -88.6257,-512.432 -173.014,-508.919 " vector-effect="none" fill-rule="evenodd"/>
   </g>
   <g font-size="31.75" font-style="normal" stroke-width="7" stroke-opacity="1" stroke="#000000" stroke-linecap="round" fill="none" stroke-linejoin="bevel" font-family="Sans Serif" font-weight="400" transform="matrix(1,0,0,1,1536.87,915.757)">
    <path d="M194.955,-372.51 C199.38,-406.118 189.475,-440.038 167.66,-465.983 C145.845,-491.928 114.129,-507.509 80.2602,-508.919 " vector-effect="none" fill-rule="evenodd"/>
   </g>
   <g font-size="31.75" font-style="normal" stroke-width="1" stroke-opacity="1" stroke="#000000" stroke-linecap="square" fill="none" stroke-linejoin="bevel" font-family="Sans Serif" font-weight="400" transform="matrix(1,0,0,1,1536.87,915.757)">
    <rect x="0" y="0" width="0" height="0"/>
   </g>
   <g font-size="31.75" font-style="normal" stroke-width="1" stroke-opacity="1" stroke="#000000" stroke-linecap="square" fill="none" stroke-linejoin="bevel" font-family="Sans Serif" font-weight="400" transform="matrix(1,0,0,1,1716.98,1477.95)">
    <text fill-opacity="1" font-size="50" font-style="normal" x="4" y="70" stroke="none" xml:space="preserve" fill="#000000" font-family="osifont" font-weight="400">w1</text>
   </g>
   <g font-size="31.75" font-style="normal" stroke-width="3.5" stroke-opacity="1" stroke="#000000" stroke-linecap="round" fill="none" stroke-linejoin="bevel" font-family="Sans Serif" font-weight="400" transform="matrix(1,0,0,1,1536.87,915.757)">
    <path d="M-199.867,613.349 L-99.8669,613.349 M7.11336,613.349 L127.523,613.349 M169.523,613.349 L127.523,613.349 M7.11336,577.39 L7.11336,641.349 M-99.8669,577.39 L-99.8669,641.349" vector-effect="none" fill-rule="evenodd"/>
   </g>
   <g fill-opacity="1" font-size="31.75" font-style="normal" stroke-width="3.5" stroke-opacity="1" stroke="#000000" stroke-linecap="round" fill="#000000" stroke-linejoin="bevel" font-family="Sans Serif" font-weight="400" transform="matrix(1,0,0,1,1543.98,1529.11)">
    <path d="M0,0 L50,8.33333 L50,-8.33333 L0,0" vector-effect="none" fill-rule="evenodd"/>
   </g>
   <g fill-opacity="1" font-size="31.75" font-style="normal" stroke-width="3.5" stroke-opacity="1" stroke="#000000" stroke-linecap="round" fill="#000000" stroke-linejoin="bevel" font-family="Sans Serif" font-weight="400" transform="matrix(1,0,0,1,1437,1529.11)">
    <path d="M0,0 L-50,-8.33333 L-50,8.33333 L0,0" vector-effect="none" fill-rule="evenodd"/>
   </g>
   <g font-size="31.75" font-style="normal" stroke-width="1" stroke-opacity="1" stroke="#000000" stroke-linecap="square" fill="none" stroke-linejoin="bevel" font-family="Sans Serif" font-weight="400" transform="matrix(1,0,0,1,1536.87,915.757)">
    <rect x="0" y="0" width="0" height="0"/>
   </g>
   <g font-size="31.75" font-style="normal" stroke-width="1" stroke-opacity="1" stroke="#000000" stroke-linecap="square" fill="none" stroke-linejoin="bevel" font-family="Sans Serif" font-weight="400" transform="matrix(1,0,0,1,1100.95,1062.4)">
    <text fill-opacity="1" font-size="50" font-style="normal" x="4" y="70" stroke="none" xml:space="preserve" fill="#000000" font-family="osifont" font-weight="400">w2</text>
   </g>
   <g font-size="31.75" font-style="normal" stroke-width="3.5" stroke-opacity="1" stroke="#000000" stroke-linecap="round" fill="none" stroke-linejoin="bevel" font-family="Sans Serif" font-weight="400" transform="matrix(1,0,0,1,1536.87,915.757)">
    <path d="M-334.998,197.798 L-175.284,197.798 M82.5303,197.798 L182.53,197.798 M-376.998,197.798 L-334.998,197.798 M82.5303,460.441 L82.5303,169.798 M-175.284,460.441 L-175.284,169.798" vector-effect="none" fill-rule="evenodd"/>
   </g>
   <g fill-opacity="1" font-size="31.75" font-style="normal" stroke-width="3.5" stroke-opacity="1" stroke="#000000" stroke-linecap="round" fill="#000000" stroke-linejoin="bevel" font-family="Sans Serif" font-weight="400" transform="matrix(1,0,0,1,1619.4,1113.56)">
    <path d="M0,0 L50,8.33333 L50,-8.33333 L0,0" vector-effect="none" fill-rule="evenodd"/>
   </g>
   <g fill-opacity="1" font-size="31.75" font-style="normal" stroke-width="3.5" stroke-opacity="1" stroke="#000000" stroke-linecap="round" fill="#000000" stroke-linejoin="bevel" font-family="Sans Serif" font-weight="400" transform="matrix(1,0,0,1,1361.58,1113.56)">
    <path d="M0,0 L-50,-8.33333 L-50,8.33333 L0,0" vector-effect="none" fill-rule="evenodd"/>
   </g>
   <g font-size="31.75" font-style="normal" stroke-width="1" stroke-opacity="1" stroke="#000000" stroke-linecap="square" fill="none" stroke-linejoin="bevel" font-family="Sans Serif" font-weight="400" transform="matrix(1,0,0,1,1536.87,915.757)">
    <rect x="0" y="0" width="0" height="0"/>
   </g>
   <g font-size="31.75" font-style="normal" stroke-width="1" stroke-opacity="1" stroke="#000000" stroke-linecap="square" fill="none" stroke-linejoin="bevel" font-family="Sans Serif" font-weight="400" transform="matrix(1,0,0,1,1062.03,804.232)">
    <text fill-opacity="1" font-size="50" font-style="normal" x="4" y="70" stroke="none" xml:space="preserve" fill="#000000" font-family="osifont" font-weight="400">w3</text>
   </g>
   <g font-size="31.75" font-style="normal" stroke-width="3.5" stroke-opacity="1" stroke="#000000" stroke-linecap="round" fill="none" stroke-linejoin="bevel" font-family="Sans Serif" font-weight="400" transform="matrix(1,0,0,1,1536.87,915.757)">
    <path d="M-387.709,-60.3686 L-287.709,-60.3686 M194.955,-60.3686 L294.955,-60.3686 M-415.391,-60.3686 L-373.391,-60.3686 M194.955,-351.51 L194.955,-32.3686 M-287.709,-351.51 L-287.709,-32.3686" vector-effect="none" fill-rule="evenodd"/>
   </g>
   <g fill-opacity="1" font-size="31.75" font-style="normal" stroke-width="3.5" stroke-opacity="1" stroke="#000000" stroke-linecap="round" fill="#000000" stroke-linejoin="bevel" font-family="Sans Serif" font-weight="400" transform="matrix(1,0,0,1,1731.82,855.388)">
    <path d="M0,0 L50,8.33333 L50,-8.33333 L0,0" vector-effect="none" fill-rule="evenodd"/>
   </g>
   <g fill-opacity="1" font-size="31.75" font-style="normal" stroke-width="3.5" stroke-opacity="1" stroke="#000000" stroke-linecap="round" fill="#000000" stroke-linejoin="bevel" font-family="Sans Serif" font-weight="400" transform="matrix(1,0,0,1,1249.16,855.388)">
    <path d="M0,0 L-50,-8.33333 L-50,8.33333 L0,0" vector-effect="none" fill-rule="evenodd"/>
   </g>
   <g font-size="31.75" font-style="normal" stroke-width="1" stroke-opacity="1" stroke="#000000" stroke-linecap="square" fill="none" stroke-linejoin="bevel" font-family="Sans Serif" font-weight="400" transform="matrix(1,0,0,1,1536.87,915.757)">
    <rect x="0" y="0" width="0" height="0"/>
   </g>
   <g font-size="31.75" font-style="normal" stroke-width="1" stroke-opacity="1" stroke="#000000" stroke-linecap="square" fill="none" stroke-linejoin="bevel" font-family="Sans Serif" font-weight="400" transform="matrix(1,0,0,1,1135.02,297.172)">
    <text fill-opacity="1" font-size="50" font-style="normal" x="4" y="70" stroke="none" xml:space="preserve" fill="#000000" font-family="osifont" font-weight="400">w4</text>
   </g>
   <g font-size="31.75" font-style="normal" stroke-width="3.5" stroke-opacity="1" stroke="#000000" stroke-linecap="round" fill="none" stroke-linejoin="bevel" font-family="Sans Serif" font-weight="400" transform="matrix(1,0,0,1,1536.87,915.757)">
    <path d="M-298.169,-567.429 L-173.014,-567.429 M80.2602,-567.429 L180.26,-567.429 M-340.169,-567.429 L-298.169,-567.429 M80.2602,-529.919 L80.2602,-595.429 M-173.014,-529.919 L-173.014,-595.429" vector-effect="none" fill-rule="evenodd"/>
   </g>
   <g fill-opacity="1" font-size="31.75" font-style="normal" stroke-width="3.5" stroke-opacity="1" stroke="#000000" stroke-linecap="round" fill="#000000" stroke-linejoin="bevel" font-family="Sans Serif" font-weight="400" transform="matrix(1,0,0,1,1617.13,348.328)">
    <path d="M0,0 L50,8.33333 L50,-8.33333 L0,0" vector-effect="none" fill-rule="evenodd"/>
   </g>
   <g fill-opacity="1" font-size="31.75" font-style="normal" stroke-width="3.5" stroke-opacity="1" stroke="#000000" stroke-linecap="round" fill="#000000" stroke-linejoin="bevel" font-family="Sans Serif" font-weight="400" transform="matrix(1,0,0,1,1363.85,348.328)">
    <path d="M0,0 L-50,-8.33333 L-50,8.33333 L0,0" vector-effect="none" fill-rule="evenodd"/>
   </g>
   <g font-size="31.75" font-style="normal" stroke-width="1" stroke-opacity="1" stroke="#000000" stroke-linecap="square" fill="none" stroke-linejoin="bevel" font-family="Sans Serif" font-weight="400" transform="matrix(1,0,0,1,1536.87,915.757)">
    <rect x="0" y="0" width="0" height="0"/>
   </g>
   <g font-size="31.75" font-style="normal" stroke-width="1" stroke-opacity="1" stroke="#000000" stroke-linecap="square" fill="none" stroke-linejoin="bevel" font-family="Sans Serif" font-weight="400" transform="matrix(1,0,0,1,1954.43,1486.5)">
    <text fill-opacity="1" font-size="50" font-style="normal" x="4" y="70" stroke="none" xml:space="preserve" fill="#000000" font-family="osifont" font-weight="400">h2</text>
   </g>
   <g font-size="31.75" font-style="normal" stroke-width="3.5" stroke-opacity="1" stroke="#000000" stroke-linecap="round" fill="none" stroke-linejoin="bevel" font-family="Sans Serif" font-weight="400" transform="matrix(1,0,0,1,1536.87,915.757)">
    <path d="M364.933,621.897 L364.933,507.39 M364.933,481.441 L364.933,381.441 M406.933,621.897 L364.933,621.897 M103.53,481.441 L392.933,481.441 M28.1134,507.39 L392.933,507.39" vector-effect="none" fill-rule="evenodd"/>
   </g>
   <g fill-opacity="1" font-size="31.75" font-style="normal" stroke-width="3.5" stroke-opacity="1" stroke="#000000" stroke-linecap="round" fill="#000000" stroke-linejoin="bevel" font-family="Sans Serif" font-weight="400" transform="matrix(1,0,0,1,1901.8,1397.2)">
    <path d="M0,0 L8.33333,-50 L-8.33333,-50 L0,0" vector-effect="none" fill-rule="evenodd"/>
   </g>
   <g fill-opacity="1" font-size="31.75" font-style="normal" stroke-width="3.5" stroke-opacity="1" stroke="#000000" stroke-linecap="round" fill="#000000" stroke-linejoin="bevel" font-family="Sans Serif" font-weight="400" transform="matrix(1,0,0,1,1901.8,1423.15)">
    <path d="M0,0 L-8.33333,50 L8.33333,50 L0,0" vector-effect="none" fill-rule="evenodd"/>
   </g>
   <g font-size="31.75" font-style="normal" stroke-width="1" stroke-opacity="1" stroke="#000000" stroke-linecap="square" fill="none" stroke-linejoin="bevel" font-family="Sans Serif" font-weight="400" transform="matrix(1,0,0,1,1536.87,915.757)">
    <rect x="0" y="0" width="0" height="0"/>
   </g>
   <g font-size="31.75" font-style="normal" stroke-width="1" stroke-opacity="1" stroke="#000000" stroke-linecap="square" fill="none" stroke-linejoin="bevel" font-family="Sans Serif" font-weight="400" transform="matrix(1,0,0,1,1903.04,948.029)">
    <text fill-opacity="1" font-size="50" font-style="normal" x="4" y="70" stroke="none" xml:space="preserve" fill="#000000" font-family="osifont" font-weight="400">h3</text>
   </g>
   <g font-size="31.75" font-style="normal" stroke-width="3.5" stroke-opacity="1" stroke="#000000" stroke-linecap="round" fill="none" stroke-linejoin="bevel" font-family="Sans Serif" font-weight="400" transform="matrix(1,0,0,1,1536.87,915.757)">
    <path d="M313.712,481.441 L313.712,-372.51 M355.712,83.4279 L313.712,83.4279 M215.955,-372.51 L341.712,-372.51 M103.53,481.441 L341.712,481.441" vector-effect="none" fill-rule="evenodd"/>
   </g>
   <g fill-opacity="1" font-size="31.75" font-style="normal" stroke-width="3.5" stroke-opacity="1" stroke="#000000" stroke-linecap="round" fill="#000000" stroke-linejoin="bevel" font-family="Sans Serif" font-weight="400" transform="matrix(1,0,0,1,1850.58,543.247)">
    <path d="M0,0 L-8.33333,50 L8.33333,50 L0,0" vector-effect="none" fill-rule="evenodd"/>
   </g>
   <g fill-opacity="1" font-size="31.75" font-style="normal" stroke-width="3.5" stroke-opacity="1" stroke="#000000" stroke-linecap="round" fill="#000000" stroke-linejoin="bevel" font-family="Sans Serif" font-weight="400" transform="matrix(1,0,0,1,1850.58,1397.2)">
    <path d="M0,0 L8.33333,-50 L-8.33333,-50 L0,0" vector-effect="none" fill-rule="evenodd"/>
   </g>
   <g font-size="31.75" font-style="normal" stroke-width="1" stroke-opacity="1" stroke="#000000" stroke-linecap="square" fill="none" stroke-linejoin="bevel" font-family="Sans Serif" font-weight="400" transform="matrix(1,0,0,1,1536.87,915.757)">
    <rect x="0" y="0" width="0" height="0"/>
   </g>
   <g font-size="31.75" font-style="normal" stroke-width="1" stroke-opacity="1" stroke="#000000" stroke-linecap="square" fill="none" stroke-linejoin="bevel" font-family="Sans Serif" font-weight="400" transform="matrix(1,0,0,1,1957.09,285.311)">
    <text fill-opacity="1" font-size="50" font-style="normal" x="4" y="70" stroke="none" xml:space="preserve" fill="#000000" font-family="osifont" font-weight="400">h4</text>
   </g>
   <g font-size="31.75" font-style="normal" stroke-width="3.5" stroke-opacity="1" stroke="#000000" stroke-linecap="round" fill="none" stroke-linejoin="bevel" font-family="Sans Serif" font-weight="400" transform="matrix(1,0,0,1,1536.87,915.757)">
    <path d="M367.18,-272.51 L367.18,-372.51 M367.18,-508.919 L367.18,-608.919 M409.18,-579.29 L367.18,-579.29 M101.26,-508.919 L395.18,-508.919 M215.955,-372.51 L395.18,-372.51" vector-effect="none" fill-rule="evenodd"/>
   </g>
   <g fill-opacity="1" font-size="31.75" font-style="normal" stroke-width="3.5" stroke-opacity="1" stroke="#000000" stroke-linecap="round" fill="#000000" stroke-linejoin="bevel" font-family="Sans Serif" font-weight="400" transform="matrix(1,0,0,1,1904.05,406.838)">
    <path d="M0,0 L8.33333,-50 L-8.33333,-50 L0,0" vector-effect="none" fill-rule="evenodd"/>
   </g>
   <g fill-opacity="1" font-size="31.75" font-style="normal" stroke-width="3.5" stroke-opacity="1" stroke="#000000" stroke-linecap="round" fill="#000000" stroke-linejoin="bevel" font-family="Sans Serif" font-weight="400" transform="matrix(1,0,0,1,1904.05,543.247)">
    <path d="M0,0 L-8.33333,50 L8.33333,50 L0,0" vector-effect="none" fill-rule="evenodd"/>
   </g>
   <g font-size="31.75" font-style="normal" stroke-width="1" stroke-opacity="1" stroke="#000000" stroke-linecap="square" fill="none" stroke-linejoin="bevel" font-family="Sans Serif" font-weight="400" transform="matrix(1,0,0,1,1536.87,915.757)">
    <rect x="0" y="0" width="0" height="0"/>
   </g>
   <g font-size="31.75" font-style="normal" stroke-width="1" stroke-opacity="1" stroke="#000000" stroke-linecap="square" fill="none" stroke-linejoin="bevel" font-family="Sans Serif" font-weight="400" transform="matrix(0.764382,-0.644763,0.644763,0.764382,1540.36,476.724)">
    <text fill-opacity="1" font-size="50" font-style="normal" x="4" y="70" stroke="none" xml:space="preserve" fill="#000000" font-family="osifont" font-weight="400">s3</text>
   </g>
   <g font-size="31.75" font-style="normal" stroke-width="3.5" stroke-opacity="1" stroke="#000000" stroke-linecap="round" fill="none" stroke-linejoin="bevel" font-family="Sans Serif" font-weight="400" transform="matrix(1,0,0,1,1536.87,915.757)">
    <path d="M47.6221,-364.73 L167.66,-465.983" vector-effect="none" fill-rule="evenodd"/>
   </g>
   <g fill-opacity="1" font-size="31.75" font-style="normal" stroke-width="3.5" stroke-opacity="1" stroke="#000000" stroke-linecap="round" fill="#000000" stroke-linejoin="bevel" font-family="Sans Serif" font-weight="400" transform="matrix(1,0,0,1,1704.53,449.774)">
    <path d="M0,0 L-43.5921,25.8683 L-32.8461,38.608 L0,0" vector-effect="none" fill-rule="evenodd"/>
   </g>
   <g font-size="31.75" font-style="normal" stroke-width="1" stroke-opacity="1" stroke="#000000" stroke-linecap="square" fill="none" stroke-linejoin="bevel" font-family="Sans Serif" font-weight="400" transform="matrix(1,0,0,1,1536.87,915.757)">
    <rect x="0" y="0" width="0" height="0"/>
   </g>
   <g font-size="31.75" font-style="normal" stroke-width="1" stroke-opacity="1" stroke="#000000" stroke-linecap="square" fill="none" stroke-linejoin="bevel" font-family="Sans Serif" font-weight="400" transform="matrix(1,0,0,1,1139.96,1228.38)">
    <text fill-opacity="1" font-size="50" font-style="normal" x="4" y="70" stroke="none" xml:space="preserve" fill="#000000" font-family="osifont" font-weight="400">h1</text>
   </g>
   <g font-size="31.75" font-style="normal" stroke-width="3.5" stroke-opacity="1" stroke="#000000" stroke-linecap="round" fill="none" stroke-linejoin="bevel" font-family="Sans Serif" font-weight="400" transform="matrix(1,0,0,1,1536.87,915.757)">
    <path d="M-378.788,656.39 L-378.788,556.39 M-378.788,507.39 L-378.788,390.871 M-120.867,507.39 L-406.788,507.39 M-120.867,556.39 L-406.788,556.39" vector-effect="none" fill-rule="evenodd"/>
   </g>
   <g fill-opacity="1" font-size="31.75" font-style="normal" stroke-width="3.5" stroke-opacity="1" stroke="#000000" stroke-linecap="round" fill="#000000" stroke-linejoin="bevel" font-family="Sans Serif" font-weight="400" transform="matrix(1,0,0,1,1158.08,1423.15)">
    <path d="M0,0 L8.33333,-50 L-8.33333,-50 L0,0" vector-effect="none" fill-rule="evenodd"/>
   </g>
   <g fill-opacity="1" font-size="31.75" font-style="normal" stroke-width="3.5" stroke-opacity="1" stroke="#000000" stroke-linecap="round" fill="#000000" stroke-linejoin="bevel" font-family="Sans Serif" font-weight="400" transform="matrix(1,0,0,1,1158.08,1472.15)">
    <path d="M0,0 L-8.33333,50 L8.33333,50 L0,0" vector-effect="none" fill-rule="evenodd"/>
   </g>
  </g>
 </g>
</svg>
