<?xml version="1.0" ?>
<svg xmlns="http://www.w3.org/2000/svg" xmlns:ev="http://www.w3.org/2001/xml-events" xmlns:xlink="http://www.w3.org/1999/xlink" baseProfile="full" height="600px" version="1.1" viewBox="-14.070000000000004 -14.069999999999972 168.14000000000004 168.14" width="600px">
	<defs/>
	<path d="M 1.9721522630525295e-31,2.8421709e-14 L 5.000000000000001,2.8421709e-14" fill="none" stroke="#000000" stroke-width="0.14000000000000004"/>
	<path d="M 5.000000000000001,2.8421709e-14 L 8.500312,2.8421709e-14" fill="none" stroke="#000000" stroke-width="0.14000000000000004"/>
	<path d="M 8.500312,2.8421709e-14 L 9.500311999999997,2.8421709e-14" fill="none" stroke="#000000" stroke-width="0.14000000000000004"/>
	<path d="M 9.500312,2.8421709e-14 L 140.0,2.8421709e-14" fill="none" stroke="#000000" stroke-width="0.14000000000000004"/>
	<path d="M 140.0,2.8421709e-14 L 140.0,140.00000000000003" fill="none" stroke="#000000" stroke-width="0.14000000000000004"/>
	<path d="M 140.00000000000003,140.00000000000003 L 0.0,140.00000000000003" fill="none" stroke="#000000" stroke-width="0.14000000000000004"/>
	<path d="M 8.8817842e-16,140.00000000000003 L 8.8817842e-16,4.999999903142452" fill="none" stroke="#000000" stroke-width="0.14000000000000004"/>
	<path d="M 8.8817842e-16,4.999999903142452 L 8.8817842e-16,2.842170943040401e-14" fill="none" stroke="#000000" stroke-width="0.14000000000000004"/>
	<path d="M 5.0,2.8421708993652644e-14 L 5.0,4.999999903142452" fill="none" stroke="#000000" stroke-width="0.14000000000000004"/>
	<path d="M 5.0,4.999999903142452 L 8.881784197001252e-16,4.999999903142452" fill="none" stroke="#000000" stroke-width="0.14000000000000004"/>
	<path d="M 9.500312,2.8421708999999996e-14 L 9.500312,1.5" fill="none" stroke="#000000" stroke-width="0.14000000000000004"/>
	<path d="M 9.500312,1.5 L 8.500312,1.5" fill="none" stroke="#000000" stroke-width="0.14000000000000004"/>
	<path d="M 8.500312,1.5 L 8.500312,2.842170943040401e-14" fill="none" stroke="#000000" stroke-width="0.14000000000000004"/>
	<path d="M 12.526132,1.5 L 13.526132,1.5" fill="none" stroke="#000000" stroke-width="0.14000000000000004"/>
	<path d="M 13.526132,1.5 L 13.526132,3.0" fill="none" stroke="#000000" stroke-width="0.14000000000000004"/>
	<path d="M 13.526132,3.0 L 12.526132,3.0" fill="none" stroke="#000000" stroke-width="0.14000000000000004"/>
	<path d="M 12.526132,3.0 L 12.526132,1.5" fill="none" stroke="#000000" stroke-width="0.14000000000000004"/>
	<path d="M 17.207136,3.0 L 18.207136,3.0" fill="none" stroke="#000000" stroke-width="0.14000000000000004"/>
	<path d="M 18.207136,3.0 L 18.207136,4.5" fill="none" stroke="#000000" stroke-width="0.14000000000000004"/>
	<path d="M 18.207136000000002,4.5 L 17.207136,4.5" fill="none" stroke="#000000" stroke-width="0.14000000000000004"/>
	<path d="M 17.207136,4.5 L 17.207136,3.0" fill="none" stroke="#000000" stroke-width="0.14000000000000004"/>
	<path d="M 14.914209,4.5 L 15.914209,4.5" fill="none" stroke="#000000" stroke-width="0.14000000000000004"/>
	<path d="M 15.914209,4.5 L 15.914209,6.0" fill="none" stroke="#000000" stroke-width="0.14000000000000004"/>
	<path d="M 15.914209,6.0 L 14.914209,6.0" fill="none" stroke="#000000" stroke-width="0.14000000000000004"/>
	<path d="M 14.914209,6.0 L 14.914209,4.5" fill="none" stroke="#000000" stroke-width="0.14000000000000004"/>
	<path d="M 9.902948,6.0 L 10.902948,6.0" fill="none" stroke="#000000" stroke-width="0.14000000000000004"/>
	<path d="M 10.902948,6.0 L 10.902948,7.5" fill="none" stroke="#000000" stroke-width="0.14000000000000004"/>
	<path d="M 10.902948,7.5 L 9.902948,7.5" fill="none" stroke="#000000" stroke-width="0.14000000000000004"/>
	<path d="M 9.902948,7.5 L 9.902948,6.0" fill="none" stroke="#000000" stroke-width="0.14000000000000004"/>
	<path d="M 8.579066,7.5 L 9.579066,7.5" fill="none" stroke="#000000" stroke-width="0.14000000000000004"/>
	<path d="M 9.579066,7.5 L 9.579066,9.0" fill="none" stroke="#000000" stroke-width="0.14000000000000004"/>
	<path d="M 9.579066,9.0 L 9.468775999999998,9.0" fill="none" stroke="#000000" stroke-width="0.14000000000000004"/>
	<path d="M 9.468775999999998,9.0 L 8.579066,9.0" fill="none" stroke="#000000" stroke-width="0.14000000000000004"/>
	<path d="M 8.579066,9.0 L 8.579066,7.5" fill="none" stroke="#000000" stroke-width="0.14000000000000004"/>
	<path d="M 9.579066000000001,9.0 L 10.468776,9.0" fill="none" stroke="#000000" stroke-width="0.14000000000000004"/>
	<path d="M 10.468776,9.0 L 10.468776,10.5" fill="none" stroke="#000000" stroke-width="0.14000000000000004"/>
	<path d="M 10.468776,10.5 L 9.66541299999999,10.5" fill="none" stroke="#000000" stroke-width="0.14000000000000004"/>
	<path d="M 9.66541299999999,10.5 L 9.468776,10.5" fill="none" stroke="#000000" stroke-width="0.14000000000000004"/>
	<path d="M 9.468776,10.5 L 9.468776,9.0" fill="none" stroke="#000000" stroke-width="0.14000000000000004"/>
	<path d="M 10.468775999999998,10.5 L 10.665413,10.5" fill="none" stroke="#000000" stroke-width="0.14000000000000004"/>
	<path d="M 10.665413,10.5 L 10.665413,12.0" fill="none" stroke="#000000" stroke-width="0.14000000000000004"/>
	<path d="M 10.66541299999999,12.0 L 9.665413,12.0" fill="none" stroke="#000000" stroke-width="0.14000000000000004"/>
	<path d="M 9.665413,12.0 L 9.665413,10.5" fill="none" stroke="#000000" stroke-width="0.14000000000000004"/>
	<path d="M 2.202062,12.0 L 3.202062,12.0" fill="none" stroke="#000000" stroke-width="0.14000000000000004"/>
	<path d="M 3.202062,12.0 L 3.202062,13.5" fill="none" stroke="#000000" stroke-width="0.14000000000000004"/>
	<path d="M 3.202062,13.5 L 2.202062,13.5" fill="none" stroke="#000000" stroke-width="0.14000000000000004"/>
	<path d="M 2.202062,13.5 L 2.202062,12.0" fill="none" stroke="#000000" stroke-width="0.14000000000000004"/>
	<path d="M 7.846768,13.5 L 8.846768,13.5" fill="none" stroke="#000000" stroke-width="0.14000000000000004"/>
	<path d="M 8.846768,13.5 L 8.846768,15.0" fill="none" stroke="#000000" stroke-width="0.14000000000000004"/>
	<path d="M 8.84676800000001,15.0 L 7.846768,15.0" fill="none" stroke="#000000" stroke-width="0.14000000000000004"/>
	<path d="M 7.846768,15.0 L 7.846768,13.5" fill="none" stroke="#000000" stroke-width="0.14000000000000004"/>
</svg>
